<?xml version="1.0" encoding="UTF-8"?>
<svg id="Layer_1" data-name="Layer 1" xmlns="http://www.w3.org/2000/svg" width="704.3" height="451.18" viewBox="0 0 704.3 451.18">
  <defs>
    <style>
      .cls-1 {
        fill: #ff725e;
      }

      .cls-1, .cls-2, .cls-3, .cls-4, .cls-5, .cls-6, .cls-7, .cls-8 {
        stroke-width: 0px;
      }

      .cls-2 {
        fill: #ff9a6c;
      }

      .cls-3 {
        fill: #000;
      }

      .cls-4 {
        fill: #e0e0e0;
      }

      .cls-5 {
        fill: #455a64;
      }

      .cls-9 {
        opacity: .3;
      }

      .cls-10 {
        opacity: .6;
      }

      .cls-6, .cls-11 {
        fill: #263238;
      }

      .cls-7 {
        fill: #ffbf9d;
      }

      .cls-11 {
        font-family: Freeman-Regular, Freeman;
        font-size: 15px;
      }

      .cls-8 {
        fill: #fff;
      }
    </style>
  </defs>
  <g id="Background_Complete" data-name="Background Complete">
    <g>
      <g>
        <path class="cls-4" d="M269.31,33.2s-.05.07-.15.19c-.11.13-.27.3-.46.52-.4.47-1.04,1.12-1.8,2.03-1.5,1.82-3.65,4.56-5.69,8.4-2.01,3.83-3.94,8.81-4.45,14.74-.62,5.9.36,12.63,3.02,19.25l.08.19-.2.06c-6.89,1.99-14.13,5.31-20.66,10.22-4.8,3.52-8.93,7.64-12.36,11.95-3.43,4.31-6.14,8.84-8.13,13.28l-.07.15-.15-.05c-2.79-.9-5.54-1.49-8.2-1.84-1.32-.2-2.63-.27-3.9-.36-1.27-.02-2.5-.08-3.7-.02-4.79.12-8.93,1-12.23,1.98-3.31.99-5.81,2.12-7.47,2.94-.84.4-1.45.77-1.88.99-.2.11-.36.19-.49.25-.11.05-.17.08-.17.08,0,0,.05-.04.15-.1.12-.07.27-.16.47-.28.42-.23,1.03-.62,1.86-1.04,1.66-.85,4.15-2.01,7.46-3.04,3.31-1.01,7.46-1.93,12.29-2.07,1.2-.07,2.45-.02,3.72,0,1.27.09,2.59.15,3.92.35,2.67.34,5.45.93,8.26,1.83l-.22.1c1.99-4.47,4.71-9.03,8.15-13.38,3.44-4.34,7.59-8.49,12.42-12.03,6.57-4.94,13.86-8.28,20.8-10.26l-.12.25c-2.67-6.68-3.64-13.48-2.99-19.43.54-5.97,2.52-10.98,4.57-14.82,2.08-3.85,4.27-6.57,5.8-8.37.78-.9,1.43-1.54,1.85-1.99.21-.21.37-.38.49-.5.11-.11.17-.17.17-.16Z"/>
        <path class="cls-4" d="M179.58,33.2s.06.08.16.26c.11.19.25.45.43.78.38.71.93,1.71,1.62,3,1.41,2.61,3.41,6.4,5.84,11.11,4.87,9.42,11.41,22.53,18.24,37.19,6.83,14.67,12.65,28.11,16.73,37.9,2.04,4.89,3.66,8.87,4.75,11.62.54,1.36.96,2.43,1.25,3.18.13.35.24.62.32.83.07.19.1.29.1.29,0,0-.05-.09-.13-.27-.09-.2-.2-.47-.35-.82-.31-.74-.75-1.8-1.32-3.15-1.16-2.75-2.82-6.7-4.86-11.57-4.14-9.76-10-23.18-16.83-37.84-6.83-14.66-13.32-27.78-18.13-37.23-2.41-4.7-4.36-8.51-5.73-11.17-.67-1.3-1.19-2.32-1.56-3.04-.17-.33-.3-.6-.4-.79-.09-.18-.13-.27-.12-.28Z"/>
        <path class="cls-4" d="M287.16,33.34s-.19.01-.55.02c-.38,0-.92.01-1.62.02-1.43,0-3.53.02-6.22.04-5.42.01-13.24.04-22.91.06-19.37.01-46.16.04-75.88.06l.09-.37c.68.36,1.43.75,2.17,1.13,26.83,14.03,50.87,27.22,68.17,36.94,8.65,4.86,15.62,8.83,20.43,11.6,2.39,1.39,4.25,2.46,5.53,3.2.62.37,1.1.65,1.43.84.32.19.48.3.48.3,0,0-.17-.08-.5-.26-.34-.19-.82-.46-1.45-.81-1.28-.72-3.15-1.78-5.56-3.14-4.85-2.72-11.85-6.64-20.49-11.49-17.33-9.65-41.38-22.8-68.21-36.83-.74-.39-1.48-.78-2.17-1.13l-.72-.38h.81c29.71.02,56.51.04,75.88.06,9.67.03,17.49.05,22.91.06,2.69.02,4.79.03,6.22.04.7,0,1.24.01,1.62.02.36,0,.55.02.55.02Z"/>
        <path class="cls-4" d="M180.24,100.82s.36-.27,1.06-.71c.35-.22.77-.49,1.3-.75.52-.26,1.09-.61,1.78-.88.67-.3,1.41-.63,2.23-.91.81-.32,1.7-.57,2.64-.83,1.89-.48,4.01-.85,6.26-.97,2.25-.09,4.4.07,6.32.38.96.18,1.87.34,2.7.58.84.2,1.61.46,2.3.69.71.21,1.31.5,1.85.71.54.21.99.44,1.36.62.73.37,1.13.58,1.12.61-.01.02-.43-.14-1.18-.47-.37-.17-.83-.37-1.38-.56-.55-.19-1.15-.46-1.86-.65-.7-.21-1.46-.46-2.3-.64-.83-.22-1.73-.38-2.68-.54-1.9-.28-4.02-.43-6.24-.34-2.22.12-4.31.47-6.18.92-.93.25-1.81.49-2.62.79-.82.26-1.55.58-2.23.85-.68.26-1.26.58-1.79.83-.53.24-.96.49-1.32.68-.72.39-1.12.6-1.14.58Z"/>
        <path class="cls-4" d="M213.01,101.53s-.02-.18-.03-.53c0-.35-.03-.86.02-1.52.05-1.32.25-3.22.78-5.52.53-2.3,1.45-4.98,2.91-7.74,1.45-2.76,3.49-5.58,6.09-8.09,2.62-2.48,5.53-4.39,8.36-5.71,2.83-1.33,5.55-2.13,7.87-2.55,2.32-.43,4.23-.54,5.55-.53.66-.02,1.17.04,1.52.05.35.02.53.04.53.05s-.18.02-.53.03c-.35.01-.86-.02-1.51.03-1.31.03-3.2.19-5.5.65-2.29.45-4.98,1.27-7.76,2.6-2.79,1.33-5.65,3.22-8.24,5.67-2.56,2.47-4.58,5.25-6.04,7.97-1.46,2.72-2.4,5.36-2.96,7.64-.56,2.27-.8,4.16-.9,5.46-.07.65-.06,1.16-.09,1.51-.02.35-.04.53-.05.53Z"/>
        <path class="cls-4" d="M252.1,33.2s-.05.12-.18.34c-.16.25-.35.55-.58.92-.26.4-.58.88-.9,1.47-.32.59-.74,1.23-1.1,1.99-.38.75-.81,1.57-1.18,2.49-.42.9-.78,1.9-1.16,2.94-.71,2.11-1.33,4.48-1.72,7.03-.36,2.55-.44,5-.36,7.23.07,1.11.12,2.17.27,3.15.1.99.28,1.89.42,2.72.13.83.35,1.57.49,2.22.14.66.31,1.21.44,1.66.12.42.21.76.29,1.05.06.24.09.37.08.38-.01,0-.07-.12-.15-.35-.1-.28-.22-.62-.36-1.03-.16-.45-.35-1-.51-1.65-.16-.65-.4-1.39-.55-2.22-.17-.83-.36-1.74-.48-2.74-.16-.99-.23-2.05-.31-3.18-.1-2.25-.03-4.73.33-7.3.39-2.57,1.03-4.97,1.77-7.09.39-1.05.77-2.06,1.2-2.96.39-.92.84-1.74,1.24-2.49.38-.76.82-1.39,1.16-1.97.34-.58.68-1.05.96-1.44.26-.35.47-.64.64-.88.15-.2.23-.3.24-.29Z"/>
        <path class="cls-4" d="M232.9,33.2s-.24.31-.71.85-1.12,1.32-1.85,2.36c-.73,1.03-1.48,2.34-2.12,3.87-.62,1.54-1.09,3.32-1.26,5.24-.37,3.84.41,7.32,1.3,9.67.44,1.18.89,2.1,1.22,2.73.33.63.52.97.5.99-.02.01-.26-.3-.63-.91-.37-.61-.87-1.52-1.35-2.7-.97-2.35-1.82-5.89-1.44-9.81.18-1.95.67-3.77,1.32-5.34.66-1.56,1.46-2.87,2.23-3.9.76-1.03,1.46-1.79,1.96-2.3.51-.51.81-.76.82-.74Z"/>
        <path class="cls-4" d="M203.41,83.8s0-.14.04-.39c.05-.3.11-.67.19-1.11.1-.48.25-1.06.41-1.74.21-.66.4-1.44.71-2.25,1.14-3.3,3.42-7.71,7.15-11.59,3.7-3.86,7.96-6.56,11.44-7.3,1.73-.39,3.19-.28,4.15-.06.48.12.84.24,1.08.35.24.1.36.16.35.17-.02.04-.51-.19-1.46-.37-.95-.17-2.37-.24-4.05.18-3.38.79-7.55,3.48-11.21,7.3-3.68,3.83-5.98,8.16-7.17,11.42-.33.81-.54,1.57-.76,2.22-.18.67-.35,1.24-.47,1.71-.1.44-.19.8-.26,1.09-.06.25-.1.38-.12.38Z"/>
        <path class="cls-4" d="M179.98,83.53s.28-.19.82-.47c.53-.29,1.34-.64,2.35-1.03,1.02-.38,2.26-.76,3.67-1.04,1.41-.27,2.99-.45,4.65-.44,1.66.02,3.24.24,4.65.53,1.41.3,2.64.72,3.65,1.11,1.01.41,1.8.78,2.33,1.08.53.29.82.46.81.49-.04.07-1.22-.57-3.24-1.3-2.02-.73-4.92-1.47-8.2-1.51-3.28-.03-6.2.66-8.23,1.35-2.03.69-3.23,1.3-3.26,1.23Z"/>
        <path class="cls-4" d="M180.24,67.7s.14-.17.44-.43c.3-.26.76-.6,1.35-.99,1.19-.77,2.99-1.64,5.14-2.04,2.15-.39,4.15-.2,5.53.1.69.15,1.25.31,1.62.45.37.13.57.22.57.25-.02.07-.85-.19-2.23-.42-1.38-.22-3.32-.36-5.41.02-2.09.39-3.86,1.2-5.07,1.89-1.21.7-1.9,1.23-1.94,1.18Z"/>
        <path class="cls-4" d="M214.13,49.53c.01.08-1.35.26-3.43.99-.52.18-1.08.39-1.67.66-.6.24-1.2.58-1.85.91-1.26.71-2.59,1.6-3.87,2.68-1.27,1.09-2.35,2.27-3.26,3.4-.43.58-.86,1.13-1.19,1.68-.37.53-.66,1.06-.92,1.54-1.04,1.94-1.44,3.25-1.52,3.23-.03,0,.07-.34.26-.93.09-.3.21-.66.39-1.06.18-.4.35-.88.62-1.37.25-.5.53-1.04.89-1.59.33-.57.75-1.13,1.18-1.73.9-1.16,2-2.37,3.29-3.48,1.3-1.1,2.66-1.99,3.96-2.7.66-.33,1.28-.66,1.89-.89.6-.27,1.18-.46,1.71-.63.52-.19,1.02-.29,1.45-.4.43-.11.8-.18,1.11-.22.61-.09.95-.13.96-.1Z"/>
        <path class="cls-4" d="M215.02,32.99c.06.04-.49.84-1.12,2.26-.32.71-.62,1.58-.88,2.57-.24.99-.42,2.1-.48,3.28-.04,1.18.04,2.3.19,3.31.17,1.01.39,1.9.65,2.63.5,1.47.99,2.31.92,2.34-.02.01-.16-.19-.38-.57-.23-.37-.51-.95-.8-1.68-.29-.73-.55-1.64-.74-2.67-.17-1.03-.27-2.18-.23-3.39.06-1.21.26-2.34.52-3.36.28-1.01.62-1.89.97-2.59.35-.71.68-1.26.94-1.61.26-.36.41-.54.43-.53Z"/>
      </g>
      <path class="cls-4" d="M179.98,33.34c.11,0,.2,24.72.2,55.2s-.09,55.21-.2,55.21-.2-24.71-.2-55.21.09-55.2.2-55.2Z"/>
    </g>
    <g>
      <g>
        <path class="cls-4" d="M452.38,235.18s.05.04.14.11c.1.09.23.2.39.35.35.3.84.78,1.52,1.35,1.36,1.12,3.41,2.73,6.28,4.25,2.86,1.5,6.59,2.95,11.02,3.33,4.41.46,9.45-.27,14.4-2.26l.14-.06.04.15c1.48,5.15,3.97,10.57,7.64,15.45,2.63,3.59,5.71,6.68,8.93,9.24,3.23,2.56,6.61,4.59,9.93,6.08l.11.05-.04.11c-.68,2.08-1.12,4.15-1.38,6.13-.15.99-.2,1.97-.27,2.91-.02.95-.06,1.87-.01,2.77.09,3.58.75,6.67,1.48,9.15.74,2.48,1.58,4.34,2.2,5.59.3.63.58,1.09.74,1.41.08.15.14.27.19.36.04.08.06.12.06.13,0,0-.03-.04-.08-.12-.05-.09-.12-.2-.21-.35-.17-.32-.46-.77-.78-1.39-.64-1.24-1.5-3.1-2.27-5.58-.75-2.48-1.44-5.58-1.55-9.19-.05-.9-.02-1.83,0-2.78.07-.95.12-1.93.26-2.93.26-2,.69-4.08,1.37-6.18l.07.16c-3.34-1.49-6.75-3.52-10-6.1-3.25-2.57-6.35-5.68-8.99-9.29-3.69-4.91-6.19-10.36-7.67-15.55l.19.09c-4.99,2-10.08,2.72-14.53,2.24-4.47-.4-8.21-1.88-11.08-3.41-2.88-1.55-4.91-3.19-6.26-4.34-.67-.58-1.15-1.07-1.49-1.38-.16-.15-.28-.27-.38-.36-.08-.08-.12-.13-.12-.13Z"/>
        <path class="cls-4" d="M452.38,302.27s.06-.05.19-.12c.14-.08.33-.19.58-.32.53-.29,1.28-.69,2.24-1.21,1.95-1.05,4.79-2.55,8.31-4.37,7.04-3.64,16.84-8.53,27.81-13.64,10.97-5.11,21.02-9.46,28.34-12.51,3.66-1.52,6.63-2.73,8.69-3.55,1.02-.4,1.82-.72,2.38-.94.26-.1.47-.18.62-.24.14-.05.21-.08.22-.07,0,0-.07.04-.2.1-.15.07-.35.15-.61.26-.55.23-1.34.56-2.35.99-2.06.86-5.01,2.11-8.65,3.64-7.3,3.1-17.33,7.48-28.3,12.58-10.96,5.11-20.77,9.96-27.84,13.56-3.52,1.8-6.37,3.26-8.35,4.28-.98.5-1.74.89-2.27,1.17-.25.12-.45.22-.59.3-.13.07-.21.1-.21.09Z"/>
        <path class="cls-4" d="M452.48,221.83s.01.14.02.41c0,.28,0,.68.02,1.21,0,1.07.02,2.64.03,4.65.01,4.05.03,9.9.05,17.13.01,14.49.03,34.52.05,56.74l-.28-.07c.27-.51.56-1.07.85-1.62,10.49-20.07,20.35-38.04,27.62-50.97,3.63-6.47,6.61-11.68,8.68-15.28,1.04-1.79,1.84-3.18,2.39-4.13.27-.46.48-.82.63-1.07.14-.24.22-.36.22-.36,0,0-.06.13-.2.38-.14.25-.34.61-.6,1.08-.54.96-1.33,2.36-2.35,4.16-2.03,3.63-4.97,8.86-8.59,15.32-7.22,12.96-17.05,30.95-27.54,51.01-.29.55-.58,1.11-.85,1.62l-.28.54v-.6c.02-22.22.03-42.25.04-56.74.02-7.23.04-13.08.05-17.13.01-2.01.02-3.58.03-4.65,0-.52.01-.93.01-1.21,0-.27.02-.41.02-.41Z"/>
        <path class="cls-4" d="M502.95,301.78s-.21-.27-.53-.79c-.16-.26-.36-.58-.56-.97-.2-.39-.45-.82-.66-1.33-.22-.5-.47-1.05-.68-1.67-.24-.6-.42-1.27-.62-1.97-.36-1.41-.64-3-.72-4.68-.07-1.68.05-3.29.28-4.73.13-.72.26-1.4.43-2.02.15-.63.35-1.2.52-1.72.16-.53.38-.98.53-1.39.16-.41.33-.74.47-1.02.28-.55.44-.85.46-.84.02,0-.11.33-.35.89-.12.28-.28.62-.42,1.03-.14.41-.34.86-.49,1.39-.16.52-.35,1.09-.48,1.72-.17.62-.28,1.3-.4,2.01-.21,1.42-.32,3.01-.26,4.67.09,1.66.35,3.23.69,4.62.19.7.36,1.36.59,1.96.19.61.43,1.16.64,1.66.19.51.44.94.62,1.34.18.4.36.72.51.99.3.54.45.84.43.85Z"/>
        <path class="cls-4" d="M503.48,277.28s-.14.02-.4.02c-.26,0-.64.02-1.13-.02-.98-.04-2.41-.19-4.13-.58-1.72-.39-3.72-1.08-5.79-2.17-2.07-1.09-4.17-2.61-6.05-4.55-1.86-1.96-3.28-4.14-4.27-6.25-1-2.11-1.59-4.15-1.91-5.88-.32-1.74-.4-3.17-.39-4.15-.01-.49.03-.87.04-1.13.02-.26.03-.39.04-.39s.02.14.02.39c.01.26-.01.64.02,1.13.02.98.14,2.4.48,4.11.34,1.71.95,3.72,1.95,5.81.99,2.08,2.41,4.23,4.24,6.16,1.85,1.92,3.93,3.43,5.96,4.51,2.04,1.09,4.01,1.8,5.71,2.21,1.7.42,3.11.6,4.09.67.49.05.87.05,1.13.07.26.02.39.03.39.04Z"/>
        <path class="cls-4" d="M452.38,248.05s.09.04.25.14c.19.12.41.26.69.43.3.19.66.43,1.1.67.44.24.92.55,1.49.82.56.28,1.17.61,1.86.89.67.31,1.42.58,2.2.86,1.58.53,3.35,1,5.26,1.29,1.9.27,3.74.33,5.4.27.83-.05,1.62-.09,2.36-.2.74-.07,1.42-.21,2.04-.32.62-.1,1.17-.26,1.66-.36.49-.11.9-.23,1.24-.33.31-.09.57-.16.79-.22.18-.05.28-.07.28-.06s-.09.05-.26.11c-.21.07-.46.16-.77.27-.33.12-.75.26-1.23.38-.49.12-1.04.3-1.66.41-.62.12-1.3.27-2.05.36-.74.12-1.54.17-2.38.23-1.68.08-3.54.02-5.46-.25-1.92-.29-3.71-.77-5.3-1.32-.79-.29-1.54-.57-2.21-.9-.69-.29-1.3-.63-1.86-.92-.57-.28-1.04-.61-1.48-.87-.43-.26-.79-.51-1.08-.72-.26-.19-.48-.35-.66-.48-.15-.11-.23-.18-.22-.18Z"/>
        <path class="cls-4" d="M452.38,262.41s.23.18.63.53c.4.35.99.84,1.76,1.38.77.54,1.75,1.11,2.9,1.58,1.15.46,2.49.82,3.92.94,2.87.28,5.48-.31,7.23-.98.88-.33,1.57-.67,2.04-.91s.72-.39.74-.37c0,.02-.23.19-.68.47-.45.28-1.14.65-2.02,1.01-1.76.73-4.41,1.36-7.34,1.08-1.46-.13-2.82-.5-3.99-.99-1.17-.5-2.15-1.09-2.92-1.67-.77-.57-1.34-1.09-1.72-1.47-.38-.38-.57-.6-.56-.61Z"/>
        <path class="cls-4" d="M490.22,284.45s-.1,0-.29-.03c-.22-.04-.5-.08-.83-.14-.36-.07-.79-.18-1.3-.31-.5-.15-1.07-.3-1.69-.53-2.47-.85-5.77-2.56-8.67-5.35-2.89-2.77-4.9-5.95-5.46-8.55-.29-1.29-.21-2.39-.04-3.1.09-.36.18-.63.26-.8.08-.18.12-.27.13-.27.03.01-.14.38-.28,1.09-.13.71-.18,1.77.14,3.03.59,2.53,2.6,5.65,5.46,8.38,2.87,2.75,6.1,4.47,8.54,5.36.6.25,1.17.4,1.66.57.5.14.93.27,1.28.35.33.08.6.14.82.2.19.05.28.08.28.09Z"/>
        <path class="cls-4" d="M490.01,301.98s-.14-.21-.35-.61c-.22-.4-.48-1-.77-1.76-.28-.76-.57-1.69-.78-2.74-.2-1.06-.34-2.24-.33-3.48.02-1.24.18-2.42.4-3.48.23-1.05.54-1.97.83-2.73.3-.75.58-1.35.8-1.74.22-.4.34-.61.36-.6.05.03-.42.91-.97,2.42-.55,1.51-1.1,3.68-1.13,6.13-.02,2.45.49,4.64,1.01,6.15.52,1.52.98,2.41.92,2.44Z"/>
        <path class="cls-4" d="M478.18,301.78s-.13-.11-.32-.33c-.2-.22-.45-.57-.74-1.01-.57-.89-1.23-2.24-1.53-3.85-.29-1.61-.15-3.1.07-4.14.11-.52.23-.93.34-1.21.1-.28.16-.43.18-.42.05.02-.14.64-.31,1.67-.17,1.03-.27,2.48.01,4.05.29,1.56.89,2.89,1.41,3.79.52.9.92,1.42.88,1.45Z"/>
        <path class="cls-4" d="M464.59,276.44c.06-.01.2,1.01.74,2.56.14.39.29.81.5,1.25.18.45.43.9.68,1.38.53.94,1.2,1.94,2,2.9.82.95,1.7,1.76,2.54,2.44.44.32.84.64,1.26.89.4.27.79.49,1.15.69,1.45.78,2.43,1.08,2.41,1.13,0,.02-.25-.05-.7-.19-.22-.07-.49-.16-.79-.29-.3-.13-.66-.26-1.02-.46-.37-.19-.78-.4-1.19-.67-.43-.24-.84-.56-1.29-.88-.87-.68-1.77-1.5-2.6-2.46-.82-.97-1.49-1.99-2.02-2.96-.25-.49-.49-.96-.67-1.42-.2-.45-.34-.88-.47-1.28-.14-.39-.21-.76-.3-1.08-.09-.32-.13-.6-.16-.83-.07-.46-.1-.71-.08-.72Z"/>
        <path class="cls-4" d="M452.23,275.78s.63.37,1.69.84c.53.24,1.18.46,1.92.65.74.18,1.57.31,2.45.36.88.03,1.72-.03,2.48-.14.75-.13,1.42-.29,1.97-.48,1.1-.37,1.73-.74,1.75-.69.01.02-.14.12-.42.29-.28.17-.71.38-1.26.6-.55.22-1.23.41-1.99.56-.77.13-1.63.2-2.53.17-.9-.05-1.75-.19-2.51-.39-.75-.21-1.41-.46-1.94-.73-.53-.26-.94-.51-1.2-.7-.27-.19-.41-.3-.4-.32Z"/>
      </g>
      <path class="cls-4" d="M452.48,301.98c0-.08,18.48-.15,41.28-.15s41.28.07,41.28.15-18.48.15-41.28.15c-22.79,0-41.28-.07-41.28-.15Z"/>
    </g>
    <path class="cls-4" d="M561.1,32.28s.57.04,1.51-.37c.46-.22,1-.57,1.44-1.17.45-.58.76-1.42.73-2.39-.01-1.97-.03-4.37-.04-7.14,0-1.39-.01-2.88-.02-4.46-.02-.78.03-1.63-.04-2.41-.1-.79-.49-1.56-1.1-2.13-.6-.58-1.43-.94-2.3-.97-.91,0-1.85,0-2.8,0-1.91,0-3.9,0-5.97.01-4.12,0-8.53.02-13.16.02-9.27,0-19.46.01-30.16.02-1.25,0-2.47.7-3.06,1.78-.31.53-.46,1.15-.46,1.76,0,.66,0,1.31,0,1.96,0,2.6,0,5.17,0,7.69,0,1.26,0,2.51,0,3.75-.07,1.19.44,2.33,1.34,3.03.45.35.97.6,1.52.7.54.1,1.15.05,1.74.07,1.19,0,2.36,0,3.52,0,9.27.02,17.61.04,24.63.06,6.99.03,12.66.06,16.6.08,1.94.02,3.45.04,4.51.05.5.01.89.02,1.17.03.27,0,.4.02.4.02s-.14.02-.4.03c-.29,0-.68.01-1.17.03-1.06.01-2.58.03-4.51.05-3.95.02-9.61.05-16.6.08-7.02.02-15.36.03-24.63.06-1.16,0-2.33,0-3.52,0-.59-.01-1.18.04-1.83-.07-.63-.11-1.23-.4-1.74-.79-1.03-.78-1.62-2.14-1.54-3.42,0-1.24,0-2.49,0-3.75,0-2.52,0-5.09,0-7.69,0-.65,0-1.31,0-1.96,0-.7.18-1.4.53-2.02.68-1.24,2.08-2.05,3.52-2.05,10.7,0,20.89.01,30.16.02,4.63,0,9.04.02,13.16.02,2.06,0,4.05,0,5.97.01.96,0,1.9.01,2.82.02.96.04,1.88.45,2.54,1.09.66.64,1.09,1.48,1.19,2.35.07.88.02,1.66.03,2.46,0,1.58-.01,3.07-.02,4.46-.02,2.78-.03,5.17-.04,7.14.02,1-.33,1.89-.81,2.48-.47.61-1.04.97-1.52,1.17-.48.21-.89.25-1.15.28-.27,0-.4,0-.4,0Z"/>
    <path class="cls-4" d="M95.63,21.51s.57.04,1.51-.37c.46-.22,1-.57,1.44-1.17.45-.58.76-1.42.73-2.39-.01-1.97-.03-4.37-.04-7.14,0-1.39-.01-2.88-.02-4.46-.02-.78.03-1.63-.04-2.41-.1-.79-.49-1.56-1.1-2.13-.6-.58-1.43-.94-2.3-.97-.91,0-1.85,0-2.8,0-1.91,0-3.9.01-5.96.01-4.12,0-8.53.02-13.16.02-9.27,0-19.46.01-30.16.02-1.25,0-2.46.7-3.06,1.78-.31.53-.46,1.15-.46,1.76v1.96c0,2.6,0,5.17,0,7.69,0,1.26,0,2.51,0,3.75-.07,1.19.44,2.33,1.34,3.03.45.35.97.6,1.52.7.54.1,1.15.05,1.74.07,1.19,0,2.36,0,3.52,0,9.26.02,17.61.04,24.63.06,6.99.03,12.66.06,16.61.08,1.94.02,3.45.04,4.51.05.5.01.88.02,1.17.03.26,0,.4.02.4.03s-.14.02-.4.03c-.29,0-.68.01-1.17.03-1.06.01-2.58.03-4.51.05-3.95.02-9.61.05-16.6.08-7.02.02-15.36.03-24.63.06-1.16,0-2.33,0-3.52,0-.59-.01-1.18.04-1.83-.07-.63-.11-1.23-.4-1.74-.79-1.03-.78-1.62-2.14-1.54-3.42,0-1.24,0-2.49,0-3.75,0-2.52,0-5.09,0-7.69,0-.65,0-1.31,0-1.96,0-.7.18-1.41.53-2.02C40.88.8,42.28,0,43.71,0c10.7,0,20.88.01,30.16.02,4.63,0,9.04.02,13.16.02,2.06,0,4.05.01,5.97.01.96,0,1.9.01,2.82.02.96.04,1.88.45,2.54,1.09.66.64,1.09,1.48,1.19,2.35.07.88.01,1.66.03,2.46,0,1.58-.01,3.07-.02,4.46-.02,2.78-.03,5.17-.04,7.14.01,1-.33,1.89-.81,2.48-.47.61-1.04.97-1.52,1.17-.48.21-.89.25-1.15.28-.27,0-.4,0-.4,0Z"/>
    <path class="cls-4" d="M74.23,42.91s.57.04,1.51-.37c.46-.22,1-.57,1.44-1.17.45-.58.76-1.42.73-2.39-.01-1.97-.03-4.37-.04-7.14,0-1.39-.01-2.88-.02-4.46-.02-.78.03-1.63-.04-2.41-.1-.79-.49-1.56-1.1-2.13-.6-.58-1.43-.94-2.3-.97-.91,0-1.85,0-2.8,0-1.91,0-3.9,0-5.97.01-4.12,0-8.53.02-13.16.02-9.27,0-19.46.01-30.16.02-1.25,0-2.47.7-3.06,1.78-.31.53-.46,1.15-.46,1.76,0,.66,0,1.31,0,1.96,0,2.6,0,5.17,0,7.7,0,1.26,0,2.51,0,3.75-.07,1.19.44,2.33,1.34,3.04.45.35.97.6,1.52.7.54.1,1.15.05,1.74.07,1.19,0,2.36,0,3.52,0,9.26.02,17.61.04,24.63.06,6.99.04,12.66.06,16.61.08,1.94.02,3.45.04,4.51.05.5.01.89.02,1.17.03.26,0,.4.01.4.02s-.14.02-.4.03c-.29,0-.68.01-1.17.03-1.06.01-2.58.03-4.51.05-3.95.02-9.61.05-16.61.08-7.02.02-15.36.04-24.63.06-1.16,0-2.33,0-3.52,0-.59-.01-1.19.04-1.83-.07-.63-.11-1.23-.4-1.74-.79-1.03-.79-1.62-2.14-1.54-3.43,0-1.24,0-2.49,0-3.75,0-2.52,0-5.09,0-7.69,0-.65,0-1.31,0-1.96,0-.7.18-1.4.53-2.02.69-1.24,2.08-2.05,3.51-2.05,10.7,0,20.88.01,30.16.02,4.63,0,9.04.02,13.16.02,2.06,0,4.05,0,5.96.01.96,0,1.9.01,2.82.02.96.04,1.88.45,2.54,1.09.66.64,1.09,1.48,1.19,2.35.07.88.01,1.66.03,2.46,0,1.58-.01,3.07-.02,4.46-.02,2.78-.03,5.17-.04,7.14.01,1-.33,1.89-.81,2.48-.47.61-1.04.97-1.52,1.17-.48.21-.89.25-1.15.28-.27,0-.4,0-.4,0Z"/>
    <path class="cls-4" d="M180.28,341.74s.57.04,1.51-.37c.46-.22,1-.57,1.44-1.17.45-.58.76-1.42.73-2.39-.01-1.97-.03-4.37-.04-7.14,0-1.39-.01-2.88-.02-4.46-.02-.78.03-1.63-.04-2.41-.1-.79-.49-1.55-1.1-2.13-.6-.58-1.43-.94-2.3-.97-.91,0-1.85,0-2.8,0-1.91,0-3.9.01-5.96.02-4.12,0-8.53.02-13.16.02-9.27,0-19.46.01-30.16.02-1.25,0-2.46.7-3.06,1.78-.31.53-.46,1.15-.46,1.76,0,.66,0,1.31,0,1.96,0,2.61,0,5.17,0,7.7,0,1.26,0,2.51,0,3.75-.07,1.19.44,2.33,1.34,3.04.45.35.97.6,1.52.7.54.1,1.15.05,1.74.07,1.19,0,2.36,0,3.52,0,9.26.02,17.61.04,24.63.06,6.99.04,12.66.06,16.6.08,1.94.02,3.45.04,4.51.05.5.01.88.02,1.17.03.26,0,.4.02.4.02s-.13.02-.4.03c-.29,0-.68.02-1.17.03-1.06.01-2.58.03-4.51.05-3.95.02-9.62.05-16.6.08-7.02.02-15.37.04-24.63.06-1.16,0-2.33,0-3.52,0-.59-.01-1.18.04-1.83-.07-.63-.11-1.23-.4-1.74-.79-1.03-.79-1.62-2.14-1.54-3.42,0-1.24,0-2.49,0-3.75,0-2.52,0-5.09,0-7.7,0-.65,0-1.3,0-1.96,0-.7.18-1.4.53-2.02.68-1.24,2.08-2.05,3.51-2.05,10.7,0,20.88.01,30.16.02,4.63,0,9.04.02,13.16.02,2.06,0,4.05.01,5.96.02.96,0,1.9.01,2.82.02.96.04,1.88.45,2.54,1.09.66.64,1.09,1.48,1.19,2.35.07.88.01,1.66.03,2.46,0,1.58-.01,3.07-.02,4.46-.02,2.78-.03,5.17-.04,7.14.01,1-.33,1.89-.81,2.48-.47.61-1.04.97-1.52,1.17-.48.21-.88.25-1.15.28-.27,0-.4,0-.4,0Z"/>
    <path class="cls-4" d="M662.79,262.78s.57.04,1.51-.37c.46-.22,1-.57,1.44-1.17.45-.58.76-1.42.73-2.39-.01-1.97-.03-4.37-.04-7.14,0-1.39-.01-2.88-.02-4.46-.02-.78.03-1.63-.04-2.41-.1-.79-.49-1.55-1.1-2.13-.6-.58-1.43-.94-2.3-.97-.91,0-1.85,0-2.8,0-1.91,0-3.9.01-5.97.02-4.12,0-8.53.02-13.16.02-9.27,0-19.46.01-30.16.02-1.25,0-2.47.7-3.06,1.78-.31.53-.46,1.15-.46,1.76,0,.66,0,1.31,0,1.96,0,2.61,0,5.17,0,7.69,0,1.26,0,2.51,0,3.75-.07,1.19.44,2.33,1.34,3.04.45.35.97.6,1.52.7.54.1,1.15.05,1.74.07,1.19,0,2.36,0,3.52,0,9.27.02,17.61.04,24.63.06,6.99.04,12.66.06,16.6.08,1.94.02,3.45.04,4.51.05.5.01.89.02,1.17.03.27,0,.4.02.4.03s-.14.02-.4.03c-.29,0-.68.02-1.17.03-1.06.01-2.58.03-4.51.05-3.95.02-9.61.05-16.6.08-7.02.02-15.36.04-24.63.06-1.16,0-2.33,0-3.52,0-.59-.01-1.18.04-1.83-.07-.63-.11-1.23-.4-1.74-.79-1.03-.78-1.62-2.14-1.54-3.42,0-1.24,0-2.49,0-3.75,0-2.52,0-5.09,0-7.69,0-.65,0-1.3,0-1.96,0-.7.18-1.4.53-2.02.68-1.24,2.08-2.05,3.52-2.05,10.7,0,20.89.01,30.16.02,4.63,0,9.04.02,13.16.02,2.06,0,4.05.01,5.97.02.96,0,1.9.01,2.82.02.96.04,1.88.45,2.54,1.09.66.64,1.09,1.48,1.19,2.35.07.88.02,1.66.03,2.46,0,1.58-.01,3.07-.02,4.46-.02,2.78-.03,5.17-.04,7.14.02,1-.33,1.89-.81,2.48-.47.61-1.04.97-1.52,1.17-.48.2-.89.25-1.15.28-.27,0-.4,0-.4,0Z"/>
    <path class="cls-4" d="M468.76,111.71s.57.04,1.51-.37c.45-.22,1-.57,1.44-1.17.45-.59.76-1.42.73-2.39-.01-1.97-.03-4.37-.04-7.14,0-1.39-.01-2.88-.02-4.46-.02-.78.03-1.63-.05-2.41-.1-.79-.49-1.56-1.1-2.13-.6-.58-1.43-.94-2.3-.97-.91,0-1.85,0-2.8,0-1.91,0-3.9.01-5.96.01-4.12,0-8.53.02-13.16.02-9.27,0-19.46.01-30.16.02-1.25,0-2.46.7-3.06,1.78-.31.53-.46,1.15-.46,1.76v1.96c0,2.61,0,5.17,0,7.7,0,1.26,0,2.51,0,3.75-.07,1.19.44,2.33,1.34,3.04.45.35.97.6,1.52.7.54.1,1.15.05,1.74.07,1.19,0,2.36,0,3.52,0,9.27.02,17.61.04,24.63.06,6.99.04,12.66.06,16.61.08,1.94.02,3.45.04,4.51.05.5.01.88.02,1.17.03.26,0,.4.01.4.02s-.14.02-.4.03c-.29,0-.68.01-1.17.03-1.06.01-2.58.03-4.51.05-3.95.02-9.61.05-16.61.08-7.02.02-15.36.04-24.63.06-1.16,0-2.33,0-3.52,0-.59-.01-1.18.04-1.83-.07-.63-.11-1.23-.4-1.74-.79-1.03-.79-1.62-2.14-1.54-3.43,0-1.24,0-2.49,0-3.75,0-2.52,0-5.09,0-7.69,0-.65,0-1.31,0-1.96,0-.7.18-1.4.53-2.02.68-1.24,2.08-2.05,3.52-2.05,10.7,0,20.88.01,30.16.02,4.63,0,9.04.02,13.16.02,2.06,0,4.05.01,5.96.01.96,0,1.9.01,2.82.02.96.04,1.88.45,2.54,1.09.66.64,1.09,1.48,1.19,2.35.07.88.02,1.66.03,2.46,0,1.58-.01,3.07-.02,4.46-.02,2.78-.03,5.17-.04,7.14.02,1-.33,1.89-.81,2.48-.47.61-1.05.97-1.52,1.17-.48.21-.89.25-1.15.28-.27,0-.4,0-.4,0Z"/>
    <path class="cls-4" d="M67.28,179.38s.57.04,1.51-.37c.46-.22,1-.57,1.44-1.17.45-.59.76-1.42.73-2.39-.01-1.97-.03-4.37-.04-7.14,0-1.39-.01-2.88-.02-4.46-.02-.78.03-1.63-.04-2.41-.1-.79-.49-1.55-1.1-2.13-.6-.58-1.43-.94-2.3-.97-.91,0-1.85,0-2.8,0-1.91,0-3.9,0-5.97.01-4.12,0-8.53.02-13.16.02-9.27,0-19.46.01-30.16.02-1.25,0-2.47.7-3.06,1.78-.31.53-.46,1.15-.46,1.76v1.96c0,2.6,0,5.17,0,7.69,0,1.26,0,2.51,0,3.75-.07,1.19.44,2.33,1.34,3.04.45.35.97.6,1.52.7.54.1,1.15.05,1.74.07,1.19,0,2.36,0,3.52,0,9.26.02,17.61.04,24.63.06,6.99.04,12.66.06,16.6.08,1.94.02,3.45.04,4.51.05.5.01.88.02,1.17.03.26,0,.4.02.4.02s-.14.02-.4.03c-.29,0-.68.01-1.17.03-1.06.01-2.58.03-4.51.05-3.95.02-9.61.05-16.61.08-7.02.02-15.36.04-24.63.06-1.16,0-2.33,0-3.52,0-.59-.01-1.19.04-1.83-.07-.63-.11-1.23-.4-1.74-.79-1.03-.79-1.62-2.14-1.54-3.43,0-1.24,0-2.49,0-3.75,0-2.52,0-5.09,0-7.69,0-.65,0-1.3,0-1.96,0-.7.18-1.4.53-2.02.69-1.24,2.08-2.05,3.51-2.05,10.7,0,20.88.01,30.16.02,4.63,0,9.04.02,13.16.02,2.06,0,4.05,0,5.96.01.96,0,1.9.01,2.82.02.96.04,1.88.45,2.54,1.09.66.64,1.09,1.48,1.19,2.35.07.88.01,1.66.03,2.46,0,1.58-.01,3.07-.02,4.46-.02,2.78-.03,5.17-.04,7.14.01,1-.33,1.89-.81,2.48-.47.61-1.04.97-1.52,1.17-.48.21-.89.25-1.15.28-.27,0-.4,0-.4,0Z"/>
  </g>
  <g id="Floor">
    <path class="cls-6" d="M676.09,361.53c0,.14-145.05.26-323.93.26s-323.96-.12-323.96-.26,145.02-.26,323.96-.26,323.93.12,323.93.26Z"/>
  </g>
  <g id="Piping">
    <g>
      <path class="cls-4" d="M7.9,147.58h164.81c4.42,0,8.18-3.75,8.18-8.18V29.13c-2.73,2.73-5.45,5.45-8.18,8.18h270.5c-2.73-2.73-5.45-5.45-8.18-8.18v280.6c0,4.42,3.75,8.18,8.18,8.18h181.72c8.58,0,62.89-.29,71.47-.29,10.52,0,10.54-16.36,0-16.36-23.41,0-92.57.29-115.99.29h-137.2l8.18,8.18V29.13c0-4.42-3.75-8.18-8.18-8.18H172.71c-4.42,0-8.18,3.75-8.18,8.18v110.27l8.18-8.18H7.9c-10.52,0-10.54,16.36,0,16.36h0Z"/>
      <path class="cls-6" d="M181.07,37.79c-.1.02-.31-1.23-1.04-3.1-.36-.94-.89-2.01-1.57-3.15-.7-1.12-1.57-2.3-2.61-3.42-1.06-1.1-2.18-2.03-3.26-2.8-1.1-.74-2.14-1.33-3.06-1.74-1.83-.83-3.06-1.11-3.04-1.21,0-.03.32.01.88.13.28.06.62.14,1.01.27.38.13.83.25,1.3.47.96.37,2.04.94,3.18,1.68,1.12.76,2.29,1.7,3.37,2.84,1.07,1.15,1.95,2.36,2.65,3.53.67,1.18,1.18,2.29,1.5,3.27.19.48.29.93.39,1.32.11.39.17.74.21,1.02.09.57.12.88.08.88Z"/>
      <g>
        <rect class="cls-4" x="162.34" y="113.59" width="20.67" height="7.31"/>
        <path class="cls-6" d="M183.13,120.85c0,.14-4.59.26-10.26.26s-10.26-.12-10.26-.26,4.59-.26,10.26-.26c5.67,0,10.26.12,10.26.26Z"/>
        <path class="cls-6" d="M183.13,113.59c0,.14-4.63.26-10.35.26s-10.35-.12-10.35-.26,4.63-.26,10.35-.26,10.35.12,10.35.26Z"/>
      </g>
      <g>
        <rect class="cls-4" x="423.05" y="18.85" width="7.31" height="20.67"/>
        <path class="cls-6" d="M430.31,18.73c.14,0,.26,4.59.26,10.26s-.12,10.26-.26,10.26-.26-4.59-.26-10.26c0-5.67.12-10.26.26-10.26Z"/>
        <path class="cls-6" d="M423.05,18.73c.14,0,.26,4.63.26,10.35s-.12,10.35-.26,10.35-.26-4.63-.26-10.35.12-10.35.26-10.35Z"/>
      </g>
      <g>
        <rect class="cls-4" x="432.72" y="53.87" width="20.67" height="7.31"/>
        <path class="cls-6" d="M432.6,53.92c0-.14,4.59-.26,10.26-.26s10.26.12,10.26.26-4.59.26-10.26.26-10.26-.12-10.26-.26Z"/>
        <path class="cls-6" d="M432.6,61.18c0-.14,4.63-.26,10.35-.26s10.35.12,10.35.26-4.63.26-10.35.26-10.35-.12-10.35-.26Z"/>
      </g>
      <g>
        <rect class="cls-4" x="467.85" y="297.99" width="7.31" height="20.67"/>
        <path class="cls-6" d="M467.89,318.78c-.14,0-.26-4.59-.26-10.26s.12-10.26.26-10.26.26,4.59.26,10.26c0,5.67-.12,10.26-.26,10.26Z"/>
        <path class="cls-6" d="M475.16,318.78c-.14,0-.26-4.64-.26-10.35s.12-10.35.26-10.35.26,4.63.26,10.35c0,5.72-.12,10.35-.26,10.35Z"/>
      </g>
      <g>
        <rect class="cls-4" x="433.11" y="279.35" width="20.67" height="7.31"/>
        <path class="cls-6" d="M453.9,286.61c0,.14-4.59.26-10.26.26s-10.26-.12-10.26-.26,4.59-.26,10.26-.26,10.26.12,10.26.26Z"/>
        <path class="cls-6" d="M453.9,279.35c0,.14-4.64.26-10.35.26s-10.35-.12-10.35-.26,4.63-.26,10.35-.26c5.72,0,10.35.12,10.35.26Z"/>
      </g>
      <g>
        <rect class="cls-4" x="298.42" y="18.81" width="7.31" height="20.67"/>
        <path class="cls-6" d="M298.47,39.61c-.14,0-.26-4.59-.26-10.26s.12-10.26.26-10.26.26,4.59.26,10.26-.12,10.26-.26,10.26Z"/>
        <path class="cls-6" d="M305.73,39.61c-.14,0-.26-4.64-.26-10.35s.12-10.35.26-10.35.26,4.63.26,10.35-.12,10.35-.26,10.35Z"/>
      </g>
      <g>
        <rect class="cls-4" x="144.95" y="129.42" width="7.31" height="20.67"/>
        <path class="cls-6" d="M144.99,150.22c-.14,0-.26-4.59-.26-10.26s.12-10.26.26-10.26.26,4.59.26,10.26c0,5.67-.12,10.26-.26,10.26Z"/>
        <path class="cls-6" d="M152.25,150.22c-.14,0-.26-4.63-.26-10.35s.12-10.35.26-10.35.26,4.63.26,10.35c0,5.72-.12,10.35-.26,10.35Z"/>
      </g>
    </g>
  </g>
  <g id="Bricks">
    <g>
      <path class="cls-6" d="M669.9,339.15s.57.04,1.51-.37c.46-.22,1-.57,1.44-1.17.45-.58.76-1.42.73-2.39-.01-1.97-.03-4.37-.04-7.14,0-1.39-.01-2.88-.02-4.46-.02-.78.03-1.63-.04-2.41-.1-.79-.49-1.56-1.1-2.13-.6-.58-1.43-.94-2.3-.97-.91,0-1.85,0-2.8,0-1.91,0-3.9.01-5.97.02-4.12,0-8.53.02-13.16.02-9.27,0-19.46.01-30.16.02-1.25,0-2.47.7-3.06,1.78-.31.53-.46,1.15-.46,1.76v1.96c0,2.61,0,5.17,0,7.69,0,1.26,0,2.51,0,3.75-.07,1.19.44,2.33,1.34,3.04.45.35.97.6,1.52.7.54.1,1.15.05,1.74.07,1.19,0,2.36,0,3.52,0,9.27.02,17.61.04,24.63.06,6.99.04,12.66.06,16.6.08,1.94.02,3.45.04,4.51.05.5.01.89.02,1.17.03.26,0,.4.02.4.03s-.14.02-.4.03c-.29,0-.68.02-1.17.03-1.06.01-2.58.03-4.51.05-3.95.02-9.61.05-16.6.08-7.02.02-15.36.04-24.63.06-1.16,0-2.33,0-3.52,0-.59-.01-1.18.04-1.83-.07-.63-.11-1.23-.4-1.74-.79-1.03-.79-1.62-2.14-1.54-3.42,0-1.24,0-2.49,0-3.75,0-2.52,0-5.09,0-7.69v-1.96c0-.7.18-1.4.53-2.02.68-1.24,2.08-2.05,3.52-2.05,10.7,0,20.88.01,30.16.02,4.63,0,9.04.02,13.16.02,2.06,0,4.05.01,5.97.02.96,0,1.9.01,2.82.02.96.04,1.88.45,2.54,1.09.66.64,1.09,1.48,1.19,2.35.07.88.02,1.66.03,2.46,0,1.58-.01,3.07-.02,4.46-.02,2.78-.03,5.17-.04,7.14.02,1-.33,1.89-.81,2.48-.47.61-1.04.97-1.52,1.17-.48.21-.89.25-1.15.28-.27,0-.41,0-.41,0Z"/>
      <g>
        <path class="cls-6" d="M681.3,85.76s.57.04,1.51-.37c.46-.22,1-.57,1.44-1.17.45-.58.76-1.42.73-2.39-.01-1.97-.03-4.37-.04-7.14,0-1.39-.01-2.88-.02-4.46-.02-.78.03-1.63-.04-2.41-.1-.79-.49-1.56-1.1-2.13-.6-.58-1.43-.94-2.3-.97h-2.8c-1.91,0-3.9.01-5.97.01-4.12,0-8.53.02-13.16.02-9.27,0-19.46.01-30.16.02-1.25,0-2.47.7-3.06,1.78-.31.53-.46,1.15-.46,1.76,0,.66,0,1.31,0,1.96,0,2.61,0,5.17,0,7.69,0,1.26,0,2.51,0,3.75-.07,1.19.44,2.33,1.34,3.04.45.35.97.6,1.52.7.54.1,1.15.05,1.74.07,1.19,0,2.36,0,3.52,0,9.27.02,17.61.04,24.63.06,6.99.04,12.66.06,16.6.08,1.94.02,3.45.04,4.51.05.5.01.88.02,1.17.03.27,0,.4.01.4.02s-.14.02-.4.03c-.29,0-.68.01-1.17.03-1.06.01-2.58.03-4.51.05-3.95.02-9.61.05-16.6.08-7.02.02-15.36.04-24.63.06-1.16,0-2.33,0-3.52,0-.59-.01-1.18.04-1.83-.07-.63-.11-1.23-.4-1.74-.79-1.03-.79-1.62-2.14-1.54-3.43,0-1.24,0-2.49,0-3.75,0-2.52,0-5.09,0-7.69,0-.65,0-1.31,0-1.96,0-.7.18-1.4.53-2.02.68-1.24,2.08-2.05,3.52-2.05,10.7,0,20.88.01,30.16.02,4.63,0,9.04.02,13.16.02,2.06,0,4.05.01,5.97.01.96,0,1.9.01,2.82.02.96.04,1.88.45,2.54,1.09.66.64,1.09,1.48,1.19,2.35.07.88.02,1.66.03,2.46,0,1.58-.01,3.07-.02,4.46-.02,2.78-.03,5.17-.04,7.14.02,1-.33,1.89-.81,2.48-.47.61-1.04.97-1.52,1.17-.48.21-.89.25-1.15.28-.27,0-.4,0-.4,0Z"/>
        <path class="cls-6" d="M659.9,107.15s.57.04,1.51-.37c.46-.22,1-.57,1.44-1.17.45-.59.76-1.42.73-2.39-.01-1.97-.03-4.37-.04-7.14,0-1.39-.01-2.88-.02-4.46-.02-.78.03-1.63-.04-2.41-.1-.79-.49-1.56-1.1-2.13-.6-.58-1.43-.94-2.3-.97-.91,0-1.85,0-2.8,0-1.91,0-3.9.01-5.97.01-4.12,0-8.53.02-13.16.02-9.27,0-19.46.01-30.16.02-1.25,0-2.47.7-3.06,1.78-.31.53-.46,1.15-.46,1.76v1.96c0,2.61,0,5.17,0,7.7,0,1.26,0,2.51,0,3.75-.07,1.19.44,2.33,1.34,3.04.45.35.97.6,1.52.7.54.1,1.15.05,1.74.07,1.19,0,2.36,0,3.52,0,9.27.02,17.61.04,24.63.06,6.99.04,12.66.06,16.6.08,1.94.02,3.45.04,4.51.05.5.01.89.02,1.17.03.26,0,.4.02.4.03s-.14.02-.4.03c-.29,0-.68.01-1.17.03-1.06.01-2.58.03-4.51.05-3.95.02-9.61.05-16.6.08-7.02.02-15.36.04-24.63.06-1.16,0-2.33,0-3.52,0-.59-.01-1.18.04-1.83-.07-.63-.11-1.23-.4-1.74-.79-1.03-.79-1.62-2.14-1.54-3.43,0-1.24,0-2.49,0-3.75,0-2.52,0-5.09,0-7.69,0-.65,0-1.31,0-1.96,0-.7.18-1.4.53-2.02.68-1.24,2.08-2.05,3.52-2.05,10.7,0,20.88.01,30.16.02,4.63,0,9.04.02,13.16.02,2.06,0,4.05.01,5.97.01.96,0,1.9.01,2.82.02.96.04,1.88.45,2.54,1.09.66.64,1.09,1.48,1.19,2.35.07.88.02,1.66.03,2.46,0,1.58-.01,3.07-.02,4.46-.02,2.78-.03,5.17-.04,7.14.02,1-.33,1.89-.81,2.48-.47.61-1.04.97-1.52,1.17-.48.21-.89.25-1.15.28-.27,0-.4,0-.4,0Z"/>
      </g>
      <path class="cls-6" d="M246.27,224.58s.56.04,1.5-.37c.45-.21,1-.57,1.44-1.16.45-.58.76-1.41.74-2.37-.01-1.96-.03-4.35-.04-7.11,0-1.39-.01-2.87-.02-4.44-.01-.78.02-1.61-.03-2.4-.09-.79-.45-1.56-1.04-2.15-.59-.59-1.4-.97-2.27-1.03-.88-.02-1.84,0-2.78,0-1.9,0-3.89,0-5.94.01-4.11,0-8.49.02-13.1.02-9.23,0-19.37.01-30.02.02-1.24,0-2.46.69-3.05,1.77-.31.53-.46,1.14-.47,1.75,0,.65,0,1.3,0,1.95,0,2.59,0,5.15,0,7.66,0,1.26,0,2.5,0,3.73-.08,1.2.39,2.33,1.27,3.06.43.36.95.61,1.5.74.53.13,1.12.07,1.72.09,1.18,0,2.35,0,3.5,0,9.22.02,17.53.04,24.52.06,6.96.04,12.6.06,16.53.08,1.93.02,3.44.04,4.49.05.49.01.88.02,1.17.03.26,0,.4.02.4.03s-.14.02-.4.03c-.29,0-.67.01-1.17.03-1.06.01-2.57.03-4.49.05-3.93.02-9.57.05-16.53.08-6.99.02-15.29.04-24.52.06-1.15,0-2.32,0-3.5,0-.58-.01-1.19.05-1.83-.1-.62-.14-1.21-.43-1.71-.84-.49-.42-.89-.95-1.14-1.55-.26-.59-.33-1.29-.31-1.9,0-1.23,0-2.48,0-3.73,0-2.51,0-5.07,0-7.66v-1.95c0-.7.18-1.4.54-2.01.69-1.24,2.08-2.04,3.51-2.03,10.65,0,20.79.01,30.02.02,4.61,0,9,.02,13.1.02,2.05,0,4.03,0,5.94.01.96,0,1.87,0,2.81.02.96.07,1.85.51,2.5,1.16.64.65,1.03,1.51,1.13,2.37.05.87,0,1.65.02,2.44,0,1.57-.01,3.05-.02,4.44-.02,2.76-.03,5.15-.04,7.11,0,1-.34,1.88-.82,2.47-.47.61-1.04.96-1.52,1.16-.48.2-.88.25-1.14.28-.27,0-.4,0-.4,0Z"/>
      <path class="cls-6" d="M225.89,245.96s.51.03,1.36-.31c.42-.18.92-.47,1.36-.97.44-.49.83-1.2.92-2.05.04-1.73-.01-3.91-.01-6.41,0-1.25-.01-2.59-.02-4.01,0-.71,0-1.44,0-2.19-.02-.74.05-1.54-.08-2.26-.29-1.47-1.66-2.78-3.31-2.84-1.72,0-3.5,0-5.35,0-3.71,0-7.66.02-11.83.02-8.33,0-17.49.01-27.1.02-1.12,0-2.22.56-2.86,1.47-.33.45-.54.97-.62,1.51-.08.53-.04,1.14-.05,1.72,0,2.34,0,4.65,0,6.92,0,1.13,0,2.26,0,3.37,0,.56,0,1.11,0,1.66,0,.57,0,1.07.14,1.56.28.98,1.01,1.8,1.92,2.22.45.21.95.32,1.44.32.53,0,1.05,0,1.57,0,8.33.02,15.82.04,22.13.06,6.28.04,11.37.06,14.92.08,1.74.02,3.1.04,4.06.05.44.01.79.02,1.05.03.24,0,.36.02.36.03s-.12.02-.36.03c-.26,0-.61.02-1.05.03-.96.01-2.32.03-4.06.05-3.55.02-8.65.05-14.92.08-6.31.02-13.81.04-22.13.06-.52,0-1.05,0-1.57,0-.56,0-1.12-.13-1.64-.36-1.03-.47-1.87-1.4-2.19-2.52-.17-.56-.17-1.17-.17-1.7,0-.55,0-1.1,0-1.66,0-1.11,0-2.24,0-3.37,0-2.27,0-4.57,0-6.92.01-.59-.04-1.16.05-1.8.1-.62.33-1.23.71-1.74.73-1.04,1.99-1.69,3.28-1.68,9.61,0,18.77.01,27.1.02,4.16,0,8.12.02,11.83.02,1.86,0,3.65.02,5.37.03,1.84.08,3.35,1.54,3.65,3.17.14.83.05,1.58.07,2.34,0,.75,0,1.48,0,2.19,0,1.42-.01,2.76-.02,4.01-.03,2.51,0,4.65-.08,6.43-.12.9-.54,1.63-1.01,2.13-.47.51-1,.8-1.44.96-.44.17-.8.2-1.04.22-.24,0-.36,0-.36-.01Z"/>
      <g>
        <path class="cls-6" d="M376.65,92.09s.57.04,1.51-.37c.45-.22,1-.57,1.44-1.17.45-.58.76-1.42.73-2.39-.01-1.97-.03-4.37-.04-7.14,0-1.39-.01-2.88-.02-4.46-.02-.78.03-1.63-.05-2.41-.1-.79-.49-1.56-1.1-2.13-.6-.58-1.43-.94-2.3-.97-.91,0-1.85,0-2.8,0-1.91,0-3.9.01-5.96.01-4.12,0-8.53.02-13.16.02-9.27,0-19.46.01-30.16.02-1.25,0-2.46.7-3.06,1.78-.31.53-.46,1.15-.46,1.76,0,.66,0,1.31,0,1.96,0,2.61,0,5.17,0,7.69,0,1.26,0,2.51,0,3.75-.07,1.19.44,2.33,1.34,3.04.45.35.97.6,1.52.7.54.1,1.15.05,1.74.07,1.19,0,2.36,0,3.52,0,9.27.02,17.61.04,24.63.06,6.99.04,12.66.06,16.61.08,1.94.02,3.45.04,4.51.05.5.01.88.02,1.17.03.26,0,.4.01.4.02s-.14.02-.4.03c-.29,0-.68.01-1.17.03-1.06.01-2.58.03-4.51.05-3.95.02-9.61.05-16.61.08-7.02.02-15.36.04-24.63.06-1.16,0-2.33,0-3.52,0-.59-.01-1.18.04-1.83-.07-.63-.11-1.23-.4-1.74-.79-1.03-.79-1.62-2.14-1.54-3.43,0-1.24,0-2.49,0-3.75,0-2.52,0-5.09,0-7.69,0-.65,0-1.31,0-1.96,0-.7.18-1.4.53-2.02.68-1.24,2.08-2.05,3.52-2.05,10.7,0,20.88.01,30.16.02,4.63,0,9.04.02,13.16.02,2.06,0,4.05.01,5.96.01.96,0,1.9.01,2.82.02.96.04,1.88.45,2.54,1.09.66.64,1.09,1.48,1.19,2.35.07.88.02,1.66.03,2.46,0,1.58-.01,3.07-.02,4.46-.02,2.78-.03,5.17-.04,7.14.02,1-.33,1.89-.81,2.48-.47.61-1.05.97-1.52,1.17-.48.21-.89.25-1.15.28-.27,0-.4,0-.4,0Z"/>
        <path class="cls-6" d="M355.26,113.49s.57.04,1.51-.37c.45-.22,1-.57,1.44-1.17.45-.59.76-1.42.73-2.39-.01-1.97-.03-4.37-.04-7.14,0-1.39-.01-2.88-.02-4.46-.02-.78.03-1.63-.05-2.41-.1-.79-.49-1.56-1.1-2.13-.6-.58-1.43-.94-2.3-.97-.92,0-1.85,0-2.8,0-1.91,0-3.9.01-5.96.01-4.12,0-8.53.02-13.16.02-9.27,0-19.46.01-30.16.02-1.25,0-2.46.7-3.06,1.78-.31.53-.46,1.15-.46,1.76,0,.66,0,1.31,0,1.96,0,2.6,0,5.17,0,7.7,0,1.26,0,2.51,0,3.75-.07,1.19.44,2.33,1.34,3.04.45.35.97.6,1.52.7.54.1,1.15.05,1.74.07,1.19,0,2.36,0,3.52,0,9.27.02,17.61.04,24.63.06,6.99.04,12.66.06,16.61.08,1.94.02,3.45.04,4.51.05.5.01.88.02,1.17.03.27,0,.4.02.4.03s-.14.02-.4.03c-.29,0-.68.01-1.17.03-1.06.01-2.58.03-4.51.05-3.95.02-9.61.05-16.61.08-7.02.02-15.36.04-24.63.06-1.16,0-2.33,0-3.52,0-.59-.01-1.18.04-1.83-.07-.63-.11-1.23-.4-1.74-.79-1.03-.79-1.62-2.14-1.54-3.43,0-1.24,0-2.49,0-3.75,0-2.52,0-5.09,0-7.69,0-.65,0-1.31,0-1.96,0-.7.18-1.4.53-2.02.68-1.24,2.08-2.05,3.52-2.05,10.7,0,20.88.01,30.16.02,4.63,0,9.04.02,13.16.02,2.06,0,4.05.01,5.96.01.96,0,1.9.01,2.82.02.96.04,1.88.45,2.54,1.09.66.64,1.09,1.48,1.19,2.35.07.88.02,1.66.03,2.46,0,1.58-.01,3.07-.02,4.46-.02,2.78-.03,5.17-.04,7.14.02,1-.33,1.89-.81,2.48-.47.61-1.05.97-1.52,1.17-.48.21-.89.25-1.15.28-.27,0-.4,0-.4,0Z"/>
      </g>
      <path class="cls-6" d="M140.65,94.31s.57.04,1.51-.37c.46-.22,1-.57,1.44-1.17.45-.58.76-1.42.73-2.39-.01-1.97-.03-4.37-.04-7.14,0-1.39-.01-2.88-.02-4.46-.02-.78.03-1.63-.04-2.41-.1-.79-.49-1.56-1.1-2.13-.6-.58-1.43-.94-2.3-.97-.91,0-1.85,0-2.8,0-1.91,0-3.9.01-5.96.01-4.12,0-8.53.02-13.16.02-9.27,0-19.46.01-30.16.02-1.25,0-2.46.7-3.06,1.78-.31.53-.46,1.15-.46,1.76,0,.66,0,1.31,0,1.96,0,2.61,0,5.17,0,7.69,0,1.26,0,2.51,0,3.75-.07,1.19.44,2.33,1.34,3.04.45.35.97.6,1.52.7.54.1,1.15.05,1.74.07,1.19,0,2.36,0,3.52,0,9.26.02,17.61.04,24.63.06,6.99.04,12.66.06,16.6.08,1.94.02,3.45.04,4.51.05.5.01.88.02,1.17.03.27,0,.4.02.4.03s-.13.02-.4.03c-.29,0-.68.01-1.17.03-1.06.01-2.58.03-4.51.05-3.95.02-9.62.05-16.6.08-7.02.02-15.36.04-24.63.06-1.16,0-2.33,0-3.52,0-.59-.01-1.18.04-1.83-.07-.63-.11-1.23-.4-1.74-.79-1.03-.79-1.62-2.14-1.54-3.43,0-1.24,0-2.49,0-3.75,0-2.52,0-5.09,0-7.69,0-.65,0-1.31,0-1.96,0-.7.18-1.4.53-2.02.68-1.24,2.08-2.05,3.51-2.05,10.7,0,20.88.01,30.16.02,4.63,0,9.04.02,13.16.02,2.06,0,4.05.01,5.96.01.96,0,1.9.01,2.82.02.96.04,1.88.45,2.54,1.09.66.64,1.09,1.48,1.19,2.35.07.88.01,1.66.03,2.46,0,1.58-.01,3.07-.02,4.46-.02,2.78-.03,5.17-.04,7.14.01,1-.33,1.89-.81,2.48-.47.61-1.04.97-1.52,1.17-.48.21-.88.25-1.15.28-.27,0-.4,0-.4,0Z"/>
    </g>
  </g>
  <g id="Plant">
    <g>
      <path class="cls-1" d="M99.95,302.04c3.21,1.39,5.57,4.36,6.75,7.65s1.29,6.88.9,10.36c-.76,6.72-4.88,14.73-8.99,20.1-5.66-4.94-6.66-14.77-7.05-19.19-.61-6.98,2.52-19.95,8.39-18.91"/>
      <path class="cls-1" d="M101.71,348c-1.4-3.65.5-7.57,3.05-10.53,2.55-2.96,6.44-4.59,10.34-4.81,1.8-.1,3.8.16,5.02,1.49,1.14,1.25,1.29,3.18.71,4.76-.58,1.59-1.77,2.87-3.07,3.95-4.45,3.7-9.76,5.99-15.48,5.08"/>
      <path class="cls-1" d="M95.94,352.38c0-8.6-7.02-15.85-14.45-19.41-1.89-.91-4.36-1.5-5.92-.09-1.56,1.41-1.21,3.94-.45,5.9,3.17,8.15,12.08,13.7,20.81,13.6"/>
      <path class="cls-6" d="M98.55,356.74c-.07.04-.75-1.16-1.96-3.01-1.21-1.85-3.02-4.33-5.3-6.81-2.29-2.48-4.6-4.49-6.34-5.86-1.74-1.37-2.88-2.14-2.83-2.21.02-.03.32.13.86.45.54.32,1.29.81,2.2,1.46,1.81,1.3,4.19,3.29,6.5,5.8,2.3,2.52,4.08,5.05,5.22,6.97.57.96,1,1.75,1.27,2.31.27.56.41.88.38.89Z"/>
      <path class="cls-6" d="M99.55,317.84s.02.62-.04,1.72c-.07,1.19-.16,2.77-.26,4.68-.21,3.95-.42,9.4-.46,15.43,0,5.99-.02,11.42-.02,15.46-.01,1.98-.03,3.58-.06,4.69-.03,1.11-.06,1.72-.1,1.72s-.07-.61-.1-1.72c-.03-1.19-.06-2.77-.1-4.68-.06-3.95-.17-9.42-.13-15.46.04-6.04.31-11.51.61-15.45.16-1.97.3-3.57.43-4.67.12-1.1.2-1.71.24-1.7Z"/>
      <path class="cls-6" d="M112.89,338.59c.04.09-1.12.52-2.78,1.57-.84.5-1.78,1.21-2.79,2.03-.99.85-2.02,1.83-3.03,2.95-2,2.24-3.47,4.55-4.38,6.29-.92,1.74-1.33,2.9-1.41,2.87-.03-.01.04-.31.21-.84.16-.53.45-1.29.88-2.19.84-1.81,2.29-4.19,4.32-6.47,1.02-1.13,2.09-2.13,3.11-2.97,1.05-.81,2.02-1.5,2.9-1.97.43-.26.84-.45,1.2-.62.36-.17.67-.31.94-.39.53-.19.82-.28.83-.24Z"/>
    </g>
  </g>
  <g id="Hole">
    <g>
      <path class="cls-5" d="M559.98,331.11h0c-7.64,0-13.89,6.25-13.89,13.89v16.66h27.26v-17.19c0-7.38-5.98-13.36-13.36-13.36Z"/>
      <path class="cls-6" d="M563.29,331.43c-6.38,1.3-11.23,7.78-11.23,15.6v14.32h22.46v-14.32c0-7.82-4.85-14.3-11.23-15.6Z"/>
    </g>
  </g>
  <g id="Grille">
    <g>
      <rect class="cls-4" x="32.98" y="204.32" width="121.1" height="87.46"/>
      <polygon class="cls-6" points="55.15 284.09 45.25 284.27 45.25 214.43 55.15 214.43 55.15 284.09"/>
      <rect class="cls-6" x="66.93" y="214.73" width="9.9" height="69.19"/>
      <rect class="cls-6" x="88.61" y="214.73" width="9.9" height="69.19"/>
      <rect class="cls-6" x="110.29" y="214.73" width="9.9" height="69.19"/>
      <polygon class="cls-6" points="141.88 284.27 131.97 284.09 131.97 214.24 141.88 214.24 141.88 284.27"/>
      <g>
        <g>
          <path class="cls-4" d="M41.3,211.16c0,1.81-1.47,3.27-3.28,3.27s-3.28-1.47-3.28-3.27,1.47-3.27,3.28-3.27,3.28,1.47,3.28,3.27Z"/>
          <path class="cls-6" d="M41.3,211.16c-.06,0-.08-.29-.24-.76-.16-.47-.5-1.13-1.21-1.63-.69-.5-1.78-.76-2.82-.36-1.03.37-1.92,1.48-1.91,2.76-.01,1.28.87,2.39,1.91,2.76,1.04.4,2.14.14,2.82-.36.71-.5,1.05-1.17,1.21-1.63.16-.47.18-.77.24-.77.04,0,.12.29.04.83-.08.53-.39,1.33-1.17,1.98-.76.64-2.07,1.04-3.37.59-1.29-.41-2.43-1.78-2.41-3.4-.01-1.61,1.12-2.98,2.41-3.39,1.3-.46,2.61-.06,3.37.58.78.64,1.09,1.45,1.17,1.98.08.54,0,.84-.04.84Z"/>
        </g>
        <path class="cls-6" d="M40.02,209.3c.13.16-.58.97-1.5,1.9-.93.93-1.73,1.65-1.89,1.52-.15-.13.41-1.08,1.37-2.04.95-.96,1.9-1.53,2.03-1.38Z"/>
        <path class="cls-6" d="M40.35,212.33c-.09.18-1.14-.19-2.28-.93-1.14-.74-1.9-1.55-1.77-1.71.13-.16,1.07.37,2.17,1.09,1.1.72,1.97,1.37,1.87,1.55Z"/>
      </g>
      <g>
        <g>
          <path class="cls-4" d="M152.82,285.48c0,1.81-1.47,3.27-3.27,3.27s-3.27-1.47-3.27-3.27,1.47-3.27,3.27-3.27c1.81,0,3.27,1.47,3.27,3.27Z"/>
          <path class="cls-6" d="M152.82,285.48c-.06,0-.08-.29-.24-.77-.16-.47-.5-1.13-1.21-1.63-.68-.5-1.78-.76-2.82-.36-1.04.37-1.92,1.48-1.91,2.76-.01,1.28.87,2.39,1.91,2.76,1.04.4,2.14.14,2.82-.36.71-.5,1.05-1.17,1.21-1.63.16-.47.18-.76.24-.76.04,0,.12.29.04.83-.08.53-.39,1.33-1.17,1.98-.76.64-2.07,1.04-3.37.58-1.29-.41-2.43-1.78-2.41-3.39-.01-1.61,1.12-2.98,2.41-3.39,1.3-.46,2.61-.06,3.37.58.79.64,1.09,1.45,1.17,1.98.08.54,0,.84-.04.84Z"/>
        </g>
        <path class="cls-6" d="M151.54,283.63c.13.16-.58.97-1.5,1.9-.93.93-1.73,1.65-1.89,1.52-.15-.13.41-1.08,1.37-2.04.95-.96,1.9-1.53,2.03-1.38Z"/>
        <path class="cls-6" d="M151.87,286.65c-.09.18-1.14-.19-2.27-.93-1.14-.74-1.9-1.55-1.77-1.7.13-.16,1.07.37,2.17,1.09,1.1.72,1.97,1.37,1.87,1.55Z"/>
      </g>
      <g>
        <g>
          <path class="cls-4" d="M152.82,210.45c0,1.81-1.47,3.27-3.27,3.27s-3.27-1.47-3.27-3.27,1.47-3.27,3.27-3.27c1.81,0,3.27,1.47,3.27,3.27Z"/>
          <path class="cls-6" d="M152.82,210.45c-.06,0-.08-.29-.24-.76-.16-.47-.5-1.13-1.21-1.63-.68-.5-1.78-.76-2.82-.36-1.04.37-1.92,1.48-1.91,2.76-.01,1.28.87,2.39,1.91,2.76,1.04.4,2.14.14,2.82-.36.71-.5,1.05-1.17,1.21-1.63.16-.47.18-.77.24-.77.04,0,.12.29.04.83-.08.53-.39,1.33-1.17,1.98-.76.64-2.07,1.04-3.37.59-1.29-.41-2.43-1.78-2.41-3.4-.01-1.61,1.12-2.98,2.41-3.39,1.3-.46,2.61-.06,3.37.58.79.64,1.09,1.45,1.17,1.98.08.54,0,.84-.04.84Z"/>
        </g>
        <path class="cls-6" d="M151.54,208.59c.13.16-.58.97-1.5,1.9-.93.93-1.73,1.65-1.89,1.52-.15-.13.41-1.08,1.37-2.04.95-.96,1.9-1.53,2.03-1.38Z"/>
        <path class="cls-6" d="M151.87,211.62c-.09.18-1.14-.19-2.27-.93-1.14-.74-1.9-1.55-1.77-1.71.13-.16,1.07.37,2.17,1.09,1.1.72,1.97,1.36,1.87,1.55Z"/>
      </g>
      <g>
        <g>
          <path class="cls-4" d="M42.62,286.13c0,1.81-1.47,3.27-3.28,3.27s-3.28-1.47-3.28-3.27,1.47-3.27,3.28-3.27c1.81,0,3.28,1.47,3.28,3.27Z"/>
          <path class="cls-6" d="M42.62,286.13c-.06,0-.08-.29-.24-.77-.16-.47-.5-1.13-1.21-1.63-.68-.5-1.78-.76-2.82-.36-1.03.37-1.92,1.48-1.91,2.76-.01,1.28.87,2.39,1.91,2.76,1.04.4,2.14.14,2.82-.36.71-.5,1.05-1.17,1.21-1.63.16-.47.18-.77.24-.76.04,0,.12.29.04.83-.08.53-.39,1.33-1.17,1.98-.76.64-2.07,1.04-3.37.58-1.29-.42-2.43-1.78-2.41-3.39-.01-1.61,1.12-2.98,2.41-3.39,1.3-.46,2.61-.06,3.37.58.79.64,1.09,1.45,1.17,1.98.08.54,0,.84-.04.84Z"/>
        </g>
        <path class="cls-6" d="M41.35,284.27c.13.16-.58.97-1.5,1.9-.93.93-1.73,1.65-1.89,1.52-.15-.13.41-1.08,1.37-2.04.95-.96,1.9-1.53,2.03-1.38Z"/>
        <path class="cls-6" d="M41.67,287.3c-.09.18-1.14-.19-2.28-.93-1.14-.74-1.9-1.55-1.77-1.7.13-.16,1.07.37,2.17,1.09,1.1.72,1.97,1.36,1.87,1.55Z"/>
      </g>
      <path class="cls-6" d="M144.01,214.43c0,.2-22.51.37-50.27.37s-50.27-.16-50.27-.37,22.5-.37,50.27-.37,50.27.16,50.27.37Z"/>
      <path class="cls-6" d="M144.01,284.27c0,.2-22.51.37-50.27.37s-50.27-.17-50.27-.37,22.5-.37,50.27-.37c27.76,0,50.27.17,50.27.37Z"/>
    </g>
  </g>
  <g id="Character">
    <g>
      <ellipse class="cls-6" cx="323.03" cy="396.36" rx="171.45" ry="20.8"/>
      <g>
        <path class="cls-7" d="M398.28,320.83c.65,1.1,46.43,59.46,46.43,59.46l59.99,36.02-13.63,14.34s-65.12-16.22-72.19-24.08c-7.07-7.86-34.81-39.12-34.81-39.12l14.22-46.61Z"/>
        <path class="cls-2" d="M428.8,395.84s.03-.28.17-.75c.13-.48.4-1.14.78-1.93.76-1.59,2.16-3.65,4.19-5.44,2.04-1.78,4.27-2.9,5.94-3.45.84-.28,1.53-.45,2.02-.52.49-.08.76-.11.76-.07.02.09-1.05.3-2.65.94-1.61.63-3.74,1.76-5.72,3.49-1.98,1.74-3.38,3.7-4.21,5.22-.84,1.51-1.19,2.54-1.28,2.51Z"/>
        <g>
          <path class="cls-7" d="M524.61,422.29l17.16,10.59c.84.49,1.55,1.19,2.05,2.02l6.43,10.8c1.43,2.65-1.25,5.71-4.03,4.55-.04-.02-.09-.04-.13-.05,0,0-4.64,1.49-7.29-.41-2.65-1.9-8.06-10.36-8.06-10.36l-4.76-.64,5.62,11.08s-4.41,1.52-7.3-.98-7.44-9.57-7.44-9.57l-8.03-2.14s-4.13,2.35-11.08.83c0,0,.15,9.28-6.2,12.07-2.9,1.28-2.7-3.29-2.7-3.29l.85-7.08c-.06-.61-.83-2.48-.68-3.07l3.34-13.25,8.95-8.47,23.31,7.39Z"/>
          <path class="cls-2" d="M526.56,436.68s.41.2,1.13.65c.78.49,1.82,1.15,3.12,1.97h.02s.02.04.02.04c1.36,1.83,3.16,4.26,5.35,7.04.55.69,1.13,1.4,1.74,2.12.64.7,1.21,1.5,2.1,1.82.87.36,1.89.42,2.91.33,1.01-.09,2.06-.33,3.05-.68l-.14.36c-.55-1.02-1.12-2.11-1.71-3.2-2.09-3.94-4.07-7.68-5.83-11l.09.09c-4.22-2.63-7.81-4.87-10.4-6.49-1.22-.78-2.2-1.41-2.93-1.88-.67-.44-1.03-.69-1.02-.71.01-.02.4.18,1.1.58.75.44,1.76,1.03,3,1.76,2.62,1.58,6.24,3.76,10.5,6.33l.05.03.03.06c1.77,3.31,3.77,7.04,5.88,10.98.58,1.1,1.16,2.18,1.71,3.21l.14.27-.28.1c-1.06.37-2.12.6-3.19.7-1.06.1-2.16.03-3.14-.38-.25-.08-.47-.25-.7-.37-.21-.16-.42-.33-.59-.51-.34-.36-.66-.72-.97-1.09-.61-.73-1.18-1.45-1.73-2.15-2.17-2.81-3.92-5.27-5.24-7.14l.04.04c-1.27-.87-2.29-1.57-3.05-2.08-.7-.49-1.07-.76-1.05-.78Z"/>
          <path class="cls-2" d="M507.25,436.7s.24.02.68.13c.5.12,1.14.28,1.93.47,1.74.45,4.13,1.07,7.04,1.82l.08.02.04.07c1.22,2.03,2.73,4.36,4.64,6.68.97,1.14,2.02,2.33,3.34,3.2,1.33.8,2.99,1.29,4.63,1.11.65-.07,1.32-.26,1.83-.55l-.09.34c-2.86-5.55-5.46-10.59-7.49-14.51l.05.07c-2.26-1.77-4.11-3.22-5.46-4.28-.6-.48-1.09-.88-1.47-1.19-.33-.28-.5-.43-.49-.45.01-.02.2.11.56.36.4.29.91.65,1.54,1.11,1.38,1.02,3.27,2.43,5.57,4.14l.03.02.02.04c2.05,3.9,4.69,8.92,7.6,14.45l.12.22-.21.12c-.65.38-1.34.55-2.05.64-1.79.19-3.53-.33-4.96-1.2-1.41-.93-2.46-2.15-3.44-3.32-1.92-2.37-3.4-4.72-4.6-6.79l.12.09c-2.89-.82-5.26-1.5-6.99-1.99-.78-.23-1.41-.42-1.9-.57-.44-.14-.66-.22-.66-.24Z"/>
          <path class="cls-2" d="M489.9,450.08c.02-.06.3.06.83.06.52.02,1.27-.17,2.01-.75.74-.56,1.46-1.45,2.16-2.5.34-.53.7-1.1,1.03-1.69.33-.58.58-1.24.79-1.93.64-2.15.88-4.27,1.01-5.96v-.11s.09-.06.09-.06c1.14-.77,2.09-1.4,2.75-1.82.67-.42,1.06-.65,1.08-.61s-.32.33-.94.81-1.54,1.16-2.65,1.97l.09-.17c-.07,1.74-.27,3.87-.93,6.1-.22.71-.48,1.41-.85,2.03-.35.61-.72,1.17-1.08,1.71-.73,1.06-1.51,1.96-2.34,2.53-.82.59-1.69.73-2.24.65-.28-.03-.48-.1-.62-.16-.14-.05-.2-.09-.2-.11Z"/>
          <path class="cls-2" d="M493.86,423.04c.12.11-1.33,1.66-2.34,4.03-1.03,2.36-1.16,4.48-1.33,4.47-.13.02-.23-2.21.85-4.67,1.05-2.47,2.74-3.93,2.81-3.83Z"/>
        </g>
      </g>
      <g>
        <path class="cls-7" d="M241.8,320.83c-.65,1.1-46.43,59.46-46.43,59.46l-59.99,36.02,13.63,14.34s65.12-16.22,72.19-24.08c7.07-7.86,34.81-39.12,34.81-39.12l-14.22-46.61Z"/>
        <path class="cls-2" d="M211.29,395.84c-.09.03-.44-1-1.27-2.51-.83-1.51-2.23-3.48-4.21-5.22-1.99-1.73-4.12-2.87-5.72-3.49-1.61-.63-2.67-.85-2.65-.94,0-.04.28,0,.76.07.49.07,1.18.24,2.02.52,1.67.55,3.9,1.67,5.94,3.45,2.03,1.79,3.43,3.85,4.19,5.44.38.79.65,1.46.78,1.93.14.47.2.74.17.75Z"/>
        <g>
          <path class="cls-7" d="M115.82,421.46l-17.16,10.59c-.84.49-1.55,1.19-2.05,2.02l-6.43,10.8c-1.43,2.65,1.25,5.71,4.03,4.55.04-.02.08-.04.13-.05,0,0,4.64,1.49,7.29-.41s8.06-10.36,8.06-10.36l4.76-.64-5.62,11.08s4.41,1.52,7.3-.98c2.9-2.5,7.44-9.57,7.44-9.57l8.03-2.14s4.13,2.35,11.07.83c0,0-.15,9.28,6.2,12.07,2.9,1.28,2.7-3.29,2.7-3.29l-.85-7.08c.06-.61.83-2.48.68-3.07l-3.34-13.25-8.95-8.47-23.31,7.39Z"/>
          <path class="cls-2" d="M113.87,435.85s-.35.29-1.05.78c-.76.52-1.78,1.21-3.05,2.08l.04-.04c-1.32,1.87-3.07,4.33-5.24,7.14-.54.7-1.12,1.42-1.73,2.15-.31.36-.63.73-.97,1.09-.18.18-.39.35-.59.51-.23.12-.45.29-.7.37-.98.41-2.07.48-3.14.38-1.07-.1-2.13-.33-3.19-.7l-.28-.1.14-.27c.55-1.03,1.12-2.11,1.71-3.21,2.11-3.94,4.1-7.67,5.88-10.98l.03-.06.05-.03c4.26-2.57,7.88-4.75,10.5-6.33,1.24-.73,2.25-1.32,3-1.76.7-.4,1.08-.61,1.1-.58.01.02-.34.27-1.02.71-.74.47-1.72,1.1-2.93,1.88-2.59,1.62-6.18,3.85-10.4,6.49l.08-.09c-1.76,3.32-3.74,7.06-5.83,11-.58,1.1-1.16,2.18-1.71,3.2l-.14-.36c.99.35,2.04.58,3.05.68,1.01.1,2.03.03,2.9-.33.89-.32,1.46-1.12,2.1-1.82.61-.72,1.19-1.43,1.74-2.12,2.19-2.77,3.99-5.2,5.35-7.04l.02-.02h.02c1.3-.83,2.35-1.49,3.12-1.98.72-.45,1.12-.68,1.13-.65Z"/>
          <path class="cls-2" d="M133.18,435.87s-.22.1-.65.24c-.49.15-1.12.34-1.9.57-1.73.49-4.1,1.17-6.99,1.99l.12-.09c-1.2,2.08-2.69,4.42-4.6,6.79-.98,1.16-2.03,2.38-3.44,3.32-1.44.87-3.17,1.39-4.96,1.2-.72-.09-1.4-.26-2.05-.64l-.21-.12.12-.22c2.91-5.53,5.55-10.55,7.6-14.45l.02-.04.03-.02c2.3-1.71,4.19-3.12,5.57-4.14.63-.45,1.13-.82,1.54-1.11.35-.25.55-.37.56-.36.01.02-.16.17-.49.45-.38.31-.87.7-1.47,1.19-1.35,1.06-3.2,2.51-5.46,4.28l.05-.07c-2.02,3.92-4.62,8.96-7.49,14.51l-.09-.34c.52.3,1.18.48,1.83.55,1.63.18,3.3-.31,4.63-1.11,1.32-.86,2.37-2.06,3.34-3.2,1.91-2.32,3.41-4.65,4.63-6.68l.04-.07.08-.02c2.91-.75,5.3-1.37,7.04-1.82.79-.19,1.43-.35,1.93-.47.44-.1.68-.14.68-.12Z"/>
          <path class="cls-2" d="M150.53,449.26s-.06.05-.2.11c-.13.06-.34.13-.62.16-.55.08-1.42-.06-2.24-.65-.83-.57-1.61-1.47-2.34-2.53-.37-.53-.73-1.1-1.08-1.71-.37-.62-.62-1.32-.85-2.03-.66-2.23-.86-4.36-.93-6.1l.09.17c-1.11-.81-2.02-1.49-2.65-1.97-.63-.48-.97-.77-.94-.81.02-.04.41.19,1.08.61.67.42,1.62,1.05,2.75,1.82l.08.06v.11c.14,1.7.37,3.81,1.01,5.96.21.69.46,1.35.79,1.93.34.59.69,1.16,1.04,1.69.7,1.05,1.41,1.93,2.16,2.5.74.58,1.49.76,2.01.75.52,0,.81-.12.83-.06Z"/>
          <path class="cls-2" d="M146.56,422.22c.07-.1,1.76,1.35,2.81,3.83,1.07,2.46.97,4.69.85,4.67-.16.01-.29-2.11-1.32-4.47-1-2.37-2.46-3.92-2.34-4.03Z"/>
        </g>
      </g>
      <g>
        <g>
          <g>
            <path class="cls-6" d="M358.33,175.14c2.58-2.93,3.04-7.55,1.07-10.93-1.97-3.38-6.21-5.26-10.03-4.45-.36-3.84-2.84-7.42-6.33-9.09-3.48-1.67-7.83-1.37-11.05.76-4.44-3.43-11.31-3.22-15.53.48-3.78-.5-7.76,1.7-9.34,5.16s-.65,7.92,2.2,10.45l46.09,25.32c4.41.28,8.74-3.17,9.46-7.53.72-4.36-2.27-9.02-6.54-10.17Z"/>
            <g>
              <path class="cls-7" d="M314.97,160.9l1.98-.1c19.91-.99,37.24,13.47,39.83,33.24,2.4,18.38,4.83,38.72,5.2,48.63.77,20.51-19.58,24.72-19.58,24.72l2.96,24.55-49.84.93-8.84-89.12c-2.89-21.2,7.03-40.55,28.3-42.85Z"/>
              <path class="cls-2" d="M342.56,267.36s-13.05,1.44-27.26-6.53c0,0,7.05,14.44,27.42,11.58l-.16-5.05Z"/>
              <path class="cls-6" d="M351.57,213.75c.13,1.54-1.07,2.93-2.68,3.09-1.61.17-3.02-.95-3.15-2.49-.13-1.54,1.07-2.93,2.67-3.1,1.61-.17,3.02.95,3.15,2.49Z"/>
              <path class="cls-6" d="M352.87,204.29c-.34.4-2.64-1.13-5.79-.97-3.15.12-5.38,1.85-5.74,1.49-.18-.16.16-.87,1.13-1.65.95-.78,2.61-1.57,4.57-1.66,1.96-.09,3.65.55,4.64,1.25,1,.7,1.37,1.37,1.2,1.55Z"/>
              <path class="cls-6" d="M324.88,215.87c.13,1.54-1.07,2.93-2.68,3.09-1.61.17-3.02-.95-3.15-2.49-.13-1.54,1.07-2.93,2.67-3.1,1.61-.17,3.02.95,3.15,2.49Z"/>
              <path class="cls-6" d="M321.93,206.42c-.34.4-2.65-1.13-5.8-.97-3.15.12-5.38,1.85-5.74,1.49-.18-.16.16-.87,1.13-1.65.95-.78,2.61-1.57,4.57-1.66,1.96-.09,3.65.55,4.64,1.25,1,.7,1.37,1.37,1.2,1.55Z"/>
              <path class="cls-6" d="M334.52,229.22c-.02-.18,1.92-.61,5.07-1.18.8-.12,1.55-.32,1.66-.88.16-.59-.22-1.44-.65-2.36-.85-1.91-1.75-3.91-2.68-6.01-3.74-8.56-6.48-15.61-6.14-15.76.35-.15,3.66,6.67,7.39,15.23.9,2.11,1.77,4.12,2.58,6.05.35.9.92,1.91.57,3.14-.19.61-.76,1.08-1.26,1.24-.51.18-.96.21-1.36.26-3.18.33-5.16.44-5.19.27Z"/>
              <path class="cls-6" d="M324.06,194.16c-.38.82-3.12.09-6.45.15-3.33-.02-6.1.75-6.45-.07-.15-.39.4-1.14,1.57-1.84,1.16-.7,2.94-1.28,4.94-1.3,2,0,3.76.55,4.89,1.24,1.14.68,1.67,1.43,1.5,1.82Z"/>
              <path class="cls-6" d="M352.37,191.29c-.63.75-3.27.13-6.39.26-3.13.03-5.75.77-6.4.05-.29-.35.1-1.09,1.22-1.82,1.11-.73,2.99-1.38,5.14-1.43,2.15-.05,4.05.51,5.17,1.18,1.14.68,1.54,1.4,1.26,1.76Z"/>
              <path class="cls-6" d="M354.34,184.74s-6.05-12.57-12.39-15.26c-7.67-3.26-10.49,5.13-17.73,3.49-7.24-1.64-14.57-4.77-21.6,1.12-7.69,6.44-3.74,10.49-3.78,19.62-.17,36.98-6.39,47.75-9.17,30.47-.3-1.89-5.66-3.14-6.84-11.15-1.53-10.38-2.56-23.02-.6-30.53,1.65-6.34,4.99-10.82,11.14-15.89,9.69-8,23.51-8.85,32.95-8.37,9.44.48,28.08,10.38,28.02,26.5Z"/>
              <path class="cls-7" d="M290.96,223.55c-.29-3.16-3.14-5.52-6.27-5.06-3.8.55-7.95,2.94-7.31,10.82,1.14,13.99,14.96,9.96,14.95,9.56,0-.27-.84-9.46-1.37-15.32Z"/>
              <path class="cls-2" d="M288.85,233.85c-.07-.04-.23.19-.63.41-.39.22-1.07.4-1.82.19-1.52-.42-2.96-2.67-3.23-5.18-.14-1.27.03-2.51.4-3.55.34-1.06.95-1.83,1.68-2.02.73-.23,1.29.17,1.49.55.22.38.15.66.23.68.04.03.28-.26.12-.83-.08-.27-.27-.59-.62-.83-.36-.25-.86-.35-1.38-.25-1.07.16-1.96,1.24-2.37,2.38-.46,1.15-.68,2.54-.53,3.97.32,2.81,1.98,5.33,4.05,5.75,1.01.18,1.8-.19,2.2-.55.4-.38.45-.7.4-.72Z"/>
            </g>
          </g>
          <path class="cls-5" d="M280.28,192.88c11.64-5.59,21.66-8.56,34.48-11.78,12.82-3.22,29.36-5.85,37.24-4.8,1.92,3.48,3.1,6.96,3.54,10.43,0,0-53.7,4.03-74.5,17.45l-.77-11.3Z"/>
          <path class="cls-6" d="M287.44,191.72s0,3.54,4.79,5.34c2.06.78,4.95.51,6.42-2.07.49-.86,2.52-3.46,2.52-3.46,0,0,3.14.62,4.32.69,4.1.23,8.62-5.36,8.6-8.94,1.12,1.51,3.15,1.34,4.94.77,1.35-.43,2.26-1.32,3.38-2.82,2.73-3.65,1.77-6.74,1.77-6.74,1.04.1,4.97-1.15,5.76-1.85,1.35-1.2,3.87-4.32,4.06-6.16.19-1.84-.86,4,.65,2.93,1.4-.99,3.3-.55,5.01-.39,1.71.17,3.88-.34,4.23-2.02.18-.88-.23-1.78-.75-2.51-2.35-3.33-7.19-4.62-10.89-2.9-1.6-4.56-6.11-7.95-10.94-8.22-4.83-.27-9.69,2.6-11.78,6.96-3.1-2.54-7.46-3.46-11.31-2.37-3.86,1.08-7.1,4.13-8.42,7.92-3.45-.73-7.27.78-9.3,3.68-2.02,2.89-2.13,7-.25,9.99-2.45,1.56-5.27,4.31-4.39,7.08,2.61,8.26,8.83,6,11.59,5.1"/>
          <path class="cls-5" d="M333.49,165.65s.02.09,0,.26c-.01.17,0,.43-.05.75-.1.65-.31,1.62-.88,2.75-.58,1.11-1.5,2.4-2.94,3.47-1.41,1.07-3.39,1.93-5.66,1.92l.22-.32c.49,1.18.45,2.62-.09,3.88-.5,1.28-1.34,2.44-2.23,3.57-.46.54-.85,1.18-1.49,1.69-.63.49-1.39.79-2.18.93-1.57.28-3.38-.12-4.59-1.39l.52-.18c-.22,2.8-1.66,5.67-4.1,7.5-1.29,1.03-2.9,1.7-4.53,1.74-1.62.07-3.15-.34-4.58-.77l.37-.18c-.67,1.78-1.75,3.32-3.1,4.49-1.33,1.16-3.13,1.9-4.82,1.57-3.34-.54-5.67-3.18-6.24-5.75l.33.13c-1.6.98-3.36,1.15-4.78.95-1.45-.19-2.6-.76-3.43-1.33-.84-.59-1.34-1.21-1.65-1.63-.29-.45-.41-.7-.39-.71.07-.06.52,1.04,2.17,2.15.83.52,1.95,1.04,3.34,1.19,1.37.16,3.04-.04,4.51-.97l.26-.16.07.29c.57,2.4,2.8,4.86,5.9,5.32,1.53.28,3.11-.38,4.37-1.48,1.26-1.1,2.3-2.59,2.91-4.26l.1-.26.27.08c1.41.42,2.89.8,4.39.73,1.5-.04,2.95-.64,4.18-1.62,2.3-1.73,3.66-4.41,3.88-7.06l.05-.67.46.49c1.02,1.09,2.64,1.48,4.05,1.23.71-.12,1.39-.39,1.93-.81.53-.41.94-1.03,1.4-1.58.89-1.11,1.7-2.22,2.18-3.41.51-1.18.56-2.45.13-3.52l-.13-.33h.35c2.14.04,4.05-.74,5.43-1.75,1.41-1,2.33-2.23,2.93-3.29,1.17-2.18,1.06-3.67,1.16-3.64Z"/>
          <g>
            <path class="cls-5" d="M348.43,186.18l-15.98,2.12c-1.23.16-2.35-.7-2.51-1.93l-1.3-9.81c-.16-1.23.7-2.35,1.92-2.51l15.98-2.12c1.23-.16,2.35.7,2.51,1.93l1.3,9.81c.16,1.23-.7,2.35-1.92,2.51Z"/>
            <path class="cls-6" d="M348.43,186.18s.23-.05.62-.23c.37-.19.92-.61,1.14-1.4.12-.39.07-.82-.02-1.34-.07-.51-.15-1.05-.24-1.64-.17-1.19-.36-2.52-.57-4-.1-.74-.21-1.52-.33-2.32-.06-.4-.11-.82-.17-1.24-.04-.41-.18-.77-.42-1.09-.5-.65-1.34-.93-2.24-.72-.93.13-1.88.26-2.86.39-3.92.53-8.23,1.1-12.75,1.71-1.02.11-1.81,1.11-1.71,2.1.14,1.1.28,2.18.42,3.24.28,2.13.55,4.19.8,6.15.06.51.1.94.34,1.31.22.37.56.66.95.82.4.17.8.19,1.24.11.45-.06.89-.11,1.33-.17,1.74-.22,3.36-.42,4.85-.61,2.92-.35,5.31-.64,7.03-.85.79-.08,1.42-.15,1.92-.21.44-.04.67-.05.67-.04,0,.02-.22.07-.66.14-.49.08-1.12.18-1.9.3-1.72.25-4.1.59-7.01,1.01-1.49.21-3.11.43-4.85.68-.44.06-.88.12-1.33.18-.45.08-1.01.07-1.48-.13-.48-.19-.9-.55-1.18-1-.3-.45-.35-1.03-.41-1.49-.27-1.96-.54-4.02-.83-6.15-.14-1.07-.29-2.16-.43-3.27-.12-1.25.87-2.51,2.16-2.65,4.52-.59,8.83-1.16,12.75-1.67.98-.13,1.94-.25,2.86-.37.44-.07,1.01-.12,1.47.06.48.16.89.46,1.18.85.29.38.45.86.49,1.3.05.42.11.83.16,1.24.1.81.2,1.59.29,2.33.18,1.48.35,2.82.49,4.01.07.59.14,1.13.2,1.64.07.49.11,1.01-.03,1.42-.27.85-.89,1.27-1.29,1.44-.42.16-.67.14-.67.14Z"/>
          </g>
          <g class="cls-9">
            <path class="cls-3" d="M336.56,187.86l-3.64.48c-1.41.19-2.7-.8-2.89-2.21l-1.21-9.16c-.19-1.41.8-2.7,2.21-2.89l3.64-.48,1.89,14.26Z"/>
          </g>
          <g>
            <path class="cls-8" d="M347.81,179.82c0,2.97-2.4,5.37-5.37,5.37s-5.37-2.4-5.37-5.37,2.4-5.37,5.37-5.37,5.37,2.4,5.37,5.37Z"/>
            <path class="cls-6" d="M347.81,179.82c-.05,0-.04-.48-.27-1.29-.22-.79-.77-1.95-1.97-2.84-1.16-.89-3.05-1.38-4.89-.7-1.82.63-3.38,2.56-3.36,4.82-.02,2.26,1.55,4.19,3.36,4.82,1.83.69,3.73.19,4.89-.7,1.2-.89,1.74-2.04,1.97-2.84.22-.81.21-1.29.26-1.29.02,0,.03.12.04.35.01.23-.01.57-.11.99-.17.84-.69,2.09-1.94,3.08-1.21.99-3.26,1.58-5.27.85-.99-.35-1.94-1.01-2.62-1.95-.7-.92-1.09-2.11-1.1-3.33.01-1.22.4-2.41,1.1-3.33.68-.93,1.63-1.6,2.62-1.94,2.02-.72,4.07-.14,5.27.85,1.25.99,1.77,2.24,1.94,3.08.09.43.11.76.11.99,0,.23-.02.35-.04.35Z"/>
          </g>
          <g>
            <path class="cls-2" d="M333.9,236.58h0c-1.29-.6-2.6-1.2-4.01-1.37-1.41-.17-2.95.18-3.9,1.24-.88.98-1.1,2.4-.92,3.7.28,2.01,1.55,3.92,3.41,4.72s4.27.32,5.5-1.3c.76-1,.92-2.32.97-3.57.07-1.77-.53-3.27-1.05-3.42Z"/>
            <path class="cls-6" d="M334.51,243.02c.05.05-.17.35-.63.81-.47.45-1.19,1.12-2.33,1.61-.58.26-1.35.35-2.08.2-.74-.14-1.46-.49-2.14-.93-.67-.44-1.36-1.07-1.79-1.9-.43-.86-.61-1.71-.74-2.65-.27-1.85.32-3.92,1.85-4.92.76-.5,1.63-.6,2.36-.55.74.05,1.39.23,1.95.44,1.05.4,2,.64,2.57,1.04.57.37.79.68.75.73-.05.06-.36-.13-.93-.36-.56-.25-1.47-.37-2.62-.7-1.04-.28-2.48-.53-3.54.2-1.08.76-1.59,2.38-1.35,3.99.11.81.3,1.67.61,2.3.33.66.85,1.17,1.43,1.58,1.17.85,2.45,1.2,3.42.83,1.03-.35,1.8-.89,2.33-1.23.53-.36.84-.56.89-.5Z"/>
          </g>
        </g>
        <g>
          <g class="cls-10">
            <ellipse class="cls-1" cx="576.67" cy="170.93" rx="94.4" ry="98.1" transform="translate(-9.68 36.9) rotate(-3.63)"/>
          </g>
          <g class="cls-9">
            <path class="cls-1" d="M482.45,176.88c-2.6-40.92,19.34-77.51,52.72-94.32l-194.49,92.44c-4.85,1.68-5.2,7.81,1.27,10.42l198.31,75.8c-31.98-14.08-55.36-45.95-57.8-84.34Z"/>
          </g>
          <path class="cls-8" d="M491.12,106.71c.06.13-27.02,13.19-60.49,29.16-33.48,15.98-60.66,28.82-60.72,28.69-.06-.13,27.02-13.18,60.49-29.16,33.47-15.97,60.65-28.82,60.71-28.69Z"/>
          <path class="cls-8" d="M664.26,147.31s.04.14.1.41c.06.3.15.7.26,1.21.11.54.24,1.2.4,1.97.16.78.34,1.68.47,2.7.68,4.07,1.3,10.04,1.2,17.43-.03,3.7-.37,7.74-.89,12.05-.17,1.07-.34,2.16-.52,3.27-.09.55-.18,1.11-.27,1.68-.12.56-.23,1.12-.35,1.69-.24,1.13-.48,2.28-.72,3.45-.3,1.15-.61,2.32-.92,3.5-2.54,9.43-6.77,19.46-12.91,28.93-3.11,4.72-6.54,9.04-10.13,12.97-3.63,3.9-7.44,7.35-11.24,10.43-7.71,6.02-15.46,10.38-22.35,13.08-6.89,2.69-12.8,3.93-16.91,4.33-.51.07-.99.13-1.45.19-.46.05-.89.05-1.28.07-.79.03-1.46.06-2.01.08-.52.02-.93.03-1.23.04-.28,0-.42,0-.42,0s.14-.03.42-.05c.3-.02.71-.05,1.23-.09.55-.04,1.22-.08,2-.13.4-.03.82-.04,1.28-.1.45-.07.93-.14,1.44-.21,4.09-.46,9.96-1.75,16.8-4.47,6.84-2.72,14.53-7.1,22.18-13.11,3.77-3.08,7.56-6.52,11.16-10.4,3.56-3.92,6.98-8.22,10.07-12.91,6.11-9.43,10.33-19.39,12.88-28.78.31-1.18.62-2.34.92-3.48.25-1.16.49-2.3.73-3.43.12-.56.24-1.12.35-1.68.09-.56.18-1.12.27-1.67.18-1.1.36-2.19.53-3.26.53-4.29.9-8.32.95-12,.15-7.36-.41-13.32-1.03-17.4-.11-1.02-.28-1.93-.43-2.71-.14-.77-.26-1.43-.35-1.98-.09-.52-.16-.92-.21-1.22-.04-.27-.06-.41-.05-.42Z"/>
          <path class="cls-8" d="M661.06,139.07c-.16.03-.63-3.08-2.18-6.57-1.53-3.51-3.5-5.95-3.37-6.05.05-.04.61.52,1.37,1.54.76,1.02,1.7,2.52,2.48,4.3.78,1.78,1.26,3.49,1.5,4.74.24,1.25.27,2.04.21,2.05Z"/>
          <path class="cls-8" d="M557.62,261.3c-.05.14-22.15-8.07-49.35-18.33-27.21-10.26-49.22-18.68-49.17-18.82.05-.13,22.14,8.07,49.35,18.33,27.2,10.26,49.21,18.68,49.16,18.82Z"/>
        </g>
      </g>
      <g>
        <path class="cls-1" d="M377.19,288.52c-19.22,7.46-9.59,5.89-9.61,38.33-.02,33.47,7.65,50.21,7.65,50.21l52.35-26.72-14.97-30.78c-8.97-19.06-13.12-23.96-35.42-31.04Z"/>
        <g>
          <polygon class="cls-7" points="278.27 289.39 300.88 280.52 342.54 278.16 362.12 285.61 335.29 300.5 312.16 299.65 278.27 289.39"/>
          <path class="cls-1" d="M384.94,361.52l-7.75-72.99s-20.4-7.01-30.81-10.36c0,0-10.95,11.42-31.79,11.11-20.36-.3-24.62-4.89-24.62-4.89l-28.47,10.92s-18.33,8.26-23.73,16.22c-7.42,10.93-27.02,38.16-27.02,38.16l36.57,32.96,9.13-10.56,1.8,43.22c38,1.73,87.38,2.76,127.89-.16l-.81-29.52-.4-24.09Z"/>
          <g class="cls-9">
            <polyline class="cls-3" points="335.49 339.77 337.07 370.81 357.54 379.95 372.67 367.05 372.67 338.33 335.49 339.77"/>
          </g>
          <g class="cls-9">
            <path class="cls-3" d="M242.48,328.75c-.66,13.47,4.41,26.51,13.4,36.56-2.78-12.66-9.71-24.45-13.4-36.56Z"/>
          </g>
          <path class="cls-6" d="M387.86,315.94s.02.17.02.5c-.01.39-.02.86-.04,1.43-.06,1.32-.15,3.09-.25,5.25-.23,4.43-.6,10.54-1.07,17.29-.93,13.49-1.95,24.46-2.46,24.36.04.02.15-.65.27-1.89.12-1.23.27-3.02.44-5.23.32-4.49.76-10.57,1.23-17.28.47-6.71.9-12.78,1.22-17.28.17-2.15.31-3.92.41-5.23.05-.57.1-1.04.14-1.42.04-.32.07-.49.08-.49Z"/>
        </g>
        <path class="cls-6" d="M240.84,325.94s.13.24.33.7c.22.52.5,1.2.86,2.06.75,1.85,1.79,4.43,3.07,7.61,2.57,6.48,6.07,15.36,9.95,25.16.37.93.73,1.86,1.07,2.73l.02.04v.04c.42,9.86.8,18.67,1.07,25.07.11,3.14.2,5.68.26,7.51.02.85.03,1.52.05,2.03,0,.46,0,.71-.02.71s-.05-.24-.08-.7c-.04-.51-.08-1.18-.14-2.03-.1-1.82-.25-4.36-.42-7.5-.31-6.4-.75-15.21-1.23-25.07l.02.08c-.34-.87-.7-1.79-1.07-2.73-3.82-9.83-7.28-18.72-9.81-25.22-1.22-3.2-2.21-5.8-2.92-7.67-.32-.87-.58-1.57-.77-2.09-.17-.48-.25-.74-.23-.74Z"/>
        <g>
          <path class="cls-5" d="M395.17,415.23l-19.14.53v-59.49c0-5.28,4.28-9.57,9.57-9.57h0c5.28,0,9.57,4.28,9.57,9.57v58.96h0Z"/>
          <path class="cls-5" d="M292.86,416.56l-20.27-.53,1.14-58.36c0-5.28,4.28-9.57,9.57-9.57h0c5.28,0,9.57,4.28,9.57,9.57v58.89h0Z"/>
          <rect class="cls-5" x="288.74" y="392.74" width="93.79" height="13.89"/>
          <path class="cls-6" d="M292.92,416.16c-.14,0-.26-12.88-.26-28.77s.12-28.77.26-28.77.26,12.88.26,28.77c0,15.89-.12,28.77-.26,28.77Z"/>
          <path class="cls-6" d="M376.03,414.76c-.14,0-.26-11.19-.26-25s.12-25,.26-25,.26,11.19.26,25-.12,25-.26,25Z"/>
        </g>
      </g>
    </g>
  </g>
  <g>
    <path class="cls-6" d="M592.27,120.11h-34.58c-14.3,0-25.94,11.63-25.94,25.94v56.19c0,2.39,1.94,4.32,4.32,4.32h56.19c14.3,0,25.94-11.63,25.94-25.94v-34.58c0-14.3-11.63-25.94-25.94-25.94M579.31,189.27h-8.65v-8.65h8.65v8.65ZM579.31,171.98h-8.65v-34.58h8.65v34.58Z"/>
    <text class="cls-11" transform="translate(532.67 230.56)"><tspan x="0" y="0">Faild Request</tspan></text>
  </g>
</svg>