<?xml version="1.0" encoding="utf-8"?>
<!-- Generator: Adobe Illustrator 28.3.0, SVG Export Plug-In . SVG Version: 6.00 Build 0)  -->
<svg version="1.1" id="Layer_1" xmlns="http://www.w3.org/2000/svg" xmlns:xlink="http://www.w3.org/1999/xlink" x="0px" y="0px"
	 viewBox="0 0 704.3 451.2" style="enable-background:new 0 0 704.3 451.2;" xml:space="preserve">
<style type="text/css">
	.st0{fill:#E0E0E0;}
	.st1{fill:#263238;}
	.st2{fill:#FF725E;}
	.st3{fill:#455A64;}
	.st4{fill:#FFBF9D;}
	.st5{fill:#FF9A6C;}
	.st6{opacity:0.3;}
	.st7{fill:#FFFFFF;}
	.st8{opacity:0.6;}
	.st9{font-family:'Freeman-Regular';}
	.st10{font-size:15px;}
</style>
<g id="Background_Complete">
	<g>
		<g>
			<path class="st0" d="M269.3,33.2c0,0,0,0.1-0.1,0.2c-0.1,0.1-0.3,0.3-0.5,0.5c-0.4,0.5-1,1.1-1.8,2c-1.5,1.8-3.6,4.6-5.7,8.4
				c-2,3.8-3.9,8.8-4.5,14.7c-0.6,5.9,0.4,12.6,3,19.2l0.1,0.2l-0.2,0.1c-6.9,2-14.1,5.3-20.7,10.2c-4.8,3.5-8.9,7.6-12.4,11.9
				c-3.4,4.3-6.1,8.8-8.1,13.3l-0.1,0.2l-0.1-0.1c-2.8-0.9-5.5-1.5-8.2-1.8c-1.3-0.2-2.6-0.3-3.9-0.4c-1.3,0-2.5-0.1-3.7,0
				c-4.8,0.1-8.9,1-12.2,2c-3.3,1-5.8,2.1-7.5,2.9c-0.8,0.4-1.4,0.8-1.9,1c-0.2,0.1-0.4,0.2-0.5,0.2c-0.1,0.1-0.2,0.1-0.2,0.1
				s0.1,0,0.1-0.1c0.1-0.1,0.3-0.2,0.5-0.3c0.4-0.2,1-0.6,1.9-1c1.7-0.8,4.1-2,7.5-3c3.3-1,7.5-1.9,12.3-2.1c1.2-0.1,2.4,0,3.7,0
				c1.3,0.1,2.6,0.2,3.9,0.3c2.7,0.3,5.4,0.9,8.3,1.8l-0.2,0.1c2-4.5,4.7-9,8.1-13.4c3.4-4.3,7.6-8.5,12.4-12
				c6.6-4.9,13.9-8.3,20.8-10.3l-0.1,0.2c-2.7-6.7-3.6-13.5-3-19.4c0.5-6,2.5-11,4.6-14.8c2.1-3.8,4.3-6.6,5.8-8.4
				c0.8-0.9,1.4-1.5,1.9-2c0.2-0.2,0.4-0.4,0.5-0.5C269.2,33.3,269.3,33.2,269.3,33.2L269.3,33.2z"/>
			<path class="st0" d="M179.6,33.2c0,0,0.1,0.1,0.2,0.3c0.1,0.2,0.2,0.5,0.4,0.8c0.4,0.7,0.9,1.7,1.6,3c1.4,2.6,3.4,6.4,5.8,11.1
				c4.9,9.4,11.4,22.5,18.2,37.2c6.8,14.7,12.6,28.1,16.7,37.9c2,4.9,3.7,8.9,4.8,11.6c0.5,1.4,1,2.4,1.2,3.2
				c0.1,0.4,0.2,0.6,0.3,0.8c0.1,0.2,0.1,0.3,0.1,0.3s-0.1-0.1-0.1-0.3c-0.1-0.2-0.2-0.5-0.4-0.8c-0.3-0.7-0.8-1.8-1.3-3.1
				c-1.2-2.8-2.8-6.7-4.9-11.6c-4.1-9.8-10-23.2-16.8-37.8s-13.3-27.8-18.1-37.2c-2.4-4.7-4.4-8.5-5.7-11.2c-0.7-1.3-1.2-2.3-1.6-3
				c-0.2-0.3-0.3-0.6-0.4-0.8C179.6,33.3,179.6,33.2,179.6,33.2L179.6,33.2z"/>
			<path class="st0" d="M287.2,33.3c0,0-0.2,0-0.5,0c-0.4,0-0.9,0-1.6,0c-1.4,0-3.5,0-6.2,0c-5.4,0-13.2,0-22.9,0.1
				c-19.4,0-46.2,0-75.9,0.1l0.1-0.4c0.7,0.4,1.4,0.8,2.2,1.1c26.8,14,50.9,27.2,68.2,36.9c8.6,4.9,15.6,8.8,20.4,11.6
				c2.4,1.4,4.2,2.5,5.5,3.2c0.6,0.4,1.1,0.7,1.4,0.8c0.3,0.2,0.5,0.3,0.5,0.3s-0.2-0.1-0.5-0.3c-0.3-0.2-0.8-0.5-1.5-0.8
				c-1.3-0.7-3.1-1.8-5.6-3.1c-4.9-2.7-11.9-6.6-20.5-11.5c-17.3-9.7-41.4-22.8-68.2-36.8c-0.7-0.4-1.5-0.8-2.2-1.1l-0.7-0.4h0.8
				c29.7,0,56.5,0,75.9,0.1c9.7,0,17.5,0,22.9,0.1c2.7,0,4.8,0,6.2,0c0.7,0,1.2,0,1.6,0C287,33.3,287.2,33.3,287.2,33.3L287.2,33.3z
				"/>
			<path class="st0" d="M180.2,100.8c0,0,0.4-0.3,1.1-0.7c0.4-0.2,0.8-0.5,1.3-0.8c0.5-0.3,1.1-0.6,1.8-0.9c0.7-0.3,1.4-0.6,2.2-0.9
				c0.8-0.3,1.7-0.6,2.6-0.8c1.9-0.5,4-0.8,6.3-1c2.2-0.1,4.4,0.1,6.3,0.4c1,0.2,1.9,0.3,2.7,0.6c0.8,0.2,1.6,0.5,2.3,0.7
				c0.7,0.2,1.3,0.5,1.9,0.7c0.5,0.2,1,0.4,1.4,0.6c0.7,0.4,1.1,0.6,1.1,0.6c0,0-0.4-0.1-1.2-0.5c-0.4-0.2-0.8-0.4-1.4-0.6
				c-0.6-0.2-1.1-0.5-1.9-0.7c-0.7-0.2-1.5-0.5-2.3-0.6c-0.8-0.2-1.7-0.4-2.7-0.5c-1.9-0.3-4-0.4-6.2-0.3c-2.2,0.1-4.3,0.5-6.2,0.9
				c-0.9,0.2-1.8,0.5-2.6,0.8c-0.8,0.3-1.6,0.6-2.2,0.8c-0.7,0.3-1.3,0.6-1.8,0.8c-0.5,0.2-1,0.5-1.3,0.7
				C180.7,100.6,180.3,100.8,180.2,100.8L180.2,100.8z"/>
			<path class="st0" d="M213,101.5c0,0,0-0.2,0-0.5c0-0.3,0-0.9,0-1.5c0.1-1.3,0.2-3.2,0.8-5.5c0.5-2.3,1.4-5,2.9-7.7
				c1.4-2.8,3.5-5.6,6.1-8.1c2.6-2.5,5.5-4.4,8.4-5.7c2.8-1.3,5.6-2.1,7.9-2.6c2.3-0.4,4.2-0.5,5.6-0.5c0.7,0,1.2,0,1.5,0.1
				c0.4,0,0.5,0,0.5,0.1s-0.2,0-0.5,0s-0.9,0-1.5,0c-1.3,0-3.2,0.2-5.5,0.7c-2.3,0.4-5,1.3-7.8,2.6c-2.8,1.3-5.6,3.2-8.2,5.7
				c-2.6,2.5-4.6,5.2-6,8c-1.5,2.7-2.4,5.4-3,7.6c-0.6,2.3-0.8,4.2-0.9,5.5c-0.1,0.7-0.1,1.2-0.1,1.5
				C213.1,101.4,213,101.5,213,101.5L213,101.5z"/>
			<path class="st0" d="M252.1,33.2c0,0-0.1,0.1-0.2,0.3c-0.2,0.2-0.4,0.5-0.6,0.9c-0.3,0.4-0.6,0.9-0.9,1.5c-0.3,0.6-0.7,1.2-1.1,2
				c-0.4,0.8-0.8,1.6-1.2,2.5c-0.4,0.9-0.8,1.9-1.2,2.9c-0.7,2.1-1.3,4.5-1.7,7c-0.4,2.5-0.4,5-0.4,7.2c0.1,1.1,0.1,2.2,0.3,3.2
				c0.1,1,0.3,1.9,0.4,2.7c0.1,0.8,0.4,1.6,0.5,2.2c0.1,0.7,0.3,1.2,0.4,1.7c0.1,0.4,0.2,0.8,0.3,1.1c0.1,0.2,0.1,0.4,0.1,0.4
				c0,0-0.1-0.1-0.1-0.3c-0.1-0.3-0.2-0.6-0.4-1c-0.2-0.4-0.4-1-0.5-1.7c-0.2-0.7-0.4-1.4-0.6-2.2c-0.2-0.8-0.4-1.7-0.5-2.7
				c-0.2-1-0.2-2-0.3-3.2c-0.1-2.2,0-4.7,0.3-7.3c0.4-2.6,1-5,1.8-7.1c0.4-1,0.8-2.1,1.2-3c0.4-0.9,0.8-1.7,1.2-2.5
				c0.4-0.8,0.8-1.4,1.2-2s0.7-1,1-1.4c0.3-0.3,0.5-0.6,0.6-0.9C252,33.3,252.1,33.2,252.1,33.2L252.1,33.2z"/>
			<path class="st0" d="M232.9,33.2c0,0-0.2,0.3-0.7,0.8s-1.1,1.3-1.9,2.4c-0.7,1-1.5,2.3-2.1,3.9c-0.6,1.5-1.1,3.3-1.3,5.2
				c-0.4,3.8,0.4,7.3,1.3,9.7c0.4,1.2,0.9,2.1,1.2,2.7s0.5,1,0.5,1c0,0-0.3-0.3-0.6-0.9c-0.4-0.6-0.9-1.5-1.4-2.7
				c-1-2.3-1.8-5.9-1.4-9.8c0.2-2,0.7-3.8,1.3-5.3c0.7-1.6,1.5-2.9,2.2-3.9c0.8-1,1.5-1.8,2-2.3C232.6,33.4,232.9,33.2,232.9,33.2
				L232.9,33.2z"/>
			<path class="st0" d="M203.4,83.8c0,0,0-0.1,0-0.4c0.1-0.3,0.1-0.7,0.2-1.1c0.1-0.5,0.2-1.1,0.4-1.7c0.2-0.7,0.4-1.4,0.7-2.2
				c1.1-3.3,3.4-7.7,7.1-11.6c3.7-3.9,8-6.6,11.4-7.3c1.7-0.4,3.2-0.3,4.1-0.1c0.5,0.1,0.8,0.2,1.1,0.3c0.2,0.1,0.4,0.2,0.4,0.2
				c0,0-0.5-0.2-1.5-0.4c-0.9-0.2-2.4-0.2-4.1,0.2c-3.4,0.8-7.6,3.5-11.2,7.3c-3.7,3.8-6,8.2-7.2,11.4c-0.3,0.8-0.5,1.6-0.8,2.2
				c-0.2,0.7-0.4,1.2-0.5,1.7c-0.1,0.4-0.2,0.8-0.3,1.1C203.5,83.7,203.4,83.8,203.4,83.8L203.4,83.8z"/>
			<path class="st0" d="M180,83.5c0,0,0.3-0.2,0.8-0.5c0.5-0.3,1.3-0.6,2.4-1c1-0.4,2.3-0.8,3.7-1c1.4-0.3,3-0.4,4.6-0.4
				c1.7,0,3.2,0.2,4.6,0.5c1.4,0.3,2.6,0.7,3.6,1.1c1,0.4,1.8,0.8,2.3,1.1c0.5,0.3,0.8,0.5,0.8,0.5c0,0.1-1.2-0.6-3.2-1.3
				s-4.9-1.5-8.2-1.5c-3.3,0-6.2,0.7-8.2,1.3C181.2,83,180,83.6,180,83.5z"/>
			<path class="st0" d="M180.2,67.7c0,0,0.1-0.2,0.4-0.4s0.8-0.6,1.4-1c1.2-0.8,3-1.6,5.1-2c2.1-0.4,4.1-0.2,5.5,0.1
				c0.7,0.2,1.2,0.3,1.6,0.4c0.4,0.1,0.6,0.2,0.6,0.2c0,0.1-0.9-0.2-2.2-0.4c-1.4-0.2-3.3-0.4-5.4,0c-2.1,0.4-3.9,1.2-5.1,1.9
				C181,67.2,180.3,67.8,180.2,67.7L180.2,67.7z"/>
			<path class="st0" d="M214.1,49.5c0,0.1-1.4,0.3-3.4,1c-0.5,0.2-1.1,0.4-1.7,0.7c-0.6,0.2-1.2,0.6-1.9,0.9
				c-1.3,0.7-2.6,1.6-3.9,2.7c-1.3,1.1-2.4,2.3-3.3,3.4c-0.4,0.6-0.9,1.1-1.2,1.7c-0.4,0.5-0.7,1.1-0.9,1.5c-1,1.9-1.4,3.2-1.5,3.2
				c0,0,0.1-0.3,0.3-0.9c0.1-0.3,0.2-0.7,0.4-1.1s0.4-0.9,0.6-1.4c0.2-0.5,0.5-1,0.9-1.6c0.3-0.6,0.8-1.1,1.2-1.7
				c0.9-1.2,2-2.4,3.3-3.5c1.3-1.1,2.7-2,4-2.7c0.7-0.3,1.3-0.7,1.9-0.9c0.6-0.3,1.2-0.5,1.7-0.6c0.5-0.2,1-0.3,1.4-0.4
				s0.8-0.2,1.1-0.2C213.8,49.5,214.1,49.5,214.1,49.5L214.1,49.5z"/>
			<path class="st0" d="M215,33c0.1,0-0.5,0.8-1.1,2.3c-0.3,0.7-0.6,1.6-0.9,2.6c-0.2,1-0.4,2.1-0.5,3.3c0,1.2,0,2.3,0.2,3.3
				c0.2,1,0.4,1.9,0.6,2.6c0.5,1.5,1,2.3,0.9,2.3c0,0-0.2-0.2-0.4-0.6c-0.2-0.4-0.5-1-0.8-1.7c-0.3-0.7-0.6-1.6-0.7-2.7
				c-0.2-1-0.3-2.2-0.2-3.4c0.1-1.2,0.3-2.3,0.5-3.4c0.3-1,0.6-1.9,1-2.6c0.4-0.7,0.7-1.3,0.9-1.6C214.8,33.1,215,33,215,33L215,33z
				"/>
		</g>
		<path class="st0" d="M180,33.3c0.1,0,0.2,24.7,0.2,55.2s-0.1,55.2-0.2,55.2s-0.2-24.7-0.2-55.2S179.9,33.3,180,33.3z"/>
	</g>
	<g>
		<g>
			<path class="st0" d="M452.4,235.2c0,0,0,0,0.1,0.1c0.1,0.1,0.2,0.2,0.4,0.4c0.4,0.3,0.8,0.8,1.5,1.4c1.4,1.1,3.4,2.7,6.3,4.2
				c2.9,1.5,6.6,2.9,11,3.3c4.4,0.5,9.5-0.3,14.4-2.3l0.1-0.1l0,0.1c1.5,5.1,4,10.6,7.6,15.4c2.6,3.6,5.7,6.7,8.9,9.2
				c3.2,2.6,6.6,4.6,9.9,6.1l0.1,0l0,0.1c-0.7,2.1-1.1,4.1-1.4,6.1c-0.1,1-0.2,2-0.3,2.9c0,1-0.1,1.9,0,2.8c0.1,3.6,0.8,6.7,1.5,9.1
				c0.7,2.5,1.6,4.3,2.2,5.6c0.3,0.6,0.6,1.1,0.7,1.4c0.1,0.1,0.1,0.3,0.2,0.4c0,0.1,0.1,0.1,0.1,0.1c0,0,0,0-0.1-0.1
				c0-0.1-0.1-0.2-0.2-0.4c-0.2-0.3-0.5-0.8-0.8-1.4c-0.6-1.2-1.5-3.1-2.3-5.6c-0.8-2.5-1.4-5.6-1.5-9.2c0-0.9,0-1.8,0-2.8
				c0.1-1,0.1-1.9,0.3-2.9c0.3-2,0.7-4.1,1.4-6.2l0.1,0.2c-3.3-1.5-6.8-3.5-10-6.1c-3.2-2.6-6.4-5.7-9-9.3
				c-3.7-4.9-6.2-10.4-7.7-15.6l0.2,0.1c-5,2-10.1,2.7-14.5,2.2c-4.5-0.4-8.2-1.9-11.1-3.4c-2.9-1.6-4.9-3.2-6.3-4.3
				c-0.7-0.6-1.1-1.1-1.5-1.4c-0.2-0.1-0.3-0.3-0.4-0.4C452.4,235.2,452.4,235.2,452.4,235.2L452.4,235.2z"/>
			<path class="st0" d="M452.4,302.3c0,0,0.1,0,0.2-0.1c0.1-0.1,0.3-0.2,0.6-0.3c0.5-0.3,1.3-0.7,2.2-1.2c2-1,4.8-2.5,8.3-4.4
				c7-3.6,16.8-8.5,27.8-13.6c11-5.1,21-9.5,28.3-12.5c3.7-1.5,6.6-2.7,8.7-3.5c1-0.4,1.8-0.7,2.4-0.9c0.3-0.1,0.5-0.2,0.6-0.2
				c0.1,0,0.2-0.1,0.2-0.1c0,0-0.1,0-0.2,0.1c-0.2,0.1-0.3,0.1-0.6,0.3c-0.5,0.2-1.3,0.6-2.3,1c-2.1,0.9-5,2.1-8.7,3.6
				c-7.3,3.1-17.3,7.5-28.3,12.6c-11,5.1-20.8,10-27.8,13.6c-3.5,1.8-6.4,3.3-8.4,4.3c-1,0.5-1.7,0.9-2.3,1.2
				c-0.2,0.1-0.5,0.2-0.6,0.3C452.5,302.2,452.4,302.3,452.4,302.3L452.4,302.3z"/>
			<path class="st0" d="M452.5,221.8c0,0,0,0.1,0,0.4c0,0.3,0,0.7,0,1.2c0,1.1,0,2.6,0,4.6c0,4.1,0,9.9,0,17.1c0,14.5,0,34.5,0,56.7
				l-0.3-0.1c0.3-0.5,0.6-1.1,0.9-1.6c10.5-20.1,20.4-38,27.6-51c3.6-6.5,6.6-11.7,8.7-15.3c1-1.8,1.8-3.2,2.4-4.1
				c0.3-0.5,0.5-0.8,0.6-1.1c0.1-0.2,0.2-0.4,0.2-0.4s-0.1,0.1-0.2,0.4s-0.3,0.6-0.6,1.1c-0.5,1-1.3,2.4-2.4,4.2
				c-2,3.6-5,8.9-8.6,15.3c-7.2,13-17,31-27.5,51c-0.3,0.5-0.6,1.1-0.9,1.6l-0.3,0.5V302c0-22.2,0-42.2,0-56.7c0-7.2,0-13.1,0-17.1
				c0-2,0-3.6,0-4.6c0-0.5,0-0.9,0-1.2C452.5,222,452.5,221.8,452.5,221.8L452.5,221.8z"/>
			<path class="st0" d="M503,301.8c0,0-0.2-0.3-0.5-0.8c-0.2-0.3-0.4-0.6-0.6-1s-0.5-0.8-0.7-1.3c-0.2-0.5-0.5-1-0.7-1.7
				c-0.2-0.6-0.4-1.3-0.6-2c-0.4-1.4-0.6-3-0.7-4.7c-0.1-1.7,0-3.3,0.3-4.7c0.1-0.7,0.3-1.4,0.4-2c0.1-0.6,0.4-1.2,0.5-1.7
				c0.2-0.5,0.4-1,0.5-1.4c0.2-0.4,0.3-0.7,0.5-1c0.3-0.5,0.4-0.9,0.5-0.8c0,0-0.1,0.3-0.4,0.9c-0.1,0.3-0.3,0.6-0.4,1
				s-0.3,0.9-0.5,1.4c-0.2,0.5-0.4,1.1-0.5,1.7c-0.2,0.6-0.3,1.3-0.4,2c-0.2,1.4-0.3,3-0.3,4.7c0.1,1.7,0.4,3.2,0.7,4.6
				c0.2,0.7,0.4,1.4,0.6,2c0.2,0.6,0.4,1.2,0.6,1.7c0.2,0.5,0.4,0.9,0.6,1.3s0.4,0.7,0.5,1C502.8,301.5,503,301.8,503,301.8
				L503,301.8z"/>
			<path class="st0" d="M503.5,277.3c0,0-0.1,0-0.4,0c-0.3,0-0.6,0-1.1,0c-1,0-2.4-0.2-4.1-0.6c-1.7-0.4-3.7-1.1-5.8-2.2
				c-2.1-1.1-4.2-2.6-6-4.5c-1.9-2-3.3-4.1-4.3-6.2c-1-2.1-1.6-4.1-1.9-5.9c-0.3-1.7-0.4-3.2-0.4-4.1c0-0.5,0-0.9,0-1.1
				c0-0.3,0-0.4,0-0.4s0,0.1,0,0.4c0,0.3,0,0.6,0,1.1c0,1,0.1,2.4,0.5,4.1s1,3.7,2,5.8c1,2.1,2.4,4.2,4.2,6.2c1.9,1.9,3.9,3.4,6,4.5
				c2,1.1,4,1.8,5.7,2.2c1.7,0.4,3.1,0.6,4.1,0.7c0.5,0,0.9,0,1.1,0.1C503.4,277.3,503.5,277.3,503.5,277.3L503.5,277.3z"/>
			<path class="st0" d="M452.4,248.1c0,0,0.1,0,0.2,0.1c0.2,0.1,0.4,0.3,0.7,0.4c0.3,0.2,0.7,0.4,1.1,0.7s0.9,0.6,1.5,0.8
				c0.6,0.3,1.2,0.6,1.9,0.9c0.7,0.3,1.4,0.6,2.2,0.9c1.6,0.5,3.4,1,5.3,1.3c1.9,0.3,3.7,0.3,5.4,0.3c0.8-0.1,1.6-0.1,2.4-0.2
				c0.7-0.1,1.4-0.2,2-0.3c0.6-0.1,1.2-0.3,1.7-0.4c0.5-0.1,0.9-0.2,1.2-0.3c0.3-0.1,0.6-0.2,0.8-0.2c0.2-0.1,0.3-0.1,0.3-0.1
				s-0.1,0.1-0.3,0.1c-0.2,0.1-0.5,0.2-0.8,0.3c-0.3,0.1-0.8,0.3-1.2,0.4c-0.5,0.1-1,0.3-1.7,0.4c-0.6,0.1-1.3,0.3-2,0.4
				c-0.7,0.1-1.5,0.2-2.4,0.2c-1.7,0.1-3.5,0-5.5-0.2c-1.9-0.3-3.7-0.8-5.3-1.3c-0.8-0.3-1.5-0.6-2.2-0.9c-0.7-0.3-1.3-0.6-1.9-0.9
				c-0.6-0.3-1-0.6-1.5-0.9c-0.4-0.3-0.8-0.5-1.1-0.7c-0.3-0.2-0.5-0.4-0.7-0.5C452.5,248.1,452.4,248.1,452.4,248.1L452.4,248.1z"
				/>
			<path class="st0" d="M452.4,262.4c0,0,0.2,0.2,0.6,0.5s1,0.8,1.8,1.4c0.8,0.5,1.8,1.1,2.9,1.6c1.1,0.5,2.5,0.8,3.9,0.9
				c2.9,0.3,5.5-0.3,7.2-1c0.9-0.3,1.6-0.7,2-0.9s0.7-0.4,0.7-0.4c0,0-0.2,0.2-0.7,0.5c-0.5,0.3-1.1,0.6-2,1
				c-1.8,0.7-4.4,1.4-7.3,1.1c-1.5-0.1-2.8-0.5-4-1c-1.2-0.5-2.1-1.1-2.9-1.7c-0.8-0.6-1.3-1.1-1.7-1.5S452.4,262.4,452.4,262.4
				L452.4,262.4z"/>
			<path class="st0" d="M490.2,284.5c0,0-0.1,0-0.3,0c-0.2,0-0.5-0.1-0.8-0.1c-0.4-0.1-0.8-0.2-1.3-0.3c-0.5-0.1-1.1-0.3-1.7-0.5
				c-2.5-0.9-5.8-2.6-8.7-5.4c-2.9-2.8-4.9-6-5.5-8.5c-0.3-1.3-0.2-2.4,0-3.1c0.1-0.4,0.2-0.6,0.3-0.8c0.1-0.2,0.1-0.3,0.1-0.3
				c0,0-0.1,0.4-0.3,1.1c-0.1,0.7-0.2,1.8,0.1,3c0.6,2.5,2.6,5.6,5.5,8.4c2.9,2.8,6.1,4.5,8.5,5.4c0.6,0.2,1.2,0.4,1.7,0.6
				c0.5,0.1,0.9,0.3,1.3,0.4c0.3,0.1,0.6,0.1,0.8,0.2C490.1,284.4,490.2,284.4,490.2,284.5L490.2,284.5z"/>
			<path class="st0" d="M490,302c0,0-0.1-0.2-0.4-0.6c-0.2-0.4-0.5-1-0.8-1.8c-0.3-0.8-0.6-1.7-0.8-2.7c-0.2-1.1-0.3-2.2-0.3-3.5
				c0-1.2,0.2-2.4,0.4-3.5c0.2-1,0.5-2,0.8-2.7c0.3-0.8,0.6-1.4,0.8-1.7c0.2-0.4,0.3-0.6,0.4-0.6c0,0-0.4,0.9-1,2.4
				s-1.1,3.7-1.1,6.1c0,2.5,0.5,4.6,1,6.1C489.6,301.1,490.1,302,490,302L490,302z"/>
			<path class="st0" d="M478.2,301.8c0,0-0.1-0.1-0.3-0.3c-0.2-0.2-0.5-0.6-0.7-1c-0.6-0.9-1.2-2.2-1.5-3.9
				c-0.3-1.6-0.1-3.1,0.1-4.1c0.1-0.5,0.2-0.9,0.3-1.2c0.1-0.3,0.2-0.4,0.2-0.4c0,0-0.1,0.6-0.3,1.7c-0.2,1-0.3,2.5,0,4
				c0.3,1.6,0.9,2.9,1.4,3.8S478.2,301.8,478.2,301.8L478.2,301.8z"/>
			<path class="st0" d="M464.6,276.4c0.1,0,0.2,1,0.7,2.6c0.1,0.4,0.3,0.8,0.5,1.2c0.2,0.5,0.4,0.9,0.7,1.4c0.5,0.9,1.2,1.9,2,2.9
				c0.8,1,1.7,1.8,2.5,2.4c0.4,0.3,0.8,0.6,1.3,0.9c0.4,0.3,0.8,0.5,1.1,0.7c1.5,0.8,2.4,1.1,2.4,1.1c0,0-0.2,0-0.7-0.2
				c-0.2-0.1-0.5-0.2-0.8-0.3c-0.3-0.1-0.7-0.3-1-0.5c-0.4-0.2-0.8-0.4-1.2-0.7c-0.4-0.2-0.8-0.6-1.3-0.9c-0.9-0.7-1.8-1.5-2.6-2.5
				c-0.8-1-1.5-2-2-3c-0.2-0.5-0.5-1-0.7-1.4c-0.2-0.5-0.3-0.9-0.5-1.3c-0.1-0.4-0.2-0.8-0.3-1.1c-0.1-0.3-0.1-0.6-0.2-0.8
				C464.6,276.7,464.6,276.5,464.6,276.4L464.6,276.4z"/>
			<path class="st0" d="M452.2,275.8c0,0,0.6,0.4,1.7,0.8c0.5,0.2,1.2,0.5,1.9,0.6c0.7,0.2,1.6,0.3,2.5,0.4c0.9,0,1.7,0,2.5-0.1
				c0.8-0.1,1.4-0.3,2-0.5c1.1-0.4,1.7-0.7,1.8-0.7c0,0-0.1,0.1-0.4,0.3s-0.7,0.4-1.3,0.6c-0.5,0.2-1.2,0.4-2,0.6
				c-0.8,0.1-1.6,0.2-2.5,0.2c-0.9,0-1.8-0.2-2.5-0.4c-0.8-0.2-1.4-0.5-1.9-0.7c-0.5-0.3-0.9-0.5-1.2-0.7
				C452.4,275.9,452.2,275.8,452.2,275.8L452.2,275.8z"/>
		</g>
		<path class="st0" d="M452.5,302c0-0.1,18.5-0.1,41.3-0.1s41.3,0.1,41.3,0.1s-18.5,0.1-41.3,0.1C471,302.1,452.5,302.1,452.5,302
			L452.5,302z"/>
	</g>
	<path class="st0" d="M561.1,32.3c0,0,0.6,0,1.5-0.4c0.5-0.2,1-0.6,1.4-1.2c0.5-0.6,0.8-1.4,0.7-2.4c0-2,0-4.4,0-7.1
		c0-1.4,0-2.9,0-4.5c0-0.8,0-1.6,0-2.4c-0.1-0.8-0.5-1.6-1.1-2.1c-0.6-0.6-1.4-0.9-2.3-1c-0.9,0-1.8,0-2.8,0c-1.9,0-3.9,0-6,0
		c-4.1,0-8.5,0-13.2,0c-9.3,0-19.5,0-30.2,0c-1.2,0-2.5,0.7-3.1,1.8c-0.3,0.5-0.5,1.1-0.5,1.8c0,0.7,0,1.3,0,2c0,2.6,0,5.2,0,7.7
		c0,1.3,0,2.5,0,3.8c-0.1,1.2,0.4,2.3,1.3,3c0.5,0.4,1,0.6,1.5,0.7c0.5,0.1,1.1,0,1.7,0.1c1.2,0,2.4,0,3.5,0c9.3,0,17.6,0,24.6,0.1
		c7,0,12.7,0.1,16.6,0.1c1.9,0,3.5,0,4.5,0c0.5,0,0.9,0,1.2,0C561,32.3,561.1,32.3,561.1,32.3c0,0-0.1,0-0.4,0c-0.3,0-0.7,0-1.2,0
		c-1.1,0-2.6,0-4.5,0c-4,0-9.6,0-16.6,0.1c-7,0-15.4,0-24.6,0.1c-1.2,0-2.3,0-3.5,0c-0.6,0-1.2,0-1.8-0.1c-0.6-0.1-1.2-0.4-1.7-0.8
		c-1-0.8-1.6-2.1-1.5-3.4c0-1.2,0-2.5,0-3.8c0-2.5,0-5.1,0-7.7c0-0.6,0-1.3,0-2c0-0.7,0.2-1.4,0.5-2c0.7-1.2,2.1-2.1,3.5-2.1
		c10.7,0,20.9,0,30.2,0c4.6,0,9,0,13.2,0c2.1,0,4,0,6,0c1,0,1.9,0,2.8,0c1,0,1.9,0.4,2.5,1.1s1.1,1.5,1.2,2.3c0.1,0.9,0,1.7,0,2.5
		c0,1.6,0,3.1,0,4.5c0,2.8,0,5.2,0,7.1c0,1-0.3,1.9-0.8,2.5c-0.5,0.6-1,1-1.5,1.2c-0.5,0.2-0.9,0.3-1.2,0.3
		C561.3,32.3,561.1,32.3,561.1,32.3L561.1,32.3z"/>
	<path class="st0" d="M95.6,21.5c0,0,0.6,0,1.5-0.4c0.5-0.2,1-0.6,1.4-1.2c0.4-0.6,0.8-1.4,0.7-2.4c0-2,0-4.4,0-7.1
		c0-1.4,0-2.9,0-4.5c0-0.8,0-1.6,0-2.4c-0.1-0.8-0.5-1.6-1.1-2.1c-0.6-0.6-1.4-0.9-2.3-1c-0.9,0-1.8,0-2.8,0c-1.9,0-3.9,0-6,0
		c-4.1,0-8.5,0-13.2,0c-9.3,0-19.5,0-30.2,0c-1.2,0-2.5,0.7-3.1,1.8c-0.3,0.5-0.5,1.2-0.5,1.8v2c0,2.6,0,5.2,0,7.7
		c0,1.3,0,2.5,0,3.8c-0.1,1.2,0.4,2.3,1.3,3c0.5,0.4,1,0.6,1.5,0.7c0.5,0.1,1.2,0,1.7,0.1c1.2,0,2.4,0,3.5,0c9.3,0,17.6,0,24.6,0.1
		c7,0,12.7,0.1,16.6,0.1c1.9,0,3.4,0,4.5,0c0.5,0,0.9,0,1.2,0C95.5,21.5,95.7,21.5,95.6,21.5c0,0-0.1,0-0.4,0c-0.3,0-0.7,0-1.2,0
		c-1.1,0-2.6,0-4.5,0c-3.9,0-9.6,0-16.6,0.1c-7,0-15.4,0-24.6,0.1c-1.2,0-2.3,0-3.5,0c-0.6,0-1.2,0-1.8-0.1
		c-0.6-0.1-1.2-0.4-1.7-0.8c-1-0.8-1.6-2.1-1.5-3.4c0-1.2,0-2.5,0-3.8c0-2.5,0-5.1,0-7.7c0-0.7,0-1.3,0-2c0-0.7,0.2-1.4,0.5-2
		c0.6-1.3,2-2.1,3.5-2.1c10.7,0,20.9,0,30.2,0c4.6,0,9,0,13.2,0c2.1,0,4.1,0,6,0c1,0,1.9,0,2.8,0c1,0,1.9,0.4,2.5,1.1
		s1.1,1.5,1.2,2.3c0.1,0.9,0,1.7,0,2.5c0,1.6,0,3.1,0,4.5c0,2.8,0,5.2,0,7.1c0,1-0.3,1.9-0.8,2.5c-0.5,0.6-1,1-1.5,1.2
		c-0.5,0.2-0.9,0.2-1.2,0.3C95.8,21.5,95.6,21.5,95.6,21.5L95.6,21.5z"/>
	<path class="st0" d="M74.2,42.9c0,0,0.6,0,1.5-0.4c0.5-0.2,1-0.6,1.4-1.2c0.4-0.6,0.8-1.4,0.7-2.4c0-2,0-4.4,0-7.1
		c0-1.4,0-2.9,0-4.5c0-0.8,0-1.6,0-2.4c-0.1-0.8-0.5-1.6-1.1-2.1c-0.6-0.6-1.4-0.9-2.3-1c-0.9,0-1.8,0-2.8,0c-1.9,0-3.9,0-6,0
		c-4.1,0-8.5,0-13.2,0c-9.3,0-19.5,0-30.2,0c-1.2,0-2.5,0.7-3.1,1.8c-0.3,0.5-0.5,1.1-0.5,1.8c0,0.7,0,1.3,0,2c0,2.6,0,5.2,0,7.7
		c0,1.3,0,2.5,0,3.8c-0.1,1.2,0.4,2.3,1.3,3c0.5,0.3,1,0.6,1.5,0.7c0.5,0.1,1.1,0,1.7,0.1c1.2,0,2.4,0,3.5,0c9.3,0,17.6,0,24.6,0.1
		c7,0,12.7,0.1,16.6,0.1c1.9,0,3.4,0,4.5,0c0.5,0,0.9,0,1.2,0C74.1,42.9,74.2,42.9,74.2,42.9c0,0-0.1,0-0.4,0c-0.3,0-0.7,0-1.2,0
		c-1.1,0-2.6,0-4.5,0c-3.9,0-9.6,0-16.6,0.1c-7,0-15.4,0-24.6,0.1c-1.2,0-2.3,0-3.5,0c-0.6,0-1.2,0-1.8-0.1
		c-0.6-0.1-1.2-0.4-1.7-0.8c-1-0.8-1.6-2.1-1.5-3.4c0-1.2,0-2.5,0-3.8c0-2.5,0-5.1,0-7.7c0-0.6,0-1.3,0-2c0-0.7,0.2-1.4,0.5-2
		c0.7-1.2,2.1-2,3.5-2c10.7,0,20.9,0,30.2,0c4.6,0,9,0,13.2,0c2.1,0,4.1,0,6,0c1,0,1.9,0,2.8,0c1,0,1.9,0.5,2.5,1.1s1.1,1.5,1.2,2.4
		c0.1,0.9,0,1.7,0,2.5c0,1.6,0,3.1,0,4.5c0,2.8,0,5.2,0,7.1c0,1-0.3,1.9-0.8,2.5c-0.5,0.6-1,1-1.5,1.2c-0.5,0.2-0.9,0.2-1.2,0.3
		C74.4,42.9,74.3,42.9,74.2,42.9L74.2,42.9z"/>
	<path class="st0" d="M180.3,341.7c0,0,0.6,0,1.5-0.4c0.5-0.2,1-0.6,1.4-1.2c0.4-0.6,0.8-1.4,0.7-2.4c0-2,0-4.4,0-7.1
		c0-1.4,0-2.9,0-4.5c0-0.8,0-1.6,0-2.4c-0.1-0.8-0.5-1.5-1.1-2.1c-0.6-0.6-1.4-0.9-2.3-1c-0.9,0-1.9,0-2.8,0c-1.9,0-3.9,0-6,0
		c-4.1,0-8.5,0-13.2,0c-9.3,0-19.5,0-30.2,0c-1.2,0-2.5,0.7-3.1,1.8c-0.3,0.5-0.5,1.1-0.5,1.8c0,0.7,0,1.3,0,2c0,2.6,0,5.2,0,7.7
		c0,1.3,0,2.5,0,3.8c-0.1,1.2,0.4,2.3,1.3,3c0.4,0.4,1,0.6,1.5,0.7c0.5,0.1,1.1,0,1.7,0.1c1.2,0,2.4,0,3.5,0c9.3,0,17.6,0,24.6,0.1
		c7,0,12.7,0.1,16.6,0.1c1.9,0,3.4,0,4.5,0c0.5,0,0.9,0,1.2,0C180.1,341.7,180.3,341.8,180.3,341.7c0,0-0.1,0-0.4,0
		c-0.3,0-0.7,0-1.2,0c-1.1,0-2.6,0-4.5,0c-3.9,0-9.6,0-16.6,0.1c-7,0-15.4,0-24.6,0.1c-1.2,0-2.3,0-3.5,0c-0.6,0-1.2,0-1.8-0.1
		c-0.6-0.1-1.2-0.4-1.7-0.8c-1-0.8-1.6-2.1-1.5-3.4c0-1.2,0-2.5,0-3.8c0-2.5,0-5.1,0-7.7c0-0.6,0-1.3,0-2c0-0.7,0.2-1.4,0.5-2
		c0.7-1.2,2.1-2,3.5-2c10.7,0,20.9,0,30.2,0c4.6,0,9,0,13.2,0c2.1,0,4.1,0,6,0c1,0,1.9,0,2.8,0c1,0,1.9,0.5,2.5,1.1
		c0.7,0.6,1.1,1.5,1.2,2.4c0.1,0.9,0,1.7,0,2.5c0,1.6,0,3.1,0,4.5c0,2.8,0,5.2,0,7.1c0,1-0.3,1.9-0.8,2.5c-0.5,0.6-1,1-1.5,1.2
		c-0.5,0.2-0.9,0.2-1.1,0.3C180.4,341.8,180.3,341.8,180.3,341.7L180.3,341.7z"/>
	<path class="st0" d="M662.8,262.8c0,0,0.6,0,1.5-0.4c0.5-0.2,1-0.6,1.4-1.2c0.5-0.6,0.8-1.4,0.7-2.4c0-2,0-4.4,0-7.1
		c0-1.4,0-2.9,0-4.5c0-0.8,0-1.6,0-2.4c-0.1-0.8-0.5-1.6-1.1-2.1c-0.6-0.6-1.4-0.9-2.3-1c-0.9,0-1.8,0-2.8,0c-1.9,0-3.9,0-6,0
		c-4.1,0-8.5,0-13.2,0c-9.3,0-19.5,0-30.2,0c-1.2,0-2.5,0.7-3.1,1.8c-0.3,0.5-0.5,1.1-0.5,1.8c0,0.7,0,1.3,0,2c0,2.6,0,5.2,0,7.7
		c0,1.3,0,2.5,0,3.8c-0.1,1.2,0.4,2.3,1.3,3c0.5,0.4,1,0.6,1.5,0.7c0.5,0.1,1.2,0,1.7,0.1c1.2,0,2.4,0,3.5,0c9.3,0,17.6,0,24.6,0.1
		c7,0,12.7,0.1,16.6,0.1c1.9,0,3.5,0,4.5,0c0.5,0,0.9,0,1.2,0C662.7,262.8,662.8,262.8,662.8,262.8c0,0-0.1,0-0.4,0
		c-0.3,0-0.7,0-1.2,0c-1.1,0-2.6,0-4.5,0c-4,0-9.6,0-16.6,0.1c-7,0-15.4,0-24.6,0.1c-1.2,0-2.3,0-3.5,0c-0.6,0-1.2,0-1.8-0.1
		c-0.6-0.1-1.2-0.4-1.7-0.8c-1-0.8-1.6-2.1-1.5-3.4c0-1.2,0-2.5,0-3.8c0-2.5,0-5.1,0-7.7c0-0.6,0-1.3,0-2c0-0.7,0.2-1.4,0.5-2
		c0.7-1.2,2.1-2.1,3.5-2.1c10.7,0,20.9,0,30.2,0c4.6,0,9,0,13.2,0c2.1,0,4,0,6,0c1,0,1.9,0,2.8,0c1,0,1.9,0.4,2.5,1.1
		s1.1,1.5,1.2,2.4c0.1,0.9,0,1.7,0,2.5c0,1.6,0,3.1,0,4.5c0,2.8,0,5.2,0,7.1c0,1-0.3,1.9-0.8,2.5c-0.5,0.6-1,1-1.5,1.2
		c-0.5,0.2-0.9,0.2-1.2,0.3C663,262.8,662.8,262.8,662.8,262.8L662.8,262.8z"/>
	<path class="st0" d="M468.8,111.7c0,0,0.6,0,1.5-0.4c0.5-0.2,1-0.6,1.4-1.2c0.5-0.6,0.8-1.4,0.7-2.4c0-2,0-4.4,0-7.1
		c0-1.4,0-2.9,0-4.5c0-0.8,0-1.6,0-2.4c-0.1-0.8-0.5-1.6-1.1-2.1c-0.6-0.6-1.4-0.9-2.3-1c-0.9,0-1.9,0-2.8,0c-1.9,0-3.9,0-6,0
		c-4.1,0-8.5,0-13.2,0c-9.3,0-19.5,0-30.2,0c-1.2,0-2.5,0.7-3.1,1.8c-0.3,0.5-0.5,1.2-0.5,1.8v2c0,2.6,0,5.2,0,7.7
		c0,1.3,0,2.5,0,3.8c-0.1,1.2,0.4,2.3,1.3,3c0.5,0.3,1,0.6,1.5,0.7c0.5,0.1,1.1,0.1,1.7,0.1c1.2,0,2.4,0,3.5,0
		c9.3,0,17.6,0,24.6,0.1c7,0,12.7,0.1,16.6,0.1c1.9,0,3.5,0,4.5,0.1c0.5,0,0.9,0,1.2,0C468.6,111.7,468.8,111.7,468.8,111.7
		c0,0-0.1,0-0.4,0c-0.3,0-0.7,0-1.2,0c-1.1,0-2.6,0-4.5,0.1c-4,0-9.6,0.1-16.6,0.1c-7,0-15.4,0-24.6,0.1c-1.2,0-2.3,0-3.5,0
		c-0.6,0-1.2,0-1.8-0.1c-0.6-0.1-1.2-0.4-1.7-0.8c-1-0.8-1.6-2.1-1.5-3.4c0-1.2,0-2.5,0-3.8c0-2.5,0-5.1,0-7.7c0-0.7,0-1.3,0-2
		c0-0.7,0.2-1.4,0.5-2c0.7-1.2,2.1-2.1,3.5-2.1c10.7,0,20.9,0,30.2,0c4.6,0,9,0,13.2,0c2.1,0,4,0,6,0c1,0,1.9,0,2.8,0
		c1,0,1.9,0.4,2.5,1.1s1.1,1.5,1.2,2.3c0.1,0.9,0,1.7,0,2.5c0,1.6,0,3.1,0,4.5c0,2.8,0,5.2,0,7.1c0,1-0.3,1.9-0.8,2.5
		c-0.5,0.6-1,1-1.5,1.2c-0.5,0.2-0.9,0.2-1.1,0.3C468.9,111.7,468.8,111.7,468.8,111.7L468.8,111.7z"/>
	<path class="st0" d="M67.3,179.4c0,0,0.6,0,1.5-0.4c0.5-0.2,1-0.6,1.4-1.2c0.4-0.6,0.8-1.4,0.7-2.4c0-2,0-4.4,0-7.1
		c0-1.4,0-2.9,0-4.5c0-0.8,0-1.6,0-2.4c-0.1-0.8-0.5-1.6-1.1-2.1c-0.6-0.6-1.4-0.9-2.3-1c-0.9,0-1.8,0-2.8,0c-1.9,0-3.9,0-6,0
		c-4.1,0-8.5,0-13.2,0c-9.3,0-19.5,0-30.2,0c-1.2,0-2.5,0.7-3.1,1.8c-0.3,0.5-0.5,1.1-0.5,1.8v2c0,2.6,0,5.2,0,7.7
		c0,1.3,0,2.5,0,3.8c-0.1,1.2,0.4,2.3,1.3,3c0.4,0.4,1,0.6,1.5,0.7c0.5,0.1,1.1,0.1,1.7,0.1c1.2,0,2.4,0,3.5,0
		c9.3,0,17.6,0,24.6,0.1c7,0,12.7,0.1,16.6,0.1c1.9,0,3.4,0,4.5,0.1c0.5,0,0.9,0,1.2,0C67.1,179.4,67.3,179.4,67.3,179.4
		c0,0-0.1,0-0.4,0c-0.3,0-0.7,0-1.2,0c-1.1,0-2.6,0-4.5,0.1c-4,0-9.6,0.1-16.6,0.1c-7,0-15.4,0-24.6,0.1c-1.2,0-2.3,0-3.5,0
		c-0.6,0-1.2,0-1.8-0.1c-0.6-0.1-1.2-0.4-1.7-0.8c-1-0.8-1.6-2.1-1.5-3.4c0-1.2,0-2.5,0-3.8c0-2.5,0-5.1,0-7.7c0-0.6,0-1.3,0-2
		c0-0.7,0.2-1.4,0.5-2c0.7-1.2,2.1-2.1,3.5-2.1c10.7,0,20.9,0,30.2,0c4.6,0,9,0,13.2,0c2.1,0,4,0,6,0c1,0,1.9,0,2.8,0
		c1,0,1.9,0.4,2.5,1.1s1.1,1.5,1.2,2.4c0.1,0.9,0,1.7,0,2.5c0,1.6,0,3.1,0,4.5c0,2.8,0,5.2,0,7.1c0,1-0.3,1.9-0.8,2.5
		c-0.5,0.6-1,1-1.5,1.2c-0.5,0.2-0.9,0.2-1.2,0.3C67.4,179.4,67.3,179.4,67.3,179.4L67.3,179.4z"/>
</g>
<g id="Floor">
	<path class="st1" d="M676.1,361.5c0,0.1-145,0.3-323.9,0.3s-324-0.1-324-0.3s145-0.3,324-0.3S676.1,361.4,676.1,361.5z"/>
</g>
<g id="Piping">
	<g>
		<path class="st0" d="M7.9,147.6h164.8c4.4,0,8.2-3.8,8.2-8.2V29.1c-2.7,2.7-5.4,5.4-8.2,8.2h270.5c-2.7-2.7-5.5-5.5-8.2-8.2v280.6
			c0,4.4,3.8,8.2,8.2,8.2h181.7c8.6,0,62.9-0.3,71.5-0.3c10.5,0,10.5-16.4,0-16.4c-23.4,0-92.6,0.3-116,0.3H443.2l8.2,8.2V29.1
			c0-4.4-3.8-8.2-8.2-8.2H172.7c-4.4,0-8.2,3.8-8.2,8.2v110.3l8.2-8.2H7.9C-2.6,131.2-2.6,147.6,7.9,147.6L7.9,147.6z"/>
		<path class="st1" d="M181.1,37.8c-0.1,0-0.3-1.2-1-3.1c-0.4-0.9-0.9-2-1.6-3.1c-0.7-1.1-1.6-2.3-2.6-3.4c-1.1-1.1-2.2-2-3.3-2.8
			c-1.1-0.7-2.1-1.3-3.1-1.7c-1.8-0.8-3.1-1.1-3-1.2c0,0,0.3,0,0.9,0.1c0.3,0.1,0.6,0.1,1,0.3c0.4,0.1,0.8,0.2,1.3,0.5
			c1,0.4,2,0.9,3.2,1.7c1.1,0.8,2.3,1.7,3.4,2.8c1.1,1.1,1.9,2.4,2.6,3.5c0.7,1.2,1.2,2.3,1.5,3.3c0.2,0.5,0.3,0.9,0.4,1.3
			c0.1,0.4,0.2,0.7,0.2,1C181.1,37.5,181.1,37.8,181.1,37.8L181.1,37.8z"/>
		<g>
			<rect x="162.3" y="113.6" class="st0" width="20.7" height="7.3"/>
			<path class="st1" d="M183.1,120.8c0,0.1-4.6,0.3-10.3,0.3s-10.3-0.1-10.3-0.3s4.6-0.3,10.3-0.3S183.1,120.7,183.1,120.8z"/>
			<path class="st1" d="M183.1,113.6c0,0.1-4.6,0.3-10.4,0.3s-10.4-0.1-10.4-0.3s4.6-0.3,10.4-0.3S183.1,113.4,183.1,113.6z"/>
		</g>
		<g>
			<rect x="423" y="18.9" class="st0" width="7.3" height="20.7"/>
			<path class="st1" d="M430.3,18.7c0.1,0,0.3,4.6,0.3,10.3s-0.1,10.3-0.3,10.3S430,34.7,430,29S430.2,18.7,430.3,18.7z"/>
			<path class="st1" d="M423,18.7c0.1,0,0.3,4.6,0.3,10.4s-0.1,10.4-0.3,10.4s-0.3-4.6-0.3-10.4S422.9,18.7,423,18.7z"/>
		</g>
		<g>
			<rect x="432.7" y="53.9" class="st0" width="20.7" height="7.3"/>
			<path class="st1" d="M432.6,53.9c0-0.1,4.6-0.3,10.3-0.3s10.3,0.1,10.3,0.3s-4.6,0.3-10.3,0.3S432.6,54.1,432.6,53.9z"/>
			<path class="st1" d="M432.6,61.2c0-0.1,4.6-0.3,10.4-0.3s10.4,0.1,10.4,0.3s-4.6,0.3-10.4,0.3S432.6,61.3,432.6,61.2z"/>
		</g>
		<g>
			<rect x="467.9" y="298" class="st0" width="7.3" height="20.7"/>
			<path class="st1" d="M467.9,318.8c-0.1,0-0.3-4.6-0.3-10.3s0.1-10.3,0.3-10.3s0.3,4.6,0.3,10.3S468,318.8,467.9,318.8z"/>
			<path class="st1" d="M475.2,318.8c-0.1,0-0.3-4.6-0.3-10.4s0.1-10.4,0.3-10.4s0.3,4.6,0.3,10.4S475.3,318.8,475.2,318.8z"/>
		</g>
		<g>
			<rect x="433.1" y="279.4" class="st0" width="20.7" height="7.3"/>
			<path class="st1" d="M453.9,286.6c0,0.1-4.6,0.3-10.3,0.3s-10.3-0.1-10.3-0.3s4.6-0.3,10.3-0.3S453.9,286.5,453.9,286.6z"/>
			<path class="st1" d="M453.9,279.4c0,0.1-4.6,0.3-10.4,0.3s-10.4-0.1-10.4-0.3s4.6-0.3,10.4-0.3S453.9,279.2,453.9,279.4z"/>
		</g>
		<g>
			<rect x="298.4" y="18.8" class="st0" width="7.3" height="20.7"/>
			<path class="st1" d="M298.5,39.6c-0.1,0-0.3-4.6-0.3-10.3s0.1-10.3,0.3-10.3s0.3,4.6,0.3,10.3S298.6,39.6,298.5,39.6z"/>
			<path class="st1" d="M305.7,39.6c-0.1,0-0.3-4.6-0.3-10.4s0.1-10.4,0.3-10.4s0.3,4.6,0.3,10.4S305.9,39.6,305.7,39.6z"/>
		</g>
		<g>
			<rect x="144.9" y="129.4" class="st0" width="7.3" height="20.7"/>
			<path class="st1" d="M145,150.2c-0.1,0-0.3-4.6-0.3-10.3s0.1-10.3,0.3-10.3s0.3,4.6,0.3,10.3S145.1,150.2,145,150.2z"/>
			<path class="st1" d="M152.2,150.2c-0.1,0-0.3-4.6-0.3-10.4s0.1-10.4,0.3-10.4s0.3,4.6,0.3,10.4S152.4,150.2,152.2,150.2z"/>
		</g>
	</g>
</g>
<g id="Bricks">
	<g>
		<path class="st1" d="M669.9,339.1c0,0,0.6,0,1.5-0.4c0.5-0.2,1-0.6,1.4-1.2c0.5-0.6,0.8-1.4,0.7-2.4c0-2,0-4.4,0-7.1
			c0-1.4,0-2.9,0-4.5c0-0.8,0-1.6,0-2.4c-0.1-0.8-0.5-1.6-1.1-2.1c-0.6-0.6-1.4-0.9-2.3-1c-0.9,0-1.8,0-2.8,0c-1.9,0-3.9,0-6,0
			c-4.1,0-8.5,0-13.2,0c-9.3,0-19.5,0-30.2,0c-1.2,0-2.5,0.7-3.1,1.8c-0.3,0.5-0.5,1.1-0.5,1.8v2c0,2.6,0,5.2,0,7.7
			c0,1.3,0,2.5,0,3.8c-0.1,1.2,0.4,2.3,1.3,3c0.5,0.4,1,0.6,1.5,0.7c0.5,0.1,1.2,0,1.7,0.1c1.2,0,2.4,0,3.5,0c9.3,0,17.6,0,24.6,0.1
			c7,0,12.7,0.1,16.6,0.1c1.9,0,3.5,0,4.5,0c0.5,0,0.9,0,1.2,0C669.8,339.1,669.9,339.2,669.9,339.1c0,0-0.1,0-0.4,0
			c-0.3,0-0.7,0-1.2,0c-1.1,0-2.6,0-4.5,0c-4,0-9.6,0-16.6,0.1c-7,0-15.4,0-24.6,0.1c-1.2,0-2.3,0-3.5,0c-0.6,0-1.2,0-1.8-0.1
			c-0.6-0.1-1.2-0.4-1.7-0.8c-1-0.8-1.6-2.1-1.5-3.4c0-1.2,0-2.5,0-3.8c0-2.5,0-5.1,0-7.7v-2c0-0.7,0.2-1.4,0.5-2
			c0.7-1.2,2.1-2,3.5-2c10.7,0,20.9,0,30.2,0c4.6,0,9,0,13.2,0c2.1,0,4,0,6,0c1,0,1.9,0,2.8,0c1,0,1.9,0.5,2.5,1.1
			c0.7,0.6,1.1,1.5,1.2,2.4c0.1,0.9,0,1.7,0,2.5c0,1.6,0,3.1,0,4.5c0,2.8,0,5.2,0,7.1c0,1-0.3,1.9-0.8,2.5c-0.5,0.6-1,1-1.5,1.2
			c-0.5,0.2-0.9,0.2-1.2,0.3C670.1,339.2,669.9,339.2,669.9,339.1L669.9,339.1z"/>
		<g>
			<path class="st1" d="M681.3,85.8c0,0,0.6,0,1.5-0.4c0.5-0.2,1-0.6,1.4-1.2c0.5-0.6,0.8-1.4,0.7-2.4c0-2,0-4.4,0-7.1
				c0-1.4,0-2.9,0-4.5c0-0.8,0-1.6,0-2.4c-0.1-0.8-0.5-1.6-1.1-2.1c-0.6-0.6-1.4-0.9-2.3-1h-2.8c-1.9,0-3.9,0-6,0
				c-4.1,0-8.5,0-13.2,0c-9.3,0-19.5,0-30.2,0c-1.2,0-2.5,0.7-3.1,1.8c-0.3,0.5-0.5,1.2-0.5,1.8c0,0.7,0,1.3,0,2c0,2.6,0,5.2,0,7.7
				c0,1.3,0,2.5,0,3.8c-0.1,1.2,0.4,2.3,1.3,3c0.5,0.3,1,0.6,1.5,0.7c0.5,0.1,1.2,0.1,1.7,0.1c1.2,0,2.4,0,3.5,0
				c9.3,0,17.6,0,24.6,0.1c7,0,12.7,0.1,16.6,0.1c1.9,0,3.5,0,4.5,0.1c0.5,0,0.9,0,1.2,0C681.2,85.7,681.3,85.8,681.3,85.8
				c0,0-0.1,0-0.4,0c-0.3,0-0.7,0-1.2,0c-1.1,0-2.6,0-4.5,0.1c-4,0-9.6,0.1-16.6,0.1c-7,0-15.4,0-24.6,0.1c-1.2,0-2.3,0-3.5,0
				c-0.6,0-1.2,0-1.8-0.1c-0.6-0.1-1.2-0.4-1.7-0.8c-1-0.8-1.6-2.1-1.5-3.4c0-1.2,0-2.5,0-3.8c0-2.5,0-5.1,0-7.7c0-0.7,0-1.3,0-2
				c0-0.7,0.2-1.4,0.5-2c0.7-1.2,2.1-2.1,3.5-2.1c10.7,0,20.9,0,30.2,0c4.6,0,9,0,13.2,0c2.1,0,4,0,6,0c1,0,1.9,0,2.8,0
				c1,0,1.9,0.4,2.5,1.1s1.1,1.5,1.2,2.3c0.1,0.9,0,1.7,0,2.5c0,1.6,0,3.1,0,4.5c0,2.8,0,5.2,0,7.1c0,1-0.3,1.9-0.8,2.5
				c-0.5,0.6-1,1-1.5,1.2c-0.5,0.2-0.9,0.2-1.2,0.3C681.5,85.7,681.3,85.7,681.3,85.8L681.3,85.8z"/>
			<path class="st1" d="M659.9,107.2c0,0,0.6,0,1.5-0.4c0.5-0.2,1-0.6,1.4-1.2c0.5-0.6,0.8-1.4,0.7-2.4c0-2,0-4.4,0-7.1
				c0-1.4,0-2.9,0-4.5c0-0.8,0-1.6,0-2.4c-0.1-0.8-0.5-1.6-1.1-2.1c-0.6-0.6-1.4-0.9-2.3-1c-0.9,0-1.8,0-2.8,0c-1.9,0-3.9,0-6,0
				c-4.1,0-8.5,0-13.2,0c-9.3,0-19.5,0-30.2,0c-1.2,0-2.5,0.7-3.1,1.8c-0.3,0.5-0.5,1.2-0.5,1.8v2c0,2.6,0,5.2,0,7.7
				c0,1.3,0,2.5,0,3.8c-0.1,1.2,0.4,2.3,1.3,3c0.5,0.3,1,0.6,1.5,0.7c0.5,0.1,1.2,0.1,1.7,0.1c1.2,0,2.4,0,3.5,0
				c9.3,0,17.6,0,24.6,0.1c7,0,12.7,0.1,16.6,0.1c1.9,0,3.5,0,4.5,0.1c0.5,0,0.9,0,1.2,0C659.8,107.1,659.9,107.2,659.9,107.2
				c0,0-0.1,0-0.4,0c-0.3,0-0.7,0-1.2,0c-1.1,0-2.6,0-4.5,0.1c-4,0-9.6,0.1-16.6,0.1c-7,0-15.4,0-24.6,0.1c-1.2,0-2.3,0-3.5,0
				c-0.6,0-1.2,0-1.8-0.1c-0.6-0.1-1.2-0.4-1.7-0.8c-1-0.8-1.6-2.1-1.5-3.4c0-1.2,0-2.5,0-3.8c0-2.5,0-5.1,0-7.7c0-0.7,0-1.3,0-2
				c0-0.7,0.2-1.4,0.5-2c0.7-1.2,2.1-2.1,3.5-2.1c10.7,0,20.9,0,30.2,0c4.6,0,9,0,13.2,0c2.1,0,4,0,6,0c1,0,1.9,0,2.8,0
				c1,0,1.9,0.4,2.5,1.1s1.1,1.5,1.2,2.3c0.1,0.9,0,1.7,0,2.5c0,1.6,0,3.1,0,4.5c0,2.8,0,5.2,0,7.1c0,1-0.3,1.9-0.8,2.5
				c-0.5,0.6-1,1-1.5,1.2c-0.5,0.2-0.9,0.2-1.2,0.3C660.1,107.2,659.9,107.2,659.9,107.2L659.9,107.2z"/>
		</g>
		<path class="st1" d="M246.3,224.6c0,0,0.6,0,1.5-0.4c0.4-0.2,1-0.6,1.4-1.2c0.4-0.6,0.8-1.4,0.7-2.4c0-2,0-4.4,0-7.1
			c0-1.4,0-2.9,0-4.4c0-0.8,0-1.6,0-2.4c-0.1-0.8-0.4-1.6-1-2.1s-1.4-1-2.3-1c-0.9,0-1.8,0-2.8,0c-1.9,0-3.9,0-5.9,0
			c-4.1,0-8.5,0-13.1,0c-9.2,0-19.4,0-30,0c-1.2,0-2.5,0.7-3.1,1.8c-0.3,0.5-0.5,1.1-0.5,1.8c0,0.6,0,1.3,0,1.9c0,2.6,0,5.1,0,7.7
			c0,1.3,0,2.5,0,3.7c-0.1,1.2,0.4,2.3,1.3,3.1c0.4,0.4,0.9,0.6,1.5,0.7c0.5,0.1,1.1,0.1,1.7,0.1c1.2,0,2.4,0,3.5,0
			c9.2,0,17.5,0,24.5,0.1c7,0,12.6,0.1,16.5,0.1c1.9,0,3.4,0,4.5,0.1c0.5,0,0.9,0,1.2,0C246.2,224.6,246.3,224.6,246.3,224.6
			c0,0-0.1,0-0.4,0.1c-0.3,0-0.7,0-1.2,0c-1.1,0-2.6,0-4.5,0.1c-3.9,0-9.6,0.1-16.5,0.1c-7,0-15.3,0-24.5,0.1c-1.1,0-2.3,0-3.5,0
			c-0.6,0-1.2,0.1-1.8-0.1c-0.6-0.1-1.2-0.4-1.7-0.8c-0.5-0.4-0.9-0.9-1.1-1.6c-0.3-0.6-0.3-1.3-0.3-1.9c0-1.2,0-2.5,0-3.7
			c0-2.5,0-5.1,0-7.7v-1.9c0-0.7,0.2-1.4,0.5-2c0.7-1.2,2.1-2,3.5-2c10.6,0,20.8,0,30,0c4.6,0,9,0,13.1,0c2.1,0,4,0,5.9,0
			c1,0,1.9,0,2.8,0c1,0.1,1.9,0.5,2.5,1.2c0.6,0.6,1,1.5,1.1,2.4c0.1,0.9,0,1.6,0,2.4c0,1.6,0,3.1,0,4.4c0,2.8,0,5.1,0,7.1
			c0,1-0.3,1.9-0.8,2.5c-0.5,0.6-1,1-1.5,1.2c-0.5,0.2-0.9,0.2-1.1,0.3C246.4,224.6,246.3,224.6,246.3,224.6L246.3,224.6z"/>
		<path class="st1" d="M225.9,246c0,0,0.5,0,1.4-0.3c0.4-0.2,0.9-0.5,1.4-1c0.4-0.5,0.8-1.2,0.9-2.1c0-1.7,0-3.9,0-6.4
			c0-1.2,0-2.6,0-4c0-0.7,0-1.4,0-2.2c0-0.7,0.1-1.5-0.1-2.3c-0.3-1.5-1.7-2.8-3.3-2.8c-1.7,0-3.5,0-5.4,0c-3.7,0-7.7,0-11.8,0
			c-8.3,0-17.5,0-27.1,0c-1.1,0-2.2,0.6-2.9,1.5c-0.3,0.4-0.5,1-0.6,1.5c-0.1,0.5,0,1.1-0.1,1.7c0,2.3,0,4.6,0,6.9
			c0,1.1,0,2.3,0,3.4c0,0.6,0,1.1,0,1.7c0,0.6,0,1.1,0.1,1.6c0.3,1,1,1.8,1.9,2.2c0.4,0.2,0.9,0.3,1.4,0.3c0.5,0,1.1,0,1.6,0
			c8.3,0,15.8,0,22.1,0.1c6.3,0,11.4,0.1,14.9,0.1c1.7,0,3.1,0,4.1,0.1c0.4,0,0.8,0,1.1,0C225.8,245.9,225.9,246,225.9,246
			c0,0-0.1,0-0.4,0c-0.3,0-0.6,0-1.1,0c-1,0-2.3,0-4.1,0.1c-3.6,0-8.6,0.1-14.9,0.1c-6.3,0-13.8,0-22.1,0.1c-0.5,0-1.1,0-1.6,0
			c-0.6,0-1.1-0.1-1.6-0.4c-1-0.5-1.9-1.4-2.2-2.5c-0.2-0.6-0.2-1.2-0.2-1.7c0-0.6,0-1.1,0-1.7c0-1.1,0-2.2,0-3.4c0-2.3,0-4.6,0-6.9
			c0-0.6,0-1.2,0.1-1.8c0.1-0.6,0.3-1.2,0.7-1.7c0.7-1,2-1.7,3.3-1.7c9.6,0,18.8,0,27.1,0c4.2,0,8.1,0,11.8,0c1.9,0,3.6,0,5.4,0
			c1.8,0.1,3.4,1.5,3.6,3.2c0.1,0.8,0.1,1.6,0.1,2.3c0,0.8,0,1.5,0,2.2c0,1.4,0,2.8,0,4c0,2.5,0,4.6-0.1,6.4c-0.1,0.9-0.5,1.6-1,2.1
			c-0.5,0.5-1,0.8-1.4,1c-0.4,0.2-0.8,0.2-1,0.2C226,246,225.9,246,225.9,246L225.9,246z"/>
		<g>
			<path class="st1" d="M376.6,92.1c0,0,0.6,0,1.5-0.4c0.5-0.2,1-0.6,1.4-1.2c0.5-0.6,0.8-1.4,0.7-2.4c0-2,0-4.4,0-7.1
				c0-1.4,0-2.9,0-4.5c0-0.8,0-1.6,0-2.4c-0.1-0.8-0.5-1.6-1.1-2.1c-0.6-0.6-1.4-0.9-2.3-1c-0.9,0-1.9,0-2.8,0c-1.9,0-3.9,0-6,0
				c-4.1,0-8.5,0-13.2,0c-9.3,0-19.5,0-30.2,0c-1.2,0-2.5,0.7-3.1,1.8c-0.3,0.5-0.5,1.2-0.5,1.8c0,0.7,0,1.3,0,2c0,2.6,0,5.2,0,7.7
				c0,1.3,0,2.5,0,3.8c-0.1,1.2,0.4,2.3,1.3,3c0.5,0.3,1,0.6,1.5,0.7c0.5,0.1,1.1,0.1,1.7,0.1c1.2,0,2.4,0,3.5,0
				c9.3,0,17.6,0,24.6,0.1c7,0,12.7,0.1,16.6,0.1c1.9,0,3.5,0,4.5,0.1c0.5,0,0.9,0,1.2,0C376.5,92.1,376.7,92.1,376.6,92.1
				c0,0-0.1,0-0.4,0c-0.3,0-0.7,0-1.2,0c-1.1,0-2.6,0-4.5,0.1c-4,0-9.6,0.1-16.6,0.1c-7,0-15.4,0-24.6,0.1c-1.2,0-2.3,0-3.5,0
				c-0.6,0-1.2,0-1.8-0.1c-0.6-0.1-1.2-0.4-1.7-0.8c-1-0.8-1.6-2.1-1.5-3.4c0-1.2,0-2.5,0-3.8c0-2.5,0-5.1,0-7.7c0-0.7,0-1.3,0-2
				c0-0.7,0.2-1.4,0.5-2c0.7-1.2,2.1-2.1,3.5-2.1c10.7,0,20.9,0,30.2,0c4.6,0,9,0,13.2,0c2.1,0,4,0,6,0c1,0,1.9,0,2.8,0
				c1,0,1.9,0.4,2.5,1.1s1.1,1.5,1.2,2.3c0.1,0.9,0,1.7,0,2.5c0,1.6,0,3.1,0,4.5c0,2.8,0,5.2,0,7.1c0,1-0.3,1.9-0.8,2.5
				c-0.5,0.6-1,1-1.5,1.2c-0.5,0.2-0.9,0.2-1.1,0.3C376.8,92.1,376.7,92.1,376.6,92.1L376.6,92.1z"/>
			<path class="st1" d="M355.3,113.5c0,0,0.6,0,1.5-0.4c0.5-0.2,1-0.6,1.4-1.2c0.5-0.6,0.8-1.4,0.7-2.4c0-2,0-4.4,0-7.1
				c0-1.4,0-2.9,0-4.5c0-0.8,0-1.6,0-2.4c-0.1-0.8-0.5-1.6-1.1-2.1c-0.6-0.6-1.4-0.9-2.3-1c-0.9,0-1.9,0-2.8,0c-1.9,0-3.9,0-6,0
				c-4.1,0-8.5,0-13.2,0c-9.3,0-19.5,0-30.2,0c-1.2,0-2.5,0.7-3.1,1.8c-0.3,0.5-0.5,1.2-0.5,1.8c0,0.7,0,1.3,0,2c0,2.6,0,5.2,0,7.7
				c0,1.3,0,2.5,0,3.8c-0.1,1.2,0.4,2.3,1.3,3c0.5,0.3,1,0.6,1.5,0.7c0.5,0.1,1.1,0.1,1.7,0.1c1.2,0,2.4,0,3.5,0
				c9.3,0,17.6,0,24.6,0.1c7,0,12.7,0.1,16.6,0.1c1.9,0,3.5,0,4.5,0.1c0.5,0,0.9,0,1.2,0C355.1,113.5,355.3,113.5,355.3,113.5
				c0,0-0.1,0-0.4,0c-0.3,0-0.7,0-1.2,0c-1.1,0-2.6,0-4.5,0.1c-4,0-9.6,0.1-16.6,0.1c-7,0-15.4,0-24.6,0.1c-1.2,0-2.3,0-3.5,0
				c-0.6,0-1.2,0-1.8-0.1c-0.6-0.1-1.2-0.4-1.7-0.8c-1-0.8-1.6-2.1-1.5-3.4c0-1.2,0-2.5,0-3.8c0-2.5,0-5.1,0-7.7c0-0.7,0-1.3,0-2
				c0-0.7,0.2-1.4,0.5-2c0.7-1.2,2.1-2.1,3.5-2.1c10.7,0,20.9,0,30.2,0c4.6,0,9,0,13.2,0c2.1,0,4,0,6,0c1,0,1.9,0,2.8,0
				c1,0,1.9,0.4,2.5,1.1s1.1,1.5,1.2,2.3c0.1,0.9,0,1.7,0,2.5c0,1.6,0,3.1,0,4.5c0,2.8,0,5.2,0,7.1c0,1-0.3,1.9-0.8,2.5
				c-0.5,0.6-1,1-1.5,1.2c-0.5,0.2-0.9,0.2-1.1,0.3C355.4,113.5,355.3,113.5,355.3,113.5L355.3,113.5z"/>
		</g>
		<path class="st1" d="M140.6,94.3c0,0,0.6,0,1.5-0.4c0.5-0.2,1-0.6,1.4-1.2c0.4-0.6,0.8-1.4,0.7-2.4c0-2,0-4.4,0-7.1
			c0-1.4,0-2.9,0-4.5c0-0.8,0-1.6,0-2.4c-0.1-0.8-0.5-1.6-1.1-2.1c-0.6-0.6-1.4-0.9-2.3-1c-0.9,0-1.9,0-2.8,0c-1.9,0-3.9,0-6,0
			c-4.1,0-8.5,0-13.2,0c-9.3,0-19.5,0-30.2,0c-1.2,0-2.5,0.7-3.1,1.8c-0.3,0.5-0.5,1.2-0.5,1.8c0,0.7,0,1.3,0,2c0,2.6,0,5.2,0,7.7
			c0,1.3,0,2.5,0,3.8c-0.1,1.2,0.4,2.3,1.3,3c0.4,0.3,1,0.6,1.5,0.7c0.5,0.1,1.2,0.1,1.7,0.1c1.2,0,2.4,0,3.5,0
			c9.3,0,17.6,0,24.6,0.1c7,0,12.7,0.1,16.6,0.1c1.9,0,3.4,0,4.5,0.1c0.5,0,0.9,0,1.2,0C140.5,94.3,140.7,94.3,140.6,94.3
			c0,0-0.1,0-0.4,0c-0.3,0-0.7,0-1.2,0c-1.1,0-2.6,0-4.5,0.1c-3.9,0-9.6,0.1-16.6,0.1c-7,0-15.4,0-24.6,0.1c-1.2,0-2.3,0-3.5,0
			c-0.6,0-1.2,0-1.8-0.1c-0.6-0.1-1.2-0.4-1.7-0.8c-1-0.8-1.6-2.1-1.5-3.4c0-1.2,0-2.5,0-3.8c0-2.5,0-5.1,0-7.7c0-0.7,0-1.3,0-2
			c0-0.7,0.2-1.4,0.5-2c0.7-1.2,2.1-2.1,3.5-2.1c10.7,0,20.9,0,30.2,0c4.6,0,9,0,13.2,0c2.1,0,4.1,0,6,0c1,0,1.9,0,2.8,0
			c1,0,1.9,0.4,2.5,1.1c0.7,0.6,1.1,1.5,1.2,2.3c0.1,0.9,0,1.7,0,2.5c0,1.6,0,3.1,0,4.5c0,2.8,0,5.2,0,7.1c0,1-0.3,1.9-0.8,2.5
			c-0.5,0.6-1,1-1.5,1.2c-0.5,0.2-0.9,0.2-1.1,0.3C140.8,94.3,140.7,94.3,140.6,94.3L140.6,94.3z"/>
	</g>
</g>
<g id="Plant">
	<g>
		<path class="st2" d="M99.9,302c3.2,1.4,5.6,4.4,6.8,7.6s1.3,6.9,0.9,10.4c-0.8,6.7-4.9,14.7-9,20.1c-5.7-4.9-6.7-14.8-7.1-19.2
			C90.9,314,94.1,301,99.9,302"/>
		<path class="st2" d="M101.7,348c-1.4-3.6,0.5-7.6,3.1-10.5s6.4-4.6,10.3-4.8c1.8-0.1,3.8,0.2,5,1.5c1.1,1.2,1.3,3.2,0.7,4.8
			c-0.6,1.6-1.8,2.9-3.1,4c-4.4,3.7-9.8,6-15.5,5.1"/>
		<path class="st2" d="M95.9,352.4c0-8.6-7-15.9-14.4-19.4c-1.9-0.9-4.4-1.5-5.9-0.1s-1.2,3.9-0.4,5.9
			C78.3,346.9,87.2,352.5,95.9,352.4"/>
		<path class="st1" d="M98.6,356.7c-0.1,0-0.8-1.2-2-3s-3-4.3-5.3-6.8c-2.3-2.5-4.6-4.5-6.3-5.9c-1.7-1.4-2.9-2.1-2.8-2.2
			c0,0,0.3,0.1,0.9,0.5s1.3,0.8,2.2,1.5c1.8,1.3,4.2,3.3,6.5,5.8c2.3,2.5,4.1,5,5.2,7c0.6,1,1,1.8,1.3,2.3S98.6,356.7,98.6,356.7
			L98.6,356.7z"/>
		<path class="st1" d="M99.6,317.8c0,0,0,0.6,0,1.7c-0.1,1.2-0.2,2.8-0.3,4.7c-0.2,4-0.4,9.4-0.5,15.4c0,6,0,11.4,0,15.5
			c0,2,0,3.6-0.1,4.7c0,1.1-0.1,1.7-0.1,1.7s-0.1-0.6-0.1-1.7c0-1.2-0.1-2.8-0.1-4.7c-0.1-4-0.2-9.4-0.1-15.5c0-6,0.3-11.5,0.6-15.5
			c0.2-2,0.3-3.6,0.4-4.7C99.4,318.5,99.5,317.8,99.6,317.8L99.6,317.8z"/>
		<path class="st1" d="M112.9,338.6c0,0.1-1.1,0.5-2.8,1.6c-0.8,0.5-1.8,1.2-2.8,2c-1,0.9-2,1.8-3,3c-2,2.2-3.5,4.5-4.4,6.3
			c-0.9,1.7-1.3,2.9-1.4,2.9c0,0,0-0.3,0.2-0.8c0.2-0.5,0.4-1.3,0.9-2.2c0.8-1.8,2.3-4.2,4.3-6.5c1-1.1,2.1-2.1,3.1-3
			c1.1-0.8,2-1.5,2.9-2c0.4-0.3,0.8-0.5,1.2-0.6c0.4-0.2,0.7-0.3,0.9-0.4C112.6,338.7,112.9,338.6,112.9,338.6L112.9,338.6z"/>
	</g>
</g>
<g id="Hole">
	<g>
		<path class="st3" d="M560,331.1L560,331.1c-7.6,0-13.9,6.2-13.9,13.9v16.7h27.3v-17.2C573.3,337.1,567.4,331.1,560,331.1
			L560,331.1z"/>
		<path class="st1" d="M563.3,331.4c-6.4,1.3-11.2,7.8-11.2,15.6v14.3h22.5V347C574.5,339.2,569.7,332.7,563.3,331.4L563.3,331.4z"
			/>
	</g>
</g>
<g id="Grille">
	<g>
		<rect x="33" y="204.3" class="st0" width="121.1" height="87.5"/>
		<polygon class="st1" points="55.2,284.1 45.2,284.3 45.2,214.4 55.2,214.4 		"/>
		<rect x="66.9" y="214.7" class="st1" width="9.9" height="69.2"/>
		<rect x="88.6" y="214.7" class="st1" width="9.9" height="69.2"/>
		<rect x="110.3" y="214.7" class="st1" width="9.9" height="69.2"/>
		<polygon class="st1" points="141.9,284.3 132,284.1 132,214.2 141.9,214.2 		"/>
		<g>
			<g>
				<path class="st0" d="M41.3,211.2c0,1.8-1.5,3.3-3.3,3.3s-3.3-1.5-3.3-3.3s1.5-3.3,3.3-3.3S41.3,209.4,41.3,211.2z"/>
				<path class="st1" d="M41.3,211.2c-0.1,0-0.1-0.3-0.2-0.8s-0.5-1.1-1.2-1.6c-0.7-0.5-1.8-0.8-2.8-0.4c-1,0.4-1.9,1.5-1.9,2.8
					c0,1.3,0.9,2.4,1.9,2.8c1,0.4,2.1,0.1,2.8-0.4c0.7-0.5,1-1.2,1.2-1.6C41.2,211.5,41.2,211.2,41.3,211.2c0,0,0.1,0.3,0,0.8
					c-0.1,0.5-0.4,1.3-1.2,2c-0.8,0.6-2.1,1-3.4,0.6c-1.3-0.4-2.4-1.8-2.4-3.4c0-1.6,1.1-3,2.4-3.4c1.3-0.5,2.6-0.1,3.4,0.6
					c0.8,0.6,1.1,1.4,1.2,2C41.4,210.9,41.3,211.2,41.3,211.2L41.3,211.2z"/>
			</g>
			<path class="st1" d="M40,209.3c0.1,0.2-0.6,1-1.5,1.9c-0.9,0.9-1.7,1.6-1.9,1.5c-0.2-0.1,0.4-1.1,1.4-2
				C39,209.7,39.9,209.2,40,209.3L40,209.3z"/>
			<path class="st1" d="M40.3,212.3c-0.1,0.2-1.1-0.2-2.3-0.9c-1.1-0.7-1.9-1.6-1.8-1.7s1.1,0.4,2.2,1.1
				C39.6,211.5,40.4,212.1,40.3,212.3L40.3,212.3z"/>
		</g>
		<g>
			<g>
				<path class="st0" d="M152.8,285.5c0,1.8-1.5,3.3-3.3,3.3s-3.3-1.5-3.3-3.3s1.5-3.3,3.3-3.3C151.4,282.2,152.8,283.7,152.8,285.5
					z"/>
				<path class="st1" d="M152.8,285.5c-0.1,0-0.1-0.3-0.2-0.8c-0.2-0.5-0.5-1.1-1.2-1.6c-0.7-0.5-1.8-0.8-2.8-0.4
					c-1,0.4-1.9,1.5-1.9,2.8c0,1.3,0.9,2.4,1.9,2.8c1,0.4,2.1,0.1,2.8-0.4c0.7-0.5,1.1-1.2,1.2-1.6
					C152.7,285.8,152.8,285.5,152.8,285.5c0,0,0.1,0.3,0,0.8c-0.1,0.5-0.4,1.3-1.2,2c-0.8,0.6-2.1,1-3.4,0.6
					c-1.3-0.4-2.4-1.8-2.4-3.4c0-1.6,1.1-3,2.4-3.4c1.3-0.5,2.6-0.1,3.4,0.6c0.8,0.6,1.1,1.5,1.2,2
					C152.9,285.2,152.9,285.5,152.8,285.5L152.8,285.5z"/>
			</g>
			<path class="st1" d="M151.5,283.6c0.1,0.2-0.6,1-1.5,1.9c-0.9,0.9-1.7,1.6-1.9,1.5c-0.1-0.1,0.4-1.1,1.4-2
				C150.5,284,151.4,283.5,151.5,283.6L151.5,283.6z"/>
			<path class="st1" d="M151.9,286.6c-0.1,0.2-1.1-0.2-2.3-0.9c-1.1-0.7-1.9-1.5-1.8-1.7c0.1-0.2,1.1,0.4,2.2,1.1
				C151.1,285.8,152,286.5,151.9,286.6L151.9,286.6z"/>
		</g>
		<g>
			<g>
				<path class="st0" d="M152.8,210.4c0,1.8-1.5,3.3-3.3,3.3s-3.3-1.5-3.3-3.3s1.5-3.3,3.3-3.3C151.4,207.2,152.8,208.6,152.8,210.4
					z"/>
				<path class="st1" d="M152.8,210.4c-0.1,0-0.1-0.3-0.2-0.8s-0.5-1.1-1.2-1.6c-0.7-0.5-1.8-0.8-2.8-0.4c-1,0.4-1.9,1.5-1.9,2.8
					c0,1.3,0.9,2.4,1.9,2.8c1,0.4,2.1,0.1,2.8-0.4c0.7-0.5,1.1-1.2,1.2-1.6C152.7,210.8,152.8,210.5,152.8,210.4c0,0,0.1,0.3,0,0.8
					c-0.1,0.5-0.4,1.3-1.2,2c-0.8,0.6-2.1,1-3.4,0.6c-1.3-0.4-2.4-1.8-2.4-3.4c0-1.6,1.1-3,2.4-3.4c1.3-0.5,2.6-0.1,3.4,0.6
					c0.8,0.6,1.1,1.4,1.2,2C152.9,210.2,152.9,210.5,152.8,210.4L152.8,210.4z"/>
			</g>
			<path class="st1" d="M151.5,208.6c0.1,0.2-0.6,1-1.5,1.9c-0.9,0.9-1.7,1.6-1.9,1.5c-0.1-0.1,0.4-1.1,1.4-2
				C150.5,209,151.4,208.4,151.5,208.6L151.5,208.6z"/>
			<path class="st1" d="M151.9,211.6c-0.1,0.2-1.1-0.2-2.3-0.9c-1.1-0.7-1.9-1.6-1.8-1.7c0.1-0.2,1.1,0.4,2.2,1.1
				C151.1,210.8,152,211.4,151.9,211.6L151.9,211.6z"/>
		</g>
		<g>
			<g>
				<path class="st0" d="M42.6,286.1c0,1.8-1.5,3.3-3.3,3.3s-3.3-1.5-3.3-3.3s1.5-3.3,3.3-3.3C41.2,282.9,42.6,284.3,42.6,286.1z"/>
				<path class="st1" d="M42.6,286.1c-0.1,0-0.1-0.3-0.2-0.8c-0.2-0.5-0.5-1.1-1.2-1.6c-0.7-0.5-1.8-0.8-2.8-0.4
					c-1,0.4-1.9,1.5-1.9,2.8c0,1.3,0.9,2.4,1.9,2.8c1,0.4,2.1,0.1,2.8-0.4c0.7-0.5,1-1.2,1.2-1.6C42.5,286.4,42.6,286.1,42.6,286.1
					c0,0,0.1,0.3,0,0.8c-0.1,0.5-0.4,1.3-1.2,2c-0.8,0.6-2.1,1-3.4,0.6c-1.3-0.4-2.4-1.8-2.4-3.4c0-1.6,1.1-3,2.4-3.4
					c1.3-0.5,2.6-0.1,3.4,0.6c0.8,0.6,1.1,1.5,1.2,2C42.7,285.9,42.7,286.1,42.6,286.1L42.6,286.1z"/>
			</g>
			<path class="st1" d="M41.3,284.3c0.1,0.2-0.6,1-1.5,1.9c-0.9,0.9-1.7,1.6-1.9,1.5c-0.2-0.1,0.4-1.1,1.4-2
				C40.3,284.7,41.2,284.1,41.3,284.3L41.3,284.3z"/>
			<path class="st1" d="M41.7,287.3c-0.1,0.2-1.1-0.2-2.3-0.9s-1.9-1.5-1.8-1.7c0.1-0.2,1.1,0.4,2.2,1.1
				C40.9,286.5,41.8,287.1,41.7,287.3L41.7,287.3z"/>
		</g>
		<path class="st1" d="M144,214.4c0,0.2-22.5,0.4-50.3,0.4s-50.3-0.2-50.3-0.4s22.5-0.4,50.3-0.4S144,214.2,144,214.4z"/>
		<path class="st1" d="M144,284.3c0,0.2-22.5,0.4-50.3,0.4s-50.3-0.2-50.3-0.4s22.5-0.4,50.3-0.4C121.5,283.9,144,284.1,144,284.3z"
			/>
	</g>
</g>
<g id="Character">
	<g>
		<ellipse class="st1" cx="323" cy="396.4" rx="171.4" ry="20.8"/>
		<g>
			<path class="st4" d="M398.3,320.8c0.6,1.1,46.4,59.5,46.4,59.5l60,36l-13.6,14.3c0,0-65.1-16.2-72.2-24.1s-34.8-39.1-34.8-39.1
				L398.3,320.8L398.3,320.8z"/>
			<path class="st5" d="M428.8,395.8c0,0,0-0.3,0.2-0.8c0.1-0.5,0.4-1.1,0.8-1.9c0.8-1.6,2.2-3.6,4.2-5.4c2-1.8,4.3-2.9,5.9-3.5
				c0.8-0.3,1.5-0.5,2-0.5c0.5-0.1,0.8-0.1,0.8-0.1c0,0.1-1,0.3-2.6,0.9c-1.6,0.6-3.7,1.8-5.7,3.5c-2,1.7-3.4,3.7-4.2,5.2
				C429.2,394.8,428.9,395.9,428.8,395.8L428.8,395.8z"/>
			<g>
				<path class="st4" d="M524.6,422.3l17.2,10.6c0.8,0.5,1.5,1.2,2,2l6.4,10.8c1.4,2.6-1.2,5.7-4,4.5c0,0-0.1,0-0.1,0
					c0,0-4.6,1.5-7.3-0.4c-2.7-1.9-8.1-10.4-8.1-10.4l-4.8-0.6l5.6,11.1c0,0-4.4,1.5-7.3-1s-7.4-9.6-7.4-9.6l-8-2.1
					c0,0-4.1,2.4-11.1,0.8c0,0,0.1,9.3-6.2,12.1c-2.9,1.3-2.7-3.3-2.7-3.3l0.9-7.1c-0.1-0.6-0.8-2.5-0.7-3.1l3.3-13.2l9-8.5
					L524.6,422.3L524.6,422.3z"/>
				<path class="st5" d="M526.6,436.7c0,0,0.4,0.2,1.1,0.6c0.8,0.5,1.8,1.1,3.1,2h0l0,0c1.4,1.8,3.2,4.3,5.3,7
					c0.5,0.7,1.1,1.4,1.7,2.1c0.6,0.7,1.2,1.5,2.1,1.8c0.9,0.4,1.9,0.4,2.9,0.3c1-0.1,2.1-0.3,3-0.7l-0.1,0.4
					c-0.5-1-1.1-2.1-1.7-3.2c-2.1-3.9-4.1-7.7-5.8-11l0.1,0.1c-4.2-2.6-7.8-4.9-10.4-6.5c-1.2-0.8-2.2-1.4-2.9-1.9
					c-0.7-0.4-1-0.7-1-0.7s0.4,0.2,1.1,0.6c0.8,0.4,1.8,1,3,1.8c2.6,1.6,6.2,3.8,10.5,6.3l0,0l0,0.1c1.8,3.3,3.8,7,5.9,11
					c0.6,1.1,1.2,2.2,1.7,3.2l0.1,0.3l-0.3,0.1c-1.1,0.4-2.1,0.6-3.2,0.7c-1.1,0.1-2.2,0-3.1-0.4c-0.2-0.1-0.5-0.2-0.7-0.4
					c-0.2-0.2-0.4-0.3-0.6-0.5c-0.3-0.4-0.7-0.7-1-1.1c-0.6-0.7-1.2-1.5-1.7-2.1c-2.2-2.8-3.9-5.3-5.2-7.1l0,0
					c-1.3-0.9-2.3-1.6-3-2.1C526.9,437,526.5,436.7,526.6,436.7L526.6,436.7z"/>
				<path class="st5" d="M507.2,436.7c0,0,0.2,0,0.7,0.1c0.5,0.1,1.1,0.3,1.9,0.5c1.7,0.5,4.1,1.1,7,1.8l0.1,0l0,0.1
					c1.2,2,2.7,4.4,4.6,6.7c1,1.1,2,2.3,3.3,3.2c1.3,0.8,3,1.3,4.6,1.1c0.7-0.1,1.3-0.3,1.8-0.5l-0.1,0.3
					c-2.9-5.5-5.5-10.6-7.5-14.5l0,0.1c-2.3-1.8-4.1-3.2-5.5-4.3c-0.6-0.5-1.1-0.9-1.5-1.2c-0.3-0.3-0.5-0.4-0.5-0.5
					c0,0,0.2,0.1,0.6,0.4c0.4,0.3,0.9,0.6,1.5,1.1c1.4,1,3.3,2.4,5.6,4.1l0,0l0,0c2,3.9,4.7,8.9,7.6,14.5l0.1,0.2l-0.2,0.1
					c-0.7,0.4-1.3,0.5-2,0.6c-1.8,0.2-3.5-0.3-5-1.2c-1.4-0.9-2.5-2.1-3.4-3.3c-1.9-2.4-3.4-4.7-4.6-6.8l0.1,0.1
					c-2.9-0.8-5.3-1.5-7-2c-0.8-0.2-1.4-0.4-1.9-0.6C507.5,436.8,507.3,436.7,507.2,436.7L507.2,436.7z"/>
				<path class="st5" d="M489.9,450.1c0-0.1,0.3,0.1,0.8,0.1c0.5,0,1.3-0.2,2-0.8c0.7-0.6,1.5-1.5,2.2-2.5c0.3-0.5,0.7-1.1,1-1.7
					c0.3-0.6,0.6-1.2,0.8-1.9c0.6-2.1,0.9-4.3,1-6v-0.1l0.1-0.1c1.1-0.8,2.1-1.4,2.8-1.8c0.7-0.4,1.1-0.6,1.1-0.6s-0.3,0.3-0.9,0.8
					s-1.5,1.2-2.6,2l0.1-0.2c-0.1,1.7-0.3,3.9-0.9,6.1c-0.2,0.7-0.5,1.4-0.9,2c-0.4,0.6-0.7,1.2-1.1,1.7c-0.7,1.1-1.5,2-2.3,2.5
					c-0.8,0.6-1.7,0.7-2.2,0.6c-0.3,0-0.5-0.1-0.6-0.2C490,450.1,489.9,450.1,489.9,450.1L489.9,450.1z"/>
				<path class="st5" d="M493.9,423c0.1,0.1-1.3,1.7-2.3,4c-1,2.4-1.2,4.5-1.3,4.5c-0.1,0-0.2-2.2,0.9-4.7
					C492.1,424.4,493.8,422.9,493.9,423L493.9,423z"/>
			</g>
		</g>
		<g>
			<path class="st4" d="M241.8,320.8c-0.6,1.1-46.4,59.5-46.4,59.5l-60,36l13.6,14.3c0,0,65.1-16.2,72.2-24.1
				c7.1-7.9,34.8-39.1,34.8-39.1L241.8,320.8L241.8,320.8z"/>
			<path class="st5" d="M211.3,395.8c-0.1,0-0.4-1-1.3-2.5s-2.2-3.5-4.2-5.2c-2-1.7-4.1-2.9-5.7-3.5c-1.6-0.6-2.7-0.9-2.6-0.9
				c0,0,0.3,0,0.8,0.1c0.5,0.1,1.2,0.2,2,0.5c1.7,0.5,3.9,1.7,5.9,3.5c2,1.8,3.4,3.9,4.2,5.4c0.4,0.8,0.6,1.5,0.8,1.9
				C211.3,395.6,211.3,395.8,211.3,395.8L211.3,395.8z"/>
			<g>
				<path class="st4" d="M115.8,421.5L98.7,432c-0.8,0.5-1.6,1.2-2.1,2l-6.4,10.8c-1.4,2.6,1.2,5.7,4,4.5c0,0,0.1,0,0.1,0
					c0,0,4.6,1.5,7.3-0.4s8.1-10.4,8.1-10.4l4.8-0.6l-5.6,11.1c0,0,4.4,1.5,7.3-1c2.9-2.5,7.4-9.6,7.4-9.6l8-2.1
					c0,0,4.1,2.4,11.1,0.8c0,0-0.1,9.3,6.2,12.1c2.9,1.3,2.7-3.3,2.7-3.3l-0.9-7.1c0.1-0.6,0.8-2.5,0.7-3.1l-3.3-13.2l-8.9-8.5
					L115.8,421.5L115.8,421.5z"/>
				<path class="st5" d="M113.9,435.9c0,0-0.3,0.3-1.1,0.8c-0.8,0.5-1.8,1.2-3.1,2.1l0,0c-1.3,1.9-3.1,4.3-5.2,7.1
					c-0.5,0.7-1.1,1.4-1.7,2.1c-0.3,0.4-0.6,0.7-1,1.1c-0.2,0.2-0.4,0.4-0.6,0.5c-0.2,0.1-0.4,0.3-0.7,0.4c-1,0.4-2.1,0.5-3.1,0.4
					s-2.1-0.3-3.2-0.7l-0.3-0.1l0.1-0.3c0.6-1,1.1-2.1,1.7-3.2c2.1-3.9,4.1-7.7,5.9-11l0-0.1l0.1,0c4.3-2.6,7.9-4.8,10.5-6.3
					c1.2-0.7,2.2-1.3,3-1.8c0.7-0.4,1.1-0.6,1.1-0.6c0,0-0.3,0.3-1,0.7c-0.7,0.5-1.7,1.1-2.9,1.9c-2.6,1.6-6.2,3.9-10.4,6.5l0.1-0.1
					c-1.8,3.3-3.7,7.1-5.8,11c-0.6,1.1-1.2,2.2-1.7,3.2l-0.1-0.4c1,0.4,2,0.6,3.1,0.7s2,0,2.9-0.3c0.9-0.3,1.5-1.1,2.1-1.8
					c0.6-0.7,1.2-1.4,1.7-2.1c2.2-2.8,4-5.2,5.3-7l0,0h0c1.3-0.8,2.3-1.5,3.1-2C113.4,436,113.8,435.8,113.9,435.9L113.9,435.9z"/>
				<path class="st5" d="M133.2,435.9c0,0-0.2,0.1-0.6,0.2c-0.5,0.1-1.1,0.3-1.9,0.6c-1.7,0.5-4.1,1.2-7,2l0.1-0.1
					c-1.2,2.1-2.7,4.4-4.6,6.8c-1,1.2-2,2.4-3.4,3.3c-1.4,0.9-3.2,1.4-5,1.2c-0.7-0.1-1.4-0.3-2.1-0.6l-0.2-0.1l0.1-0.2
					c2.9-5.5,5.6-10.5,7.6-14.5l0,0l0,0c2.3-1.7,4.2-3.1,5.6-4.1c0.6-0.5,1.1-0.8,1.5-1.1c0.3-0.2,0.6-0.4,0.6-0.4
					c0,0-0.2,0.2-0.5,0.5c-0.4,0.3-0.9,0.7-1.5,1.2c-1.3,1.1-3.2,2.5-5.5,4.3l0.1-0.1c-2,3.9-4.6,9-7.5,14.5l-0.1-0.3
					c0.5,0.3,1.2,0.5,1.8,0.5c1.6,0.2,3.3-0.3,4.6-1.1c1.3-0.9,2.4-2.1,3.3-3.2c1.9-2.3,3.4-4.6,4.6-6.7l0-0.1l0.1,0
					c2.9-0.8,5.3-1.4,7-1.8c0.8-0.2,1.4-0.4,1.9-0.5C132.9,435.9,133.2,435.9,133.2,435.9L133.2,435.9z"/>
				<path class="st5" d="M150.5,449.3c0,0-0.1,0-0.2,0.1c-0.1,0.1-0.3,0.1-0.6,0.2c-0.6,0.1-1.4-0.1-2.2-0.6
					c-0.8-0.6-1.6-1.5-2.3-2.5c-0.4-0.5-0.7-1.1-1.1-1.7c-0.4-0.6-0.6-1.3-0.9-2c-0.7-2.2-0.9-4.4-0.9-6.1l0.1,0.2
					c-1.1-0.8-2-1.5-2.6-2c-0.6-0.5-1-0.8-0.9-0.8c0,0,0.4,0.2,1.1,0.6c0.7,0.4,1.6,1,2.8,1.8l0.1,0.1v0.1c0.1,1.7,0.4,3.8,1,6
					c0.2,0.7,0.5,1.4,0.8,1.9c0.3,0.6,0.7,1.2,1,1.7c0.7,1,1.4,1.9,2.2,2.5c0.7,0.6,1.5,0.8,2,0.8
					C150.2,449.3,150.5,449.2,150.5,449.3L150.5,449.3z"/>
				<path class="st5" d="M146.6,422.2c0.1-0.1,1.8,1.4,2.8,3.8c1.1,2.5,1,4.7,0.9,4.7c-0.2,0-0.3-2.1-1.3-4.5
					C147.9,423.9,146.4,422.3,146.6,422.2z"/>
			</g>
		</g>
		<g>
			<g>
				<g>
					<path class="st1" d="M358.3,175.1c2.6-2.9,3-7.6,1.1-10.9s-6.2-5.3-10-4.4c-0.4-3.8-2.8-7.4-6.3-9.1c-3.5-1.7-7.8-1.4-11,0.8
						c-4.4-3.4-11.3-3.2-15.5,0.5c-3.8-0.5-7.8,1.7-9.3,5.2s-0.6,7.9,2.2,10.4l46.1,25.3c4.4,0.3,8.7-3.2,9.5-7.5
						S362.6,176.3,358.3,175.1L358.3,175.1z"/>
					<g>
						<path class="st4" d="M315,160.9l2-0.1c19.9-1,37.2,13.5,39.8,33.2c2.4,18.4,4.8,38.7,5.2,48.6c0.8,20.5-19.6,24.7-19.6,24.7
							l3,24.5l-49.8,0.9l-8.8-89.1C283.8,182.5,293.7,163.2,315,160.9L315,160.9z"/>
						<path class="st5" d="M342.6,267.4c0,0-13,1.4-27.3-6.5c0,0,7,14.4,27.4,11.6L342.6,267.4z"/>
						<path class="st1" d="M351.6,213.8c0.1,1.5-1.1,2.9-2.7,3.1c-1.6,0.2-3-0.9-3.1-2.5c-0.1-1.5,1.1-2.9,2.7-3.1
							C350,211.1,351.4,212.2,351.6,213.8L351.6,213.8z"/>
						<path class="st1" d="M352.9,204.3c-0.3,0.4-2.6-1.1-5.8-1c-3.1,0.1-5.4,1.9-5.7,1.5c-0.2-0.2,0.2-0.9,1.1-1.6
							c1-0.8,2.6-1.6,4.6-1.7c2-0.1,3.6,0.6,4.6,1.2C352.7,203.4,353.1,204.1,352.9,204.3L352.9,204.3z"/>
						<path class="st1" d="M324.9,215.9c0.1,1.5-1.1,2.9-2.7,3.1c-1.6,0.2-3-0.9-3.1-2.5c-0.1-1.5,1.1-2.9,2.7-3.1
							C323.3,213.2,324.7,214.3,324.9,215.9L324.9,215.9z"/>
						<path class="st1" d="M321.9,206.4c-0.3,0.4-2.6-1.1-5.8-1c-3.1,0.1-5.4,1.9-5.7,1.5c-0.2-0.2,0.2-0.9,1.1-1.6
							c1-0.8,2.6-1.6,4.6-1.7c2-0.1,3.6,0.6,4.6,1.2C321.7,205.6,322.1,206.2,321.9,206.4L321.9,206.4z"/>
						<path class="st1" d="M334.5,229.2c0-0.2,1.9-0.6,5.1-1.2c0.8-0.1,1.5-0.3,1.7-0.9c0.2-0.6-0.2-1.4-0.6-2.4
							c-0.9-1.9-1.8-3.9-2.7-6c-3.7-8.6-6.5-15.6-6.1-15.8c0.4-0.1,3.7,6.7,7.4,15.2c0.9,2.1,1.8,4.1,2.6,6.1
							c0.4,0.9,0.9,1.9,0.6,3.1c-0.2,0.6-0.8,1.1-1.3,1.2c-0.5,0.2-1,0.2-1.4,0.3C336.5,229.3,334.5,229.4,334.5,229.2L334.5,229.2z
							"/>
						<path class="st1" d="M324.1,194.2c-0.4,0.8-3.1,0.1-6.5,0.1c-3.3,0-6.1,0.8-6.5-0.1c-0.1-0.4,0.4-1.1,1.6-1.8
							c1.2-0.7,2.9-1.3,4.9-1.3c2,0,3.8,0.6,4.9,1.2C323.7,193,324.2,193.8,324.1,194.2z"/>
						<path class="st1" d="M352.4,191.3c-0.6,0.8-3.3,0.1-6.4,0.3c-3.1,0-5.8,0.8-6.4,0.1c-0.3-0.4,0.1-1.1,1.2-1.8
							c1.1-0.7,3-1.4,5.1-1.4c2.1-0.1,4,0.5,5.2,1.2C352.3,190.2,352.7,190.9,352.4,191.3L352.4,191.3z"/>
						<path class="st1" d="M354.3,184.7c0,0-6-12.6-12.4-15.3c-7.7-3.3-10.5,5.1-17.7,3.5c-7.2-1.6-14.6-4.8-21.6,1.1
							c-7.7,6.4-3.7,10.5-3.8,19.6c-0.2,37-6.4,47.8-9.2,30.5c-0.3-1.9-5.7-3.1-6.8-11.1c-1.5-10.4-2.6-23-0.6-30.5
							c1.6-6.3,5-10.8,11.1-15.9c9.7-8,23.5-8.9,33-8.4C335.8,158.7,354.4,168.6,354.3,184.7L354.3,184.7z"/>
						<path class="st4" d="M291,223.6c-0.3-3.2-3.1-5.5-6.3-5.1c-3.8,0.6-8,2.9-7.3,10.8c1.1,14,15,10,15,9.6
							C292.3,238.6,291.5,229.4,291,223.6L291,223.6z"/>
						<path class="st5" d="M288.9,233.9c-0.1,0-0.2,0.2-0.6,0.4c-0.4,0.2-1.1,0.4-1.8,0.2c-1.5-0.4-3-2.7-3.2-5.2
							c-0.1-1.3,0-2.5,0.4-3.6c0.3-1.1,1-1.8,1.7-2c0.7-0.2,1.3,0.2,1.5,0.6c0.2,0.4,0.1,0.7,0.2,0.7c0,0,0.3-0.3,0.1-0.8
							c-0.1-0.3-0.3-0.6-0.6-0.8c-0.4-0.2-0.9-0.4-1.4-0.2c-1.1,0.2-2,1.2-2.4,2.4c-0.5,1.1-0.7,2.5-0.5,4c0.3,2.8,2,5.3,4,5.8
							c1,0.2,1.8-0.2,2.2-0.6C288.8,234.2,288.9,233.9,288.9,233.9L288.9,233.9z"/>
					</g>
				</g>
				<path class="st3" d="M280.3,192.9c11.6-5.6,21.7-8.6,34.5-11.8s29.4-5.9,37.2-4.8c1.9,3.5,3.1,7,3.5,10.4c0,0-53.7,4-74.5,17.4
					L280.3,192.9L280.3,192.9z"/>
				<path class="st1" d="M287.4,191.7c0,0,0,3.5,4.8,5.3c2.1,0.8,5,0.5,6.4-2.1c0.5-0.9,2.5-3.5,2.5-3.5s3.1,0.6,4.3,0.7
					c4.1,0.2,8.6-5.4,8.6-8.9c1.1,1.5,3.1,1.3,4.9,0.8c1.4-0.4,2.3-1.3,3.4-2.8c2.7-3.6,1.8-6.7,1.8-6.7c1,0.1,5-1.1,5.8-1.9
					c1.4-1.2,3.9-4.3,4.1-6.2s-0.9,4,0.6,2.9c1.4-1,3.3-0.6,5-0.4c1.7,0.2,3.9-0.3,4.2-2c0.2-0.9-0.2-1.8-0.8-2.5
					c-2.4-3.3-7.2-4.6-10.9-2.9c-1.6-4.6-6.1-7.9-10.9-8.2c-4.8-0.3-9.7,2.6-11.8,7c-3.1-2.5-7.5-3.5-11.3-2.4
					c-3.9,1.1-7.1,4.1-8.4,7.9c-3.5-0.7-7.3,0.8-9.3,3.7c-2,2.9-2.1,7-0.2,10c-2.5,1.6-5.3,4.3-4.4,7.1
					C278.5,194.9,284.7,192.6,287.4,191.7"/>
				<path class="st3" d="M333.5,165.6c0,0,0,0.1,0,0.3c0,0.2,0,0.4,0,0.8c-0.1,0.6-0.3,1.6-0.9,2.8c-0.6,1.1-1.5,2.4-2.9,3.5
					c-1.4,1.1-3.4,1.9-5.7,1.9l0.2-0.3c0.5,1.2,0.5,2.6-0.1,3.9c-0.5,1.3-1.3,2.4-2.2,3.6c-0.5,0.5-0.9,1.2-1.5,1.7
					c-0.6,0.5-1.4,0.8-2.2,0.9c-1.6,0.3-3.4-0.1-4.6-1.4l0.5-0.2c-0.2,2.8-1.7,5.7-4.1,7.5c-1.3,1-2.9,1.7-4.5,1.7
					c-1.6,0.1-3.1-0.3-4.6-0.8l0.4-0.2c-0.7,1.8-1.8,3.3-3.1,4.5c-1.3,1.2-3.1,1.9-4.8,1.6c-3.3-0.5-5.7-3.2-6.2-5.8l0.3,0.1
					c-1.6,1-3.4,1.1-4.8,0.9c-1.5-0.2-2.6-0.8-3.4-1.3c-0.8-0.6-1.3-1.2-1.6-1.6c-0.3-0.4-0.4-0.7-0.4-0.7c0.1-0.1,0.5,1,2.2,2.1
					c0.8,0.5,2,1,3.3,1.2c1.4,0.2,3,0,4.5-1l0.3-0.2l0.1,0.3c0.6,2.4,2.8,4.9,5.9,5.3c1.5,0.3,3.1-0.4,4.4-1.5
					c1.3-1.1,2.3-2.6,2.9-4.3l0.1-0.3l0.3,0.1c1.4,0.4,2.9,0.8,4.4,0.7c1.5,0,3-0.6,4.2-1.6c2.3-1.7,3.7-4.4,3.9-7.1l0-0.7l0.5,0.5
					c1,1.1,2.6,1.5,4,1.2c0.7-0.1,1.4-0.4,1.9-0.8c0.5-0.4,0.9-1,1.4-1.6c0.9-1.1,1.7-2.2,2.2-3.4c0.5-1.2,0.6-2.4,0.1-3.5l-0.1-0.3
					h0.4c2.1,0,4-0.7,5.4-1.8c1.4-1,2.3-2.2,2.9-3.3C333.5,167.1,333.4,165.6,333.5,165.6L333.5,165.6z"/>
				<g>
					<path class="st3" d="M348.4,186.2l-16,2.1c-1.2,0.2-2.4-0.7-2.5-1.9l-1.3-9.8c-0.2-1.2,0.7-2.4,1.9-2.5l16-2.1
						c1.2-0.2,2.4,0.7,2.5,1.9l1.3,9.8C350.5,184.9,349.6,186,348.4,186.2z"/>
					<path class="st1" d="M348.4,186.2c0,0,0.2-0.1,0.6-0.2c0.4-0.2,0.9-0.6,1.1-1.4c0.1-0.4,0.1-0.8,0-1.3
						c-0.1-0.5-0.1-1.1-0.2-1.6c-0.2-1.2-0.4-2.5-0.6-4c-0.1-0.7-0.2-1.5-0.3-2.3c-0.1-0.4-0.1-0.8-0.2-1.2c0-0.4-0.2-0.8-0.4-1.1
						c-0.5-0.6-1.3-0.9-2.2-0.7c-0.9,0.1-1.9,0.3-2.9,0.4c-3.9,0.5-8.2,1.1-12.8,1.7c-1,0.1-1.8,1.1-1.7,2.1
						c0.1,1.1,0.3,2.2,0.4,3.2c0.3,2.1,0.5,4.2,0.8,6.1c0.1,0.5,0.1,0.9,0.3,1.3c0.2,0.4,0.6,0.7,1,0.8c0.4,0.2,0.8,0.2,1.2,0.1
						c0.5-0.1,0.9-0.1,1.3-0.2c1.7-0.2,3.4-0.4,4.9-0.6c2.9-0.4,5.3-0.6,7-0.9c0.8-0.1,1.4-0.1,1.9-0.2
						C348.2,186.2,348.4,186.1,348.4,186.2c0,0-0.2,0-0.7,0.1c-0.5,0.1-1.1,0.2-1.9,0.3c-1.7,0.2-4.1,0.6-7,1
						c-1.5,0.2-3.1,0.4-4.9,0.7c-0.4,0.1-0.9,0.1-1.3,0.2c-0.5,0.1-1,0.1-1.5-0.1c-0.5-0.2-0.9-0.6-1.2-1c-0.3-0.4-0.4-1-0.4-1.5
						c-0.3-2-0.5-4-0.8-6.1c-0.1-1.1-0.3-2.2-0.4-3.3c-0.1-1.2,0.9-2.5,2.2-2.6c4.5-0.6,8.8-1.2,12.8-1.7c1-0.1,1.9-0.2,2.9-0.4
						c0.4-0.1,1-0.1,1.5,0.1c0.5,0.2,0.9,0.5,1.2,0.9c0.3,0.4,0.5,0.9,0.5,1.3c0,0.4,0.1,0.8,0.2,1.2c0.1,0.8,0.2,1.6,0.3,2.3
						c0.2,1.5,0.4,2.8,0.5,4c0.1,0.6,0.1,1.1,0.2,1.6c0.1,0.5,0.1,1,0,1.4c-0.3,0.9-0.9,1.3-1.3,1.4
						C348.7,186.2,348.4,186.2,348.4,186.2L348.4,186.2z"/>
				</g>
				<g class="st6">
					<path d="M336.6,187.9l-3.6,0.5c-1.4,0.2-2.7-0.8-2.9-2.2l-1.2-9.2c-0.2-1.4,0.8-2.7,2.2-2.9l3.6-0.5L336.6,187.9L336.6,187.9z"
						/>
				</g>
				<g>
					<path class="st7" d="M347.8,179.8c0,3-2.4,5.4-5.4,5.4s-5.4-2.4-5.4-5.4s2.4-5.4,5.4-5.4S347.8,176.9,347.8,179.8z"/>
					<path class="st1" d="M347.8,179.8c0,0,0-0.5-0.3-1.3c-0.2-0.8-0.8-1.9-2-2.8c-1.2-0.9-3-1.4-4.9-0.7c-1.8,0.6-3.4,2.6-3.4,4.8
						c0,2.3,1.5,4.2,3.4,4.8c1.8,0.7,3.7,0.2,4.9-0.7c1.2-0.9,1.7-2,2-2.8C347.8,180.3,347.8,179.8,347.8,179.8c0,0,0,0.1,0,0.3
						c0,0.2,0,0.6-0.1,1c-0.2,0.8-0.7,2.1-1.9,3.1c-1.2,1-3.3,1.6-5.3,0.9c-1-0.4-1.9-1-2.6-1.9c-0.7-0.9-1.1-2.1-1.1-3.3
						c0-1.2,0.4-2.4,1.1-3.3c0.7-0.9,1.6-1.6,2.6-1.9c2-0.7,4.1-0.1,5.3,0.9c1.2,1,1.8,2.2,1.9,3.1c0.1,0.4,0.1,0.8,0.1,1
						C347.8,179.7,347.8,179.8,347.8,179.8L347.8,179.8z"/>
				</g>
				<g>
					<path class="st5" d="M333.9,236.6L333.9,236.6c-1.3-0.6-2.6-1.2-4-1.4s-3,0.2-3.9,1.2c-0.9,1-1.1,2.4-0.9,3.7
						c0.3,2,1.5,3.9,3.4,4.7s4.3,0.3,5.5-1.3c0.8-1,0.9-2.3,1-3.6C335,238.2,334.4,236.7,333.9,236.6z"/>
					<path class="st1" d="M334.5,243c0,0.1-0.2,0.4-0.6,0.8c-0.5,0.4-1.2,1.1-2.3,1.6c-0.6,0.3-1.4,0.4-2.1,0.2
						c-0.7-0.1-1.5-0.5-2.1-0.9c-0.7-0.4-1.4-1.1-1.8-1.9c-0.4-0.9-0.6-1.7-0.7-2.6c-0.3-1.9,0.3-3.9,1.9-4.9
						c0.8-0.5,1.6-0.6,2.4-0.6c0.7,0.1,1.4,0.2,2,0.4c1,0.4,2,0.6,2.6,1c0.6,0.4,0.8,0.7,0.8,0.7c0,0.1-0.4-0.1-0.9-0.4
						c-0.6-0.2-1.5-0.4-2.6-0.7c-1-0.3-2.5-0.5-3.5,0.2c-1.1,0.8-1.6,2.4-1.4,4c0.1,0.8,0.3,1.7,0.6,2.3c0.3,0.7,0.9,1.2,1.4,1.6
						c1.2,0.9,2.5,1.2,3.4,0.8c1-0.4,1.8-0.9,2.3-1.2C334.2,243.2,334.5,243,334.5,243L334.5,243z"/>
				</g>
			</g>
			<g>
				<g class="st8">
					
						<ellipse transform="matrix(0.998 -6.331413e-02 6.331413e-02 0.998 -9.6682 36.8535)" class="st2" cx="576.7" cy="171" rx="94.4" ry="98.1"/>
				</g>
				<g class="st6">
					<path class="st2" d="M482.5,176.9c-2.6-40.9,19.3-77.5,52.7-94.3L340.7,175c-4.9,1.7-5.2,7.8,1.3,10.4l198.3,75.8
						C508.3,247.1,484.9,215.3,482.5,176.9L482.5,176.9z"/>
				</g>
				<path class="st7" d="M491.1,106.7c0.1,0.1-27,13.2-60.5,29.2c-33.5,16-60.7,28.8-60.7,28.7s27-13.2,60.5-29.2
					C463.9,119.4,491,106.6,491.1,106.7L491.1,106.7z"/>
				<path class="st7" d="M664.3,147.3c0,0,0,0.1,0.1,0.4c0.1,0.3,0.2,0.7,0.3,1.2c0.1,0.5,0.2,1.2,0.4,2c0.2,0.8,0.3,1.7,0.5,2.7
					c0.7,4.1,1.3,10,1.2,17.4c0,3.7-0.4,7.7-0.9,12.1c-0.2,1.1-0.3,2.2-0.5,3.3c-0.1,0.6-0.2,1.1-0.3,1.7c-0.1,0.6-0.2,1.1-0.3,1.7
					c-0.2,1.1-0.5,2.3-0.7,3.4c-0.3,1.1-0.6,2.3-0.9,3.5c-2.5,9.4-6.8,19.5-12.9,28.9c-3.1,4.7-6.5,9-10.1,13
					c-3.6,3.9-7.4,7.4-11.2,10.4c-7.7,6-15.5,10.4-22.3,13.1c-6.9,2.7-12.8,3.9-16.9,4.3c-0.5,0.1-1,0.1-1.5,0.2
					c-0.5,0-0.9,0-1.3,0.1c-0.8,0-1.5,0.1-2,0.1c-0.5,0-0.9,0-1.2,0c-0.3,0-0.4,0-0.4,0s0.1,0,0.4,0c0.3,0,0.7,0,1.2-0.1
					c0.5,0,1.2-0.1,2-0.1c0.4,0,0.8,0,1.3-0.1c0.5-0.1,0.9-0.1,1.4-0.2c4.1-0.5,10-1.8,16.8-4.5c6.8-2.7,14.5-7.1,22.2-13.1
					c3.8-3.1,7.6-6.5,11.2-10.4c3.6-3.9,7-8.2,10.1-12.9c6.1-9.4,10.3-19.4,12.9-28.8c0.3-1.2,0.6-2.3,0.9-3.5
					c0.2-1.2,0.5-2.3,0.7-3.4c0.1-0.6,0.2-1.1,0.3-1.7c0.1-0.6,0.2-1.1,0.3-1.7c0.2-1.1,0.4-2.2,0.5-3.3c0.5-4.3,0.9-8.3,1-12
					c0.2-7.4-0.4-13.3-1-17.4c-0.1-1-0.3-1.9-0.4-2.7c-0.1-0.8-0.3-1.4-0.3-2c-0.1-0.5-0.2-0.9-0.2-1.2
					C664.2,147.4,664.2,147.3,664.3,147.3L664.3,147.3z"/>
				<path class="st7" d="M661.1,139.1c-0.2,0-0.6-3.1-2.2-6.6c-1.5-3.5-3.5-5.9-3.4-6.1c0,0,0.6,0.5,1.4,1.5c0.8,1,1.7,2.5,2.5,4.3
					c0.8,1.8,1.3,3.5,1.5,4.7S661.1,139.1,661.1,139.1L661.1,139.1z"/>
				<path class="st7" d="M557.6,261.3c0,0.1-22.2-8.1-49.4-18.3c-27.2-10.3-49.2-18.7-49.2-18.8c0-0.1,22.1,8.1,49.4,18.3
					C535.6,252.7,557.7,261.2,557.6,261.3L557.6,261.3z"/>
			</g>
		</g>
		<g>
			<path class="st2" d="M377.2,288.5c-19.2,7.5-9.6,5.9-9.6,38.3c0,33.5,7.6,50.2,7.6,50.2l52.4-26.7l-15-30.8
				C403.6,300.5,399.5,295.6,377.2,288.5L377.2,288.5z"/>
			<g>
				<polygon class="st4" points="278.3,289.4 300.9,280.5 342.5,278.2 362.1,285.6 335.3,300.5 312.2,299.6 				"/>
				<path class="st2" d="M384.9,361.5l-7.8-73c0,0-20.4-7-30.8-10.4c0,0-11,11.4-31.8,11.1c-20.4-0.3-24.6-4.9-24.6-4.9l-28.5,10.9
					c0,0-18.3,8.3-23.7,16.2c-7.4,10.9-27,38.2-27,38.2l36.6,33l9.1-10.6l1.8,43.2c38,1.7,87.4,2.8,127.9-0.2l-0.8-29.5L384.9,361.5
					L384.9,361.5z"/>
				<g class="st6">
					<polyline points="335.5,339.8 337.1,370.8 357.5,380 372.7,367 372.7,338.3 335.5,339.8 					"/>
				</g>
				<g class="st6">
					<path d="M242.5,328.8c-0.7,13.5,4.4,26.5,13.4,36.6C253.1,352.6,246.2,340.9,242.5,328.8z"/>
				</g>
				<path class="st1" d="M387.9,315.9c0,0,0,0.2,0,0.5c0,0.4,0,0.9,0,1.4c-0.1,1.3-0.1,3.1-0.2,5.2c-0.2,4.4-0.6,10.5-1.1,17.3
					c-0.9,13.5-2,24.5-2.5,24.4c0,0,0.1-0.6,0.3-1.9c0.1-1.2,0.3-3,0.4-5.2c0.3-4.5,0.8-10.6,1.2-17.3s0.9-12.8,1.2-17.3
					c0.2-2.1,0.3-3.9,0.4-5.2c0-0.6,0.1-1,0.1-1.4C387.8,316.1,387.8,315.9,387.9,315.9L387.9,315.9z"/>
			</g>
			<path class="st1" d="M240.8,325.9c0,0,0.1,0.2,0.3,0.7c0.2,0.5,0.5,1.2,0.9,2.1c0.8,1.9,1.8,4.4,3.1,7.6
				c2.6,6.5,6.1,15.4,9.9,25.2c0.4,0.9,0.7,1.9,1.1,2.7l0,0v0c0.4,9.9,0.8,18.7,1.1,25.1c0.1,3.1,0.2,5.7,0.3,7.5c0,0.9,0,1.5,0,2
				c0,0.5,0,0.7,0,0.7s0-0.2-0.1-0.7c0-0.5-0.1-1.2-0.1-2c-0.1-1.8-0.2-4.4-0.4-7.5c-0.3-6.4-0.8-15.2-1.2-25.1l0,0.1
				c-0.3-0.9-0.7-1.8-1.1-2.7c-3.8-9.8-7.3-18.7-9.8-25.2c-1.2-3.2-2.2-5.8-2.9-7.7c-0.3-0.9-0.6-1.6-0.8-2.1
				C240.9,326.2,240.8,325.9,240.8,325.9L240.8,325.9z"/>
			<g>
				<path class="st3" d="M395.2,415.2l-19.1,0.5v-59.5c0-5.3,4.3-9.6,9.6-9.6l0,0c5.3,0,9.6,4.3,9.6,9.6L395.2,415.2L395.2,415.2
					L395.2,415.2z"/>
				<path class="st3" d="M292.9,416.6l-20.3-0.5l1.1-58.4c0-5.3,4.3-9.6,9.6-9.6l0,0c5.3,0,9.6,4.3,9.6,9.6L292.9,416.6L292.9,416.6
					L292.9,416.6z"/>
				<rect x="288.7" y="392.7" class="st3" width="93.8" height="13.9"/>
				<path class="st1" d="M292.9,416.2c-0.1,0-0.3-12.9-0.3-28.8s0.1-28.8,0.3-28.8s0.3,12.9,0.3,28.8
					C293.2,403.3,293.1,416.2,292.9,416.2z"/>
				<path class="st1" d="M376,414.8c-0.1,0-0.3-11.2-0.3-25s0.1-25,0.3-25s0.3,11.2,0.3,25S376.2,414.8,376,414.8z"/>
			</g>
		</g>
	</g>
</g>
<g>
	<path class="st0" d="M592.3,120.1h-34.6c-14.3,0-25.9,11.6-25.9,25.9v56.2c0,2.4,1.9,4.3,4.3,4.3h56.2c14.3,0,25.9-11.6,25.9-25.9
		V146C618.2,131.7,606.6,120.1,592.3,120.1 M579.3,189.3h-8.7v-8.6h8.7V189.3z M579.3,172h-8.7v-34.6h8.7V172z"/>
	<text transform="matrix(1 0 0 1 532.67 230.56)" class="st0 st9 st10">Faild Request</text>
</g>
</svg>
